<?xml version="1.0" encoding="UTF-8"?>
<svg version="1.1" xmlns="http://www.w3.org/2000/svg" width="341" height="150">
<path d="M0 0 C5.33272919 1.40097123 8.7725609 5.37692096 11.80859375 9.79296875 C25.73224555 33.73333721 27.636034 74.12323003 21.28515625 100.5703125 C19.84863982 105.01721794 17.98494098 108.78691484 15.3046875 112.60546875 C14.2528125 114.15234375 14.2528125 114.15234375 13.1796875 115.73046875 C5.81970862 124.03937572 -4.98714397 128.09671184 -15.6953125 129.60546875 C-27.79848441 130.25846297 -39.07737364 129.4101636 -48.48828125 121.00390625 C-55.41470622 113.51310591 -56.21870682 106.0887276 -55.97265625 96.16796875 C-55.39693843 88.77283282 -53.20897858 84.16128388 -47.69140625 79.1484375 C-40.97519139 73.95684284 -34.57366268 72.88694769 -26.140625 73.16015625 C-19.52791377 74.01486042 -14.01074396 76.62146169 -9.5703125 81.66796875 C-6.55606741 86.5420672 -7.01239247 92.10374219 -7.6953125 97.60546875 C-9.41183461 103.05795073 -13.09150923 106.39326965 -17.6953125 109.60546875 C-22.41716329 111.17941901 -26.23127969 111.17959926 -30.8828125 109.35546875 C-33.72363345 107.58784682 -35.73343496 106.32191458 -37.6953125 103.60546875 C-38.12740993 100.08696113 -38.33197499 97.73731318 -36.5703125 94.60546875 C-33.67159888 93.05948815 -31.77526726 93.70714861 -28.6953125 94.60546875 C-27.6953125 95.60546875 -26.6953125 96.60546875 -25.6953125 97.60546875 C-23.57488494 97.76312725 -23.57488494 97.76312725 -21.6953125 96.60546875 C-20.27864583 94.27213542 -20.27864583 94.27213542 -19.6953125 91.60546875 C-20.36700157 88.56311579 -20.36700157 88.56311579 -22.453125 87.44140625 C-26.47979197 85.94017501 -30.4695966 86.05225989 -34.6953125 86.60546875 C-38.55076048 88.60204002 -40.29336342 90.00254513 -42.6953125 93.60546875 C-43.40598566 100.00152716 -43.56793174 106.21146338 -39.6953125 111.60546875 C-34.9874572 116.31332405 -28.84142647 116.76076205 -22.5078125 116.98046875 C-13.67138091 116.83778127 -5.28100647 114.75211645 1.3046875 108.60546875 C1.9646875 108.60546875 2.6246875 108.60546875 3.3046875 108.60546875 C4.78687862 105.71419907 6.12390683 102.79480611 7.3671875 99.79296875 C7.70878906 98.98214844 8.05039063 98.17132813 8.40234375 97.3359375 C13.44649991 82.07245198 9.86433552 63.24965099 8.3046875 47.60546875 C-0.05049743 49.1075462 -0.05049743 49.1075462 -8.3828125 50.73046875 C-9.21167969 50.89804688 -10.04054687 51.065625 -10.89453125 51.23828125 C-11.48878906 51.35945313 -12.08304688 51.480625 -12.6953125 51.60546875 C-12.4478125 52.78109375 -12.4478125 52.78109375 -12.1953125 53.98046875 C-11.78568311 56.95028183 -11.50103764 59.80231067 -11.3828125 62.79296875 C-11.32673828 64.05173828 -11.32673828 64.05173828 -11.26953125 65.3359375 C-11.6953125 67.60546875 -11.6953125 67.60546875 -13.4921875 69.4140625 C-16.82404202 71.21586326 -19.11012899 70.51806092 -22.6953125 69.60546875 C-24.75469466 68.02660909 -25.54102461 66.91404452 -26.6953125 64.60546875 C-27.37151674 44.1217184 -24.97223653 20.29457433 -11.36328125 4.01171875 C-7.91880291 0.59570718 -4.67981521 -0.29150364 0 0 Z M-4.6953125 14.60546875 C-8.76621449 23.92814505 -11.6953125 31.30261827 -11.6953125 41.60546875 C-5.4253125 40.94546875 0.8446875 40.28546875 7.3046875 39.60546875 C6.05374162 30.84884762 4.23852703 21.49637917 -1.6953125 14.60546875 C-2.6853125 14.60546875 -3.6753125 14.60546875 -4.6953125 14.60546875 Z " fill="#FFFFFF" transform="translate(225.6953125,18.39453125)"/>
<path d="M0 0 C5.3724266 1.8525609 7.04605169 5.3670921 9.625 10.25 C11.06357614 13.21177441 12.39723217 16.19502475 13.625 19.25 C17.2325351 18.98493022 18.52115824 18.34831826 21.1953125 15.81640625 C22.03835938 14.82511719 22.88140625 13.83382813 23.75 12.8125 C29.99537586 5.5325558 29.99537586 5.5325558 33.5625 4.9140625 C39.1361965 4.80850007 39.1361965 4.80850007 41.5625 7 C46.1314865 16.67550082 43.51001633 29.41058051 42.88037109 39.81494141 C42.74938196 42.01035857 42.63038799 44.20623034 42.51171875 46.40234375 C41.5373832 63.38142519 41.5373832 63.38142519 37.625 69.25 C35.1875 69.6875 35.1875 69.6875 32.625 69.25 C28.07315605 64.53541781 28.67069833 58.45615372 28.625 52.25 C28.91503945 46.78770242 29.46042013 41.37274898 30.0625 35.9375 C30.21264986 34.50336593 30.3617442 33.06912094 30.50976562 31.63476562 C30.86940011 28.17181835 31.2431237 24.7105739 31.625 21.25 C28.50905441 24.32164606 25.73555632 27.31871996 23.1875 30.875 C20.37640225 34.51969167 18.20757427 36.98247946 13.625 38.25 C10.33699119 37.84738668 8.48265094 37.17380583 6.20703125 34.72265625 C3.75836121 31.44100754 1.92616425 28.15349276 0.625 24.25 C-3.96844328 31.9057388 -2.66515602 42.59156521 -2.8046875 51.17773438 C-2.99893183 57.93986523 -3.32860199 63.10205539 -8.25 68.1875 C-10.375 69.25 -10.375 69.25 -12.9375 69.25 C-16.26295419 67.8857111 -16.86472429 66.48879935 -18.375 63.25 C-18.5970763 60.65201147 -18.62182723 58.44813671 -18.4375 55.875 C-18.38956299 55.12404053 -18.34162598 54.37308105 -18.29223633 53.59936523 C-17.61755503 45.41775661 -16.09789792 37.36727749 -14.5625 29.3125 C-14.43811554 28.64945862 -14.31373108 27.98641724 -14.18557739 27.30328369 C-10.10095295 5.7822586 -10.10095295 5.7822586 -5.45776367 1.46899414 C-3.375 0.25 -3.375 0.25 0 0 Z " fill="#FFFFFF" transform="translate(267.375,17.75)"/>
<path d="M0 0 C4.67461851 -0.32613618 7.16674383 0.29417212 11 3 C10.8125 5.3125 10.8125 5.3125 10 8 C6.2393463 10.83758416 3.19366356 11.37907053 -1.4375 11.75 C-5.73587362 12.352258 -8.61970031 12.76002955 -11.625 16 C-16.24067893 22.70107604 -18.04266544 30.96865812 -17 39 C-15.6052363 45.08440395 -13.48170102 51.35159709 -8.3515625 55.25390625 C-2.81101156 58.49908609 2.71018594 58.80614606 9 58 C11.56246521 57.22800504 13.60606101 56.24684322 16 55 C16.99 54.67 17.98 54.34 19 54 C19.33 53.01 19.66 52.02 20 51 C18.329375 51.2475 18.329375 51.2475 16.625 51.5 C13.33244388 51.89838757 10.06560322 52.15161415 6.75 52.25 C5.53570312 52.28867188 5.53570312 52.28867188 4.296875 52.328125 C1.4825401 51.92607716 0.11704998 50.8451353 -2 49 C-1.75 46.625 -1.75 46.625 -1 44 C2.32761791 41.70481724 5.6054136 41.64908482 9.5625 41.4375 C12.9943074 41.24662762 15.73487598 41.08837467 19 40 C23.04132399 39.62580333 25.30843504 39.60911546 28.875 41.625 C31.53839941 44.60174052 32 46.00834962 32 50 C30.70560868 56.05282037 27.62478794 60.92356499 23 65 C16.42109121 69.1831212 10.55224456 70.21554137 2.8125 70.25 C2.04800537 70.25394775 1.28351074 70.25789551 0.49584961 70.26196289 C-4.46616005 70.2107101 -8.35540013 69.52338308 -12.953125 67.58984375 C-16.2684077 66.63448557 -19.33732629 67.37986676 -22.703125 67.85546875 C-26.17472901 68.07392002 -28.20748259 66.97519524 -31 65 C-34.1113849 62.10319337 -34.56359906 59.04406772 -35.1796875 55 C-35 53 -35 53 -33.50390625 51.34375 C-31.10699367 47.60830183 -31.86334643 43.82271015 -32.0625 39.5 C-32.24006625 31.66232481 -32.24987608 23.90452647 -28 17 C-24.55245092 14.38198065 -21.53025946 13.58452963 -17.3125 12.875 C-10.19550666 11.24549039 -5.82430805 7.33000071 -1 2 C-0.67 1.34 -0.34 0.68 0 0 Z " fill="#FFFFFF" transform="translate(166,18)"/>
<path d="M0 0 C0.79180664 -0.01144043 1.58361328 -0.02288086 2.39941406 -0.03466797 C3.6557666 -0.01944092 3.6557666 -0.01944092 4.9375 -0.00390625 C5.79311523 0.00366699 6.64873047 0.01124023 7.53027344 0.01904297 C16.73611327 0.25781617 24.65246788 2.26163901 31.50390625 8.71875 C38.44691541 17.0238754 38.83786623 27.1075952 37.9375 37.43359375 C35.41940086 50.11042427 28.1668221 58.81495315 17.671875 65.98046875 C13.04764558 68.78017228 9.46960603 70.40984775 3.9375 69.43359375 C-4.24873363 63.10084698 -4.78737868 46.65051652 -6.1862793 36.88745117 C-7.10705815 29.53522201 -7.37987224 22.21429464 -7.4375 14.80859375 C-7.45135742 13.72328369 -7.46521484 12.63797363 -7.47949219 11.51977539 C-7.47336914 10.50906982 -7.46724609 9.49836426 -7.4609375 8.45703125 C-7.45755371 7.55903809 -7.45416992 6.66104492 -7.45068359 5.73583984 C-7.0625 3.43359375 -7.0625 3.43359375 -5.79150391 1.64672852 C-3.69940979 0.17883588 -2.54070254 0.03487126 0 0 Z M3.9375 10.37109375 C0.62462131 17.20390604 3.93352074 27.1447677 5.25 34.18359375 C5.57000977 36.01083984 5.57000977 36.01083984 5.89648438 37.875 C6.11240234 39.04417969 6.32832031 40.21335937 6.55078125 41.41796875 C6.74454346 42.47725586 6.93830566 43.53654297 7.13793945 44.62792969 C7.95917463 47.50965019 8.98556938 49.19067745 10.9375 51.43359375 C16.26988778 50.79224127 18.09317249 48.63004768 21.35546875 44.5859375 C26.72682668 37.2782382 27.15153785 29.29511408 25.9375 20.43359375 C22.89579964 14.80081531 19.82838646 12.50019768 13.9375 10.43359375 C10.4647524 9.52981273 7.31734255 8.78679256 3.9375 10.37109375 Z " fill="#FFFFFF" transform="translate(49.0625,20.56640625)"/>
<path d="M0 0 C7.57861523 0.12004742 14.59980336 0.81296624 20.46411133 6.06860352 C23.4120253 9.37551403 25.3710732 11.9546285 25.81958008 16.43969727 C25.33093862 22.49885133 22.96318659 27.17779609 18.50708008 31.31469727 C19.79142825 34.88094558 21.33323007 37.56619725 23.63208008 40.56469727 C26.95568826 45.36456831 27.05329826 48.57940635 26.50708008 54.31469727 C21.30645256 57.33831791 21.30645256 57.33831791 17.99536133 57.24047852 C14.52592813 55.94965329 13.96127934 54.22753835 12.38208008 50.93969727 C10.72642964 47.54785123 9.37513439 44.80939539 6.50708008 42.31469727 C4.52708008 42.97469727 2.54708008 43.63469727 0.50708008 44.31469727 C0.3859082 45.1693457 0.26473633 46.02399414 0.13989258 46.90454102 C-0.02768555 48.00926758 -0.19526367 49.11399414 -0.36791992 50.25219727 C-0.5303418 51.3543457 -0.69276367 52.45649414 -0.86010742 53.59204102 C-1.06893555 54.49051758 -1.27776367 55.38899414 -1.49291992 56.31469727 C-4.63633985 57.88640723 -8.05063443 57.5464551 -11.49291992 57.31469727 C-12.48291992 56.98469727 -13.47291992 56.65469727 -14.49291992 56.31469727 C-14.59374551 43.95192863 -14.61768847 31.60503461 -14.05541992 19.25219727 C-14.01618408 18.36838379 -13.97694824 17.48457031 -13.93652344 16.57397461 C-13.10853374 0.01100222 -13.10853374 0.01100222 0 0 Z M0.50708008 14.31469727 C0.17708008 18.93469727 -0.15291992 23.55469727 -0.49291992 28.31469727 C6.6861154 24.3634223 6.6861154 24.3634223 11.38208008 18.00219727 C11.42333008 17.44532227 11.46458008 16.88844727 11.50708008 16.31469727 C7.3186408 14.34366701 5.50855995 14.31469727 0.50708008 14.31469727 Z " fill="#FFFFFF" transform="translate(314.492919921875,92.685302734375)"/>
<path d="M0 0 C5.31096495 2.29100449 7.60362073 5.77499452 9.8984375 10.8828125 C13.75884667 21.80694909 14.27896126 32.93829787 14.375 44.4375 C14.39590698 46.10051147 14.39590698 46.10051147 14.41723633 47.79711914 C14.40793091 49.34967407 14.40793091 49.34967407 14.3984375 50.93359375 C14.39505371 51.86228271 14.39166992 52.79097168 14.38818359 53.74780273 C14.26008301 54.49102783 14.13198242 55.23425293 14 56 C10.31884463 58.45410358 8.34706402 58.23287843 4 58 C2.515 57.505 2.515 57.505 1 57 C-0.71466036 53.57067929 -0.05404056 49.78283935 0 46 C-3.63 46.66 -7.26 47.32 -11 48 C-11.66 50.97 -12.32 53.94 -13 57 C-14.4025 57.20625 -15.805 57.4125 -17.25 57.625 C-18.03890625 57.74101562 -18.8278125 57.85703125 -19.640625 57.9765625 C-22.32152459 58.00319395 -23.72694089 57.36592084 -26 56 C-26.67854443 38.9609955 -25.52617134 17.62183886 -14 4 C-9.49213624 0.10684494 -5.78181273 -1.08915911 0 0 Z M-5 15 C-8.09212176 21.08356979 -9.56699236 26.18012971 -10 33 C-6.7 32.67 -3.4 32.34 0 32 C-0.2831556 29.91549283 -0.57685669 27.83241633 -0.875 25.75 C-1.03742188 24.58984375 -1.19984375 23.4296875 -1.3671875 22.234375 C-1.91820431 19.41806687 -2.55796482 17.44782443 -4 15 C-4.33 15 -4.66 15 -5 15 Z " fill="#FFFFFF" transform="translate(283,92)"/>
<path d="M0 0 C0.79341797 -0.01611328 1.58683594 -0.03222656 2.40429688 -0.04882812 C5.91709273 -0.05177758 8.20574671 -0.01529706 11.3359375 1.67578125 C12.8125 3.3125 12.8125 3.3125 13.25 5.8125 C12.8125 8.3125 12.8125 8.3125 11.6875 10.0625 C5.80137973 13.98658018 -2.623153 11.91534819 -9.1875 11.3125 C-9.8475 17.2525 -10.5075 23.1925 -11.1875 29.3125 C-7.7225 28.8175 -7.7225 28.8175 -4.1875 28.3125 C-0.17003909 27.89501258 2.87103577 27.69251136 6.375 30 C7.8125 32.3125 7.8125 32.3125 7.6875 35 C6.8125 37.3125 6.8125 37.3125 4.8125 38.3125 C2.44126754 38.54279956 0.06508057 38.72369942 -2.3125 38.875 C-3.59382813 38.95878906 -4.87515625 39.04257812 -6.1953125 39.12890625 C-7.67644531 39.21978516 -7.67644531 39.21978516 -9.1875 39.3125 C-8.54408034 41.60486959 -7.8978774 43.89639031 -7.25 46.1875 C-7.06759766 46.83847656 -6.88519531 47.48945312 -6.69726562 48.16015625 C-5.66857307 51.82046485 -5.66857307 51.82046485 -4.1875 55.3125 C-0.72928001 56.34061946 1.39710658 56.21657473 4.8125 55.3125 C11.09336164 54.87173778 11.09336164 54.87173778 13.75 56.5 C15.21569823 59.00030874 15.31102135 60.46380656 14.8125 63.3125 C9.34190647 68.48351341 0.14810835 69.42774613 -7.125 69.6875 C-11.13025254 69.49677369 -13.90655793 68.75413131 -17.1875 66.3125 C-26.80289761 52.79382217 -25.28550901 31.17875124 -23 15.75 C-22.89913086 14.98816406 -22.79826172 14.22632813 -22.69433594 13.44140625 C-21.84819769 8.31440147 -20.51708427 5.52824931 -16.1875 2.3125 C-10.81385781 0.16693237 -5.70050663 -0.02349755 0 0 Z " fill="#FFFFFF" transform="translate(26.1875,18.6875)"/>
<path d="M0 0 C2.475 0.99 2.475 0.99 5 2 C5.23859087 10.98692293 4.88450044 19.65369466 3.71142578 28.56787109 C2.73457604 36.2102838 2.08210444 43.70526109 5 51 C6.5392464 53.21750908 6.5392464 53.21750908 9 54 C12.59130232 54.03639634 12.59130232 54.03639634 16 52 C22.06188507 44.62172702 22.66797927 34.10814177 24 25 C24.32900668 22.9992837 24.66055205 20.99897128 25 19 C28.3 18.34 31.6 17.68 35 17 C35.30714231 33.08455763 33.37468171 51.03164787 23 64 C18.82878699 68.05847752 14.60955966 69.94418207 8.7265625 70.03515625 C3.68250815 69.69162431 0.53685107 68.84000974 -3 65 C-11.58114432 53.7219246 -9.3517979 37.3300033 -7.61572266 24.06347656 C-7.17387467 20.93179925 -6.69081456 17.80986004 -6.1875 14.6875 C-6.03458496 13.69049072 -5.88166992 12.69348145 -5.72412109 11.66625977 C-4.2219904 3.01823632 -4.2219904 3.01823632 0 0 Z " fill="#FFFFFF" transform="translate(98,18)"/>
<path d="M0 0 C0.66 1.32 1.32 2.64 2 4 C-0.97514776 8.63273008 -4.2128643 12.90764589 -7.75 17.125 C-8.23726562 17.73214844 -8.72453125 18.33929687 -9.2265625 18.96484375 C-16.04715267 27.07533828 -24.65815002 28.99515424 -34.6875 31.375 C-35.80189453 31.65988281 -36.91628906 31.94476562 -38.06445312 32.23828125 C-39.67803711 32.62693359 -39.67803711 32.62693359 -41.32421875 33.0234375 C-42.7796106 33.37801025 -42.7796106 33.37801025 -44.2644043 33.73974609 C-47.42489496 34.04042285 -49.18400251 33.39277627 -52 32 C-51.7443815 25.73734682 -48.51733346 22.36334247 -44.625 17.8125 C-43.73941406 16.74612305 -43.73941406 16.74612305 -42.8359375 15.65820312 C-41.24390483 13.75242528 -39.6463923 11.85900938 -38 10 C-37.5683252 9.46874512 -37.13665039 8.93749023 -36.69189453 8.39013672 C-34.2617218 6.39339739 -31.8689781 5.93423324 -28.828125 5.17578125 C-27.60609375 4.86962891 -26.3840625 4.56347656 -25.125 4.24804688 C-23.84625 3.93931641 -22.5675 3.63058594 -21.25 3.3125 C-19.98671875 2.99216797 -18.7234375 2.67183594 -17.421875 2.34179688 C-11.44596578 0.86978983 -6.18651453 -0.17892851 0 0 Z " fill="#FFFFFF" transform="translate(171,0)"/>
<path d="M0 0 C2 2 2 2 2.24723816 4.109375 C2.24510063 5.41648437 2.24510063 5.41648437 2.24291992 6.75 C2.24599655 7.73863037 2.24907318 8.72726074 2.25224304 9.74584961 C2.24505753 10.81971924 2.23787201 11.89358887 2.23046875 13 C2.22978142 14.65817749 2.22978142 14.65817749 2.2290802 16.34985352 C2.22605314 18.69695097 2.21815341 21.04404633 2.20581055 23.39111328 C2.18771599 26.95743058 2.18529979 30.52348564 2.18554688 34.08984375 C2.18062516 36.37239805 2.17479401 38.6549506 2.16796875 40.9375 C2.16685593 41.99517578 2.1657431 43.05285156 2.16459656 44.14257812 C2.04969488 62.40206057 2.04969488 62.40206057 -1 67 C-4.4375 67.875 -4.4375 67.875 -8 68 C-11 66 -11 66 -12 63 C-12.10919856 60.44126668 -12.16373407 57.91069128 -12.16796875 55.3515625 C-12.17211288 54.59052216 -12.17625702 53.82948181 -12.18052673 53.04537964 C-12.19021845 50.57187099 -12.19018369 48.09852474 -12.1875 45.625 C-12.18756042 44.78864014 -12.18762085 43.95228027 -12.18768311 43.09057617 C-12.1774547 33.19994677 -12.07789099 23.35353114 -11.125 13.5 C-11.04660889 12.6848291 -10.96821777 11.8696582 -10.88745117 11.02978516 C-10.44073531 7.08515132 -9.8396613 3.54305139 -8 0 C-5.09288879 -1.4535556 -3.10402897 -0.71133997 0 0 Z " fill="#FFFFFF" transform="translate(327,20)"/>
<path d="M0 0 C2.8125 -0.5 2.8125 -0.5 6 0 C8.57285724 2.172635 10.48996919 3.97993838 12 7 C12.12005453 8.49649362 12.17531451 9.99874793 12.1875 11.5 C12.20167969 12.2940625 12.21585938 13.088125 12.23046875 13.90625 C12 16 12 16 10 18 C7.1875 18.5 7.1875 18.5 4 18 C1.40698841 15.75180378 -0.46365765 13.07268469 -2 10 C-2.35294118 3.52941176 -2.35294118 3.52941176 0 0 Z " fill="#FFFFFF" transform="translate(161,39)"/>
<path d="M0 0 C3.39456234 -0.30859658 5.37710559 -0.38720463 8.3125 1.4375 C10.67435164 5.02401546 11.24792783 8.71911278 11 13 C9 15 9 15 6.6875 15.5 C3.37082622 14.88294441 1.95647115 13.45234908 -0.05859375 10.79296875 C-1.61106586 7.83618576 -1.37411243 5.24230776 -1 2 C-0.67 1.34 -0.34 0.68 0 0 Z " fill="#FFFFFF" transform="translate(183,34)"/>
</svg>
