<svg width="10" height="60" viewBox="0 0 10 60" fill="none" xmlns="http://www.w3.org/2000/svg">
<path d="M8.96934 55.2033C8.96999 55.9754 8.74209 56.7302 8.31442 57.3724C7.88675 58.0145 7.27852 58.5152 6.56679 58.8109C5.85506 59.1066 5.07173 59.1842 4.316 59.0337C3.56026 58.8833 2.86613 58.5116 2.3213 57.9657C1.77646 57.4198 1.40549 56.7242 1.25533 55.967C1.10517 55.2098 1.18258 54.425 1.47774 53.7119C1.7729 52.9988 2.27255 52.3894 2.91347 51.9609C3.5544 51.5324 4.30778 51.304 5.07829 51.3047C5.58927 51.3047 6.09518 51.4055 6.56727 51.6015C7.03936 51.7974 7.46837 52.0846 7.82969 52.4466C8.19101 52.8086 8.47763 53.2384 8.67317 53.7114C8.86872 54.1844 8.96934 54.6914 8.96934 55.2033Z" fill="#1E2A50"/>
<path d="M9.91405 4.9667C9.91405 5.94915 9.62331 6.90953 9.07847 7.72637C8.53364 8.54321 7.7592 9.1798 6.85323 9.55562C5.94725 9.93144 4.95044 10.0296 3.98878 9.83769C3.02712 9.64578 2.14389 9.17244 1.45076 8.47751C0.757639 7.78258 0.285758 6.89729 0.094859 5.93363C-0.0960402 4.96997 0.00256554 3.97122 0.378254 3.06374C0.753942 2.15625 1.38986 1.38079 2.20547 0.835442C3.02108 0.29009 3.97976 -0.000646978 4.96031 1.08104e-06C5.61112 9.38991e-07 6.25559 0.12849 6.85682 0.378129C7.45805 0.627769 8.0043 0.993682 8.46434 1.45492C8.92439 1.91617 9.28921 2.46369 9.53797 3.06626C9.78673 3.66882 9.91448 4.31462 9.91405 4.9667Z" fill="#1E2A50"/>
<path d="M4.72109 4.72754H5.42736C5.99018 4.72754 6.52995 4.95155 6.92793 5.3503C7.3259 5.74905 7.54948 6.28986 7.54948 6.85378V53.6671C7.54948 54.231 7.3259 54.7718 6.92793 55.1705C6.52995 55.5693 5.99018 55.7933 5.42736 55.7933H4.72109C4.1574 55.7933 3.6168 55.5689 3.21821 55.1696C2.81963 54.7702 2.5957 54.2286 2.5957 53.6638V6.85705C2.5957 6.29227 2.81963 5.75062 3.21821 5.35126C3.6168 4.9519 4.1574 4.72754 4.72109 4.72754Z" fill="#C5DCFD"/>
<path d="M4.47207 11.7318C5.57727 11.034 6.67267 10.2379 7.34625 9.09122C7.38134 8.99365 7.38138 8.88686 7.34633 8.78928C7.31128 8.6917 7.24328 8.60943 7.15418 8.55664C7.06508 8.50386 6.9604 8.48389 6.85817 8.50014C6.75594 8.51638 6.6626 8.56784 6.59418 8.64567C5.99907 9.66128 5.01811 10.3525 4.04043 10.9685C3.55977 11.2731 4.00123 12.0398 4.48516 11.7351L4.47207 11.7318Z" fill="#6FABFF"/>
<path d="M4.47275 15.1588C5.41119 14.5036 6.35289 13.8484 6.99377 12.8655C7.32075 12.3872 6.53924 11.9416 6.2286 12.42C5.67601 13.2652 4.83567 13.8123 4.02802 14.3857C3.56698 14.7133 4.00844 15.4832 4.47275 15.149V15.1588Z" fill="#6FABFF"/>
<path d="M4.59347 19.0607C5.53383 18.5108 6.3509 17.7725 6.99354 16.8918C7.32052 16.4299 6.5619 15.9876 6.22838 16.4463C5.66719 17.1981 4.95839 17.8269 4.14555 18.294C4.05375 18.3581 3.98946 18.4545 3.96545 18.564C3.94144 18.6735 3.95946 18.788 4.01598 18.8847C4.07251 18.9815 4.16336 19.0533 4.2704 19.0859C4.37744 19.1185 4.49277 19.1095 4.59347 19.0607Z" fill="#6FABFF"/>
<path d="M4.47196 22.7336C5.50522 22.0783 6.48619 21.4034 7.11072 20.3256C7.13992 20.2752 7.15893 20.2196 7.16668 20.1619C7.17443 20.1042 7.17078 20.0456 7.15591 19.9893C7.14103 19.933 7.11523 19.8802 7.07999 19.8339C7.04475 19.7876 7.00074 19.7487 6.95051 19.7195C6.90027 19.6902 6.84476 19.6711 6.78717 19.6634C6.72958 19.6556 6.67099 19.6593 6.61482 19.6742C6.55865 19.6891 6.506 19.715 6.45979 19.7503C6.41359 19.7856 6.37476 19.8297 6.34556 19.88C5.7995 20.8236 4.9297 21.4002 4.02723 21.9669C3.54329 22.2683 3.98803 23.035 4.47196 22.7336Z" fill="#6FABFF"/>
<path d="M4.47326 26.3898C5.50151 25.8626 6.37151 25.0712 6.99427 24.0965C7.30163 23.6149 6.53647 23.1693 6.22911 23.6477C5.68553 24.4894 4.92527 25.1685 4.02852 25.6134C3.5217 25.8755 3.9697 26.6421 4.47326 26.38V26.3898Z" fill="#6FABFF"/>
<path d="M4.59236 30.0554C5.46798 29.5096 6.24243 28.8157 6.88123 28.0045C7.20821 27.5426 6.44967 27.1003 6.11614 27.5557C5.56721 28.2428 4.90339 28.8292 4.15425 29.2888C3.6834 29.6164 4.12478 30.3732 4.60218 30.0554H4.59236Z" fill="#6FABFF"/>
<path d="M4.917 33.6494C5.66905 32.9025 6.46357 32.2046 7.16005 31.402C7.5328 30.9728 6.9083 30.3438 6.53227 30.7763C5.83907 31.5757 5.0412 32.2767 4.29241 33.0237C4.2514 33.0648 4.21889 33.1136 4.19669 33.1672C4.1745 33.2209 4.16309 33.2785 4.16309 33.3366C4.16309 33.3947 4.1745 33.4522 4.19669 33.5059C4.21889 33.5596 4.2514 33.6083 4.29241 33.6494C4.33342 33.6905 4.38212 33.7231 4.4357 33.7454C4.48928 33.7676 4.54671 33.7791 4.6047 33.7791C4.6627 33.7791 4.72012 33.7676 4.7737 33.7454C4.82728 33.7231 4.87599 33.6905 4.917 33.6494Z" fill="#6FABFF"/>
<path d="M4.96066 37.0274C5.79722 36.5195 6.49933 35.8172 7.00757 34.9798C7.33455 34.5048 6.55957 34.0592 6.2424 34.531C5.81312 35.2395 5.21979 35.834 4.51266 36.2641C4.0091 36.5294 4.45711 37.2961 4.96066 37.0274Z" fill="#6FABFF"/>
<path d="M5.06509 40.5753C5.95775 40.1625 6.54956 39.3532 7.16102 38.6095C7.5207 38.1738 6.89946 37.5415 6.53324 37.9838C5.97083 38.6653 5.44109 39.4253 4.61709 39.8054C4.10046 40.0445 4.55173 40.8079 5.06509 40.572V40.5753Z" fill="#6FABFF"/>
<path d="M4.91779 43.9333C5.6968 43.2807 6.39394 42.536 6.99407 41.7153C7.32106 41.2534 6.55916 40.8111 6.22891 41.2698C5.66816 42.0249 5.01821 42.7091 4.2932 43.3076C3.85505 43.6745 4.4829 44.2904 4.91779 43.9333Z" fill="#6FABFF"/>
<path d="M4.60736 47.1214C5.78123 47.4228 6.59219 45.811 7.11209 45.0247C7.43907 44.5464 6.66083 44.1041 6.34693 44.5792C6.10496 44.9428 5.87607 45.3196 5.60467 45.6668C5.46407 45.8438 5.11417 46.3221 4.83951 46.2664C4.72634 46.2355 4.60562 46.251 4.50382 46.3094C4.40203 46.3677 4.32753 46.4642 4.29675 46.5776C4.26596 46.691 4.28144 46.812 4.33969 46.914C4.39795 47.016 4.49419 47.0906 4.60736 47.1214Z" fill="#6FABFF"/>
<path d="M5.18228 51.2134C5.97357 50.7908 6.43141 49.998 7.04286 49.3722C7.43851 48.9627 6.81392 48.3336 6.415 48.7432C5.86567 49.3067 5.43409 50.0536 4.73435 50.4468C4.2308 50.7187 4.67872 51.4821 5.18228 51.2134Z" fill="#6FABFF"/>
<path d="M5.28742 54.404C5.92097 54.1036 6.46453 53.6414 6.86349 53.064C6.92187 52.9622 6.9378 52.8414 6.9078 52.7279C6.87779 52.6144 6.80429 52.5174 6.70327 52.4579C6.60168 52.4008 6.48193 52.3853 6.36919 52.4146C6.25644 52.4439 6.15941 52.5158 6.09833 52.6152C5.77552 53.0615 5.34139 53.4151 4.83941 53.6406C4.78902 53.6697 4.74494 53.7086 4.70969 53.755C4.67445 53.8014 4.64878 53.8543 4.63417 53.9107C4.61956 53.9671 4.61629 54.0259 4.62459 54.0836C4.63289 54.1413 4.65255 54.1967 4.68247 54.2467C4.7441 54.3454 4.84122 54.4168 4.95373 54.4461C5.06624 54.4753 5.18564 54.4602 5.28742 54.404Z" fill="#6FABFF"/>
<path d="M4.4475 8.59007C5.1601 7.86282 5.81598 7.08189 6.40939 6.25415C6.73638 5.78894 5.97783 5.34665 5.64758 5.80532C5.09717 6.57011 4.48821 7.29088 3.82627 7.96107C3.42735 8.37059 4.05186 8.99632 4.45405 8.59007H4.4475Z" fill="#6FABFF"/>
</svg>
