<svg width="233" height="85" viewBox="0 0 233 85" fill="none" xmlns="http://www.w3.org/2000/svg">
<g filter="url(#filter0_d_403_2098)">
<path d="M215.35 14.012C217.242 13.6866 219.189 14.0901 220.787 15.139C223.556 16.9059 222.837 23.8802 222.888 27.1144C222.939 30.3487 221.865 37.4759 221.304 41.1628C220.743 44.8498 222.422 50.0071 222.939 53.1914C223.455 56.3757 220.483 62.3884 221.25 65.8256C222.017 69.2627 221.814 72.5969 220.993 73.8113C220.173 75.0257 214.004 73.8394 214.004 73.8394L203.504 62.3322L210.683 21.2953L215.35 14.012Z" fill="#3565A9"/>
<path d="M10.2832 24.6802L13.667 27.8333L18.2041 26.5595L10.2832 24.6802Z" fill="#3565A9"/>
<path d="M12.6973 46.302L17.8205 51.4437C17.8205 51.4437 27.579 49.2022 29.3184 48.8994L12.6973 46.302Z" fill="#3565A9"/>
<path d="M11.4219 61.5332L13.7221 63.8684L16.8017 62.9474L11.4219 61.5332Z" fill="#3565A9"/>
<path d="M219.896 31.9665L215.299 33.1309C215.299 33.1309 217.577 33.3963 219.671 33.7022C219.038 38.666 218.198 44.5726 218.791 47.2511C219.741 51.5593 219.608 57.0881 218.791 60.722C218.544 61.9484 218.424 63.1962 218.432 64.4464L210.103 66.5911C210.103 66.5911 214.922 66.8783 218.49 67.2154C218.6 69.3414 218.806 71.3301 218.806 72.5757C218.806 75.1356 216.202 73.9212 214.019 73.8244C211.836 73.7277 202.255 72.2947 198.833 71.3519C195.411 70.4091 185.564 73.6465 179.135 73.6465C172.707 73.6465 79.7031 74.0492 73.9462 73.6465C68.1893 73.2438 66.8649 71.9232 60.7056 71.5205C54.5463 71.1178 52.6073 73.0377 47.576 73.0377H30.8027C30.8027 73.0377 46.0774 48.0628 66.4467 42.2156C86.816 36.3683 96.2703 49.8766 115.173 44.1293C134.075 38.3819 130.805 29.3223 147.1 27.8331C163.395 26.344 171.95 32.363 180.095 31.5606C188.241 30.7583 213.252 14.1125 213.252 14.1125C214.553 13.8973 215.885 13.972 217.153 14.3311C220.85 15.3769 220.026 22.9849 220.302 26.6281C220.375 27.7332 220.181 29.6782 219.896 31.9665Z" fill="#7FACEB"/>
<path d="M213.253 14.1124C213.253 14.1124 188.246 30.7582 180.097 31.5605C171.948 32.3628 163.396 26.3407 147.101 27.833C130.807 29.3252 134.067 38.3849 115.174 44.1291C96.281 49.8734 86.8108 36.3775 66.4447 42.2341C46.0785 48.0908 30.8007 73.0563 30.8007 73.0563H12.8456C12.8456 73.0563 11.9838 68.2049 11.5782 65.2766C11.5529 65.0685 11.5275 64.8188 11.5022 64.5274L16.787 62.9477L11.4008 61.5335C11.4008 59.214 11.4864 56.3387 11.6955 53.7289C12.6207 53.2762 13.5965 52.7923 14.3189 52.452C16.0615 51.6403 29.2989 48.9118 29.2989 48.9118C29.2989 48.9118 24.8885 48.7089 22.9368 48.5091C19.4664 48.0346 16.0371 47.3041 12.6776 46.3238C13.099 42.0406 12.5256 36.4618 11.6511 33.9581C11.3343 33.0403 10.9953 31.2483 10.7006 29.063C11.0283 28.8341 11.3761 28.6346 11.7398 28.4667C12.8076 28.0265 18.1748 26.5936 18.1748 26.5936C18.1748 26.5936 12.5509 25.7757 10.2539 24.7205C9.93705 20.84 9.87683 16.7597 10.3046 14.3746C10.6689 12.3454 11.4008 11.565 17.6963 10.5004C23.9919 9.43584 56.667 13.3319 69.9393 11.8459C83.2115 10.3599 155.295 12.7825 164.185 12.7825C173.076 12.7825 189.215 14.7992 200.837 14.9397C204.977 15.029 209.118 14.7637 213.212 14.1467L213.253 14.1124Z" fill="#8DB9F9"/>
</g>
<defs>
<filter id="filter0_d_403_2098" x="0" y="0.313477" width="233" height="84.0449" filterUnits="userSpaceOnUse" color-interpolation-filters="sRGB">
<feFlood flood-opacity="0" result="BackgroundImageFix"/>
<feColorMatrix in="SourceAlpha" type="matrix" values="0 0 0 0 0 0 0 0 0 0 0 0 0 0 0 0 0 0 127 0" result="hardAlpha"/>
<feOffset/>
<feGaussianBlur stdDeviation="5"/>
<feComposite in2="hardAlpha" operator="out"/>
<feColorMatrix type="matrix" values="0 0 0 0 0 0 0 0 0 0 0 0 0 0 0 0 0 0 0.25 0"/>
<feBlend mode="normal" in2="BackgroundImageFix" result="effect1_dropShadow_403_2098"/>
<feBlend mode="normal" in="SourceGraphic" in2="effect1_dropShadow_403_2098" result="shape"/>
</filter>
</defs>
</svg>
