<?xml version="1.0" encoding="UTF-8"?>
<svg version="1.1" xmlns="http://www.w3.org/2000/svg" width="180" height="197">
<path d="M0 0 C1.32 2.31 2.64 4.62 4 7 C-1.30684633 10.42091173 -6.92510622 12.19173669 -12.90063477 14.12646484 C-14.80174748 14.74649318 -16.69489415 15.39077359 -18.58789062 16.03515625 C-26.93849114 18.7551927 -32.15552823 20.05086334 -40.4140625 16.5546875 C-42.56091686 15.43163717 -44.70674604 14.30662496 -46.8515625 13.1796875 C-50.4802307 11.82006244 -52.30489558 11.98190829 -56 13 C-61.66190561 15.65762917 -63.48049793 19.27285202 -65.921875 24.7578125 C-67 27 -67 27 -69 29 C-72.32220821 29.57730175 -75.63287151 29.74099012 -79 30 C-80.32 32.97 -81.64 35.94 -83 39 C-83.99 38.67 -84.98 38.34 -86 38 C-87.36215294 32.68760353 -86.75429011 28.12950324 -85 23 C-83 21 -83 21 -80.8359375 20.8046875 C-80.02382812 20.82789062 -79.21171875 20.85109375 -78.375 20.875 C-77.14910156 20.90207031 -77.14910156 20.90207031 -75.8984375 20.9296875 C-74.95871094 20.96449219 -74.95871094 20.96449219 -74 21 C-73.47212891 19.91332031 -73.47212891 19.91332031 -72.93359375 18.8046875 C-68.49050969 10.10413125 -64.20371877 4.84498036 -54.9921875 1.34765625 C-49.05977521 0.31239215 -43.86844921 3.93947576 -38.87890625 6.73632812 C-34.29233542 9.06744093 -31.34902338 9.18307395 -26.4140625 7.78930664 C-25.61742187 7.52883545 -24.82078125 7.26836426 -24 7 C-23.13117188 6.72470459 -22.26234375 6.44940918 -21.3671875 6.16577148 C-18.60859298 5.26553372 -15.86599952 4.32738119 -13.125 3.375 C-11.27487958 2.73280944 -9.42337159 2.09459851 -7.5703125 1.4609375 C-6.36012451 1.04013916 -6.36012451 1.04013916 -5.12548828 0.61083984 C-3 0 -3 0 0 0 Z " fill="#FEFEFE" transform="translate(123,20)"/>
<path d="M0 0 C4 5.25714286 4 5.25714286 4 8 C3.08476562 8.32613281 2.16953125 8.65226562 1.2265625 8.98828125 C-0.55621094 9.64376953 -0.55621094 9.64376953 -2.375 10.3125 C-3.55835938 10.74175781 -4.74171875 11.17101563 -5.9609375 11.61328125 C-9.23787198 12.78621555 -9.23787198 12.78621555 -11 16 C-11.70523006 19.53905084 -12.27323319 23.08678895 -12.828125 26.65234375 C-14.37036511 31.05800966 -15.87101463 31.88492954 -20 34 C-24.10576508 35.72673621 -28.28320838 37.24809413 -32.48046875 38.73632812 C-40.45942514 41.74508482 -46.56750028 46.30961746 -51.375 53.4375 C-52.7734375 55.49609375 -52.7734375 55.49609375 -54 57 C-54.66 57 -55.32 57 -56 57 C-57.4380472 51.66724163 -58.33307347 46.77571462 -55.859375 41.625 C-51.2274435 34.9694091 -45.32334158 32.08257444 -38 29 C-36.89914063 28.51273438 -35.79828125 28.02546875 -34.6640625 27.5234375 C-26.53456704 24 -26.53456704 24 -23 24 C-22.87882812 23.20335938 -22.75765625 22.40671875 -22.6328125 21.5859375 C-22.46523437 20.52632812 -22.29765625 19.46671875 -22.125 18.375 C-21.96257812 17.33085938 -21.80015625 16.28671875 -21.6328125 15.2109375 C-21.42398438 14.15132812 -21.21515625 13.09171875 -21 12 C-20.71576172 10.4221875 -20.71576172 10.4221875 -20.42578125 8.8125 C-18.60198403 5.2148726 -16.97227936 4.66100053 -13.28320312 3.33984375 C-12.55037109 3.10394531 -11.81753906 2.86804687 -11.0625 2.625 C-10.33353516 2.36589844 -9.60457031 2.10679688 -8.85351562 1.83984375 C-5.80147869 0.78240107 -3.2489443 0 0 0 Z " fill="#FEFEFE" transform="translate(131,32)"/>
<path d="M0 0 C-2.64370546 4.65795724 -2.64370546 4.65795724 -4.5625 6.5 C-6.18190205 8.00250217 -6.18190205 8.00250217 -7 10.5 C-8.04865042 13.12162606 -9.0144001 14.06895788 -11 16 C-11.86486111 17.12769637 -12.72807717 18.25665583 -13.58984375 19.38671875 C-17.2307302 23.66158481 -21.48275349 25.60852646 -26.5625 27.8125 C-27.39974609 28.19341797 -28.23699219 28.57433594 -29.09960938 28.96679688 C-39.85155943 33.82773391 -39.85155943 33.82773391 -43.5 34.375 C-46.1435245 34.84592828 -46.1435245 34.84592828 -48.26953125 36.8671875 C-51.15395099 39.12025356 -53.80108981 40.38702248 -57.1875 41.75 C-58.23292969 42.17796875 -59.27835937 42.6059375 -60.35546875 43.046875 C-63 44 -63 44 -65 44 C-63.62176899 39.48942577 -61.61121832 37.88897465 -58 35 C-57.67 34.175 -57.34 33.35 -57 32.5 C-55.70875755 29.27189387 -53.68484254 28.13410561 -51 26 C-50.76216797 25.0409375 -50.76216797 25.0409375 -50.51953125 24.0625 C-49.52163592 20.10093055 -46.3028256 18.14193145 -43 16 C-31.731122 10.44862398 -31.731122 10.44862398 -27.27734375 11.8671875 C-26.52582031 12.24101563 -25.77429688 12.61484375 -25 13 C-22.29113059 13.16798262 -22.29113059 13.16798262 -20 13 C-21.98 12.34 -23.96 11.68 -26 11 C-26 10.34 -26 9.68 -26 9 C-22.23605994 7.29680933 -18.46286675 5.61519123 -14.6875 3.9375 C-13.61564453 3.45216797 -12.54378906 2.96683594 -11.43945312 2.46679688 C-10.41142578 2.01240234 -9.38339844 1.55800781 -8.32421875 1.08984375 C-7.37635498 0.66566162 -6.42849121 0.24147949 -5.4519043 -0.19555664 C-3 -1 -3 -1 0 0 Z M-32 17 C-32.66 17.66 -33.32 18.32 -34 19 C-32.6078125 19.4640625 -32.6078125 19.4640625 -31.1875 19.9375 C-29.125 20.625 -27.0625 21.3125 -25 22 C-24.34 21.34 -23.68 20.68 -23 20 C-27.2637281 17.64089647 -27.2637281 17.64089647 -32 17 Z M-43.1875 22 C-43.90292969 22.37125 -44.61835937 22.7425 -45.35546875 23.125 C-46.16951172 23.558125 -46.16951172 23.558125 -47 24 C-46.01 24.495 -46.01 24.495 -45 25 C-44.67 25.66 -44.34 26.32 -44 27 C-43.05125 26.21625 -42.1025 25.4325 -41.125 24.625 C-40.59132813 24.18414062 -40.05765625 23.74328125 -39.5078125 23.2890625 C-38.28948839 22.24749008 -37.13339903 21.13339903 -36 20 C-39.19610552 20 -40.41717626 20.54671542 -43.1875 22 Z M-39 27 C-40.485 28.98 -40.485 28.98 -42 31 C-40.68 30.34 -39.36 29.68 -38 29 C-38.33 28.34 -38.66 27.68 -39 27 Z " fill="#FEFEFE" transform="translate(135,59)"/>
<path d="M0 0 C6.11482132 3.37543698 6.11482132 3.37543698 12.859375 3.17578125 C13.58640625 2.93214844 14.3134375 2.68851563 15.0625 2.4375 C17.47776332 1.72439624 19.89456382 1.01648759 22.3125 0.3125 C23.49328125 -0.06132812 24.6740625 -0.43515625 25.890625 -0.8203125 C30.63019635 -1.9293255 30.63019635 -1.9293255 33.0625 -0.5625 C34.8125 2.5 34.8125 2.5 36.0625 5.4375 C32.19253209 6.78575845 28.31580047 8.11342049 24.4375 9.4375 C23.34308594 9.8190625 22.24867187 10.200625 21.12109375 10.59375 C20.05761719 10.9546875 18.99414062 11.315625 17.8984375 11.6875 C16.92438965 12.02265625 15.9503418 12.3578125 14.94677734 12.703125 C8.50418665 14.34349344 4.97862833 13.15032984 -0.6875 9.875 C-5.82839571 7.11245462 -9.77209998 5.5509822 -15.62109375 6.7265625 C-23.25799881 9.05577993 -23.25799881 9.05577993 -29.25 14.125 C-31.00106325 17.56227231 -32.61053471 21.02635148 -34.10546875 24.58203125 C-34.9375 26.4375 -34.9375 26.4375 -35.9375 27.4375 C-37.93708364 27.47830783 -39.93795254 27.48004356 -41.9375 27.4375 C-40.13954403 18.14806081 -37.87587337 9.21067401 -30.9375 2.4375 C-21.403991 -3.69118436 -9.89873482 -5.76736487 0 0 Z " fill="#FEFEFE" transform="translate(82.9375,10.5625)"/>
<path d="M0 0 C2.34375 1.0234375 2.34375 1.0234375 4 2 C4 1.34 4 0.68 4 0 C7.45826342 -0.05789006 10.91640293 -0.09355821 14.375 -0.125 C15.35984375 -0.14175781 16.3446875 -0.15851563 17.359375 -0.17578125 C18.77089844 -0.18544922 18.77089844 -0.18544922 20.2109375 -0.1953125 C21.08024902 -0.20578613 21.94956055 -0.21625977 22.84521484 -0.22705078 C25 0 25 0 27 2 C26.625 4.625 26.625 4.625 26 7 C24.02 7 22.04 7 20 7 C20.01160156 8.27617187 20.02320313 9.55234375 20.03515625 10.8671875 C20.04453417 12.53645687 20.05363437 14.20572783 20.0625 15.875 C20.07087891 16.71675781 20.07925781 17.55851562 20.08789062 18.42578125 C20.09111328 19.23144531 20.09433594 20.03710938 20.09765625 20.8671875 C20.10289307 21.61081543 20.10812988 22.35444336 20.11352539 23.12060547 C20 25 20 25 19 27 C16.36 27 13.72 27 11 27 C11 20.4 11 13.8 11 7 C9.02 7 7.04 7 5 7 C4.34 7 3.68 7 3 7 C2.67 7.33 2.34 7.66 2 8 C0.47480724 7.91062197 -1.04681929 7.75462854 -2.5625 7.5625 C-3.38878906 7.46066406 -4.21507813 7.35882813 -5.06640625 7.25390625 C-5.70449219 7.17011719 -6.34257813 7.08632812 -7 7 C-7 7.66 -7 8.32 -7 9 C-6.37351562 9.17015625 -5.74703125 9.3403125 -5.1015625 9.515625 C-3.87566406 9.87914062 -3.87566406 9.87914062 -2.625 10.25 C-1.81289062 10.48203125 -1.00078125 10.7140625 -0.1640625 10.953125 C2 12 2 12 3.296875 13.890625 C4.40253121 17.20759362 3.83733247 19.6506701 3 23 C1.625 25.4375 1.625 25.4375 -1 27 C-6.22753115 27.62762152 -11.45513346 27.99195087 -16 25 C-16.9375 22.5625 -16.9375 22.5625 -17 20 C-15.5625 18.1875 -15.5625 18.1875 -14 17 C-13.2575 17.33 -12.515 17.66 -11.75 18 C-8.86116688 19.22782871 -8.86116688 19.22782871 -5 19 C-5.63808594 18.65066406 -6.27617188 18.30132812 -6.93359375 17.94140625 C-7.75988281 17.48636719 -8.58617188 17.03132813 -9.4375 16.5625 C-10.26121094 16.11003906 -11.08492188 15.65757812 -11.93359375 15.19140625 C-14 14 -14 14 -15 13 C-15.51481626 8.83927187 -15.61787805 5.20633333 -13.6875 1.4375 C-9.36147513 -0.87642028 -4.80094951 -0.60717891 0 0 Z " fill="#FEFEFE" transform="translate(86,140)"/>
<path d="M0 0 C-0.33 3.3 -0.66 6.6 -1 10 C-1.73863281 10.30292969 -2.47726563 10.60585938 -3.23828125 10.91796875 C-20.87492885 17.23986649 -20.87492885 17.23986649 -33.125 30.4453125 C-34.96585718 35.81995802 -33.50216561 41.22593996 -32.515625 46.67578125 C-31.83593104 51.15496445 -31.56696344 54.16535226 -34 58.125 C-36.3604939 60.96424196 -36.87359974 60.98549505 -40.8125 61.4375 C-41.864375 61.293125 -42.91625 61.14875 -44 61 C-44.6875 59.3125 -44.6875 59.3125 -45 57 C-44.505 56.319375 -44.01 55.63875 -43.5 54.9375 C-40.93372864 49.91188526 -42.22522183 43.98142484 -43.6171875 38.625 C-45.61125879 29.54430611 -39.68400216 22.35927045 -35 15 C-34.34 15 -33.68 15 -33 15 C-33 14.34 -33 13.68 -33 13 C-27.45317667 8.33441959 -20.42169783 6.04872572 -13.6875 3.6875 C-12.69943359 3.32849609 -11.71136719 2.96949219 -10.69335938 2.59960938 C-3.41940476 0 -3.41940476 0 0 0 Z " fill="#FEFEFE" transform="translate(105,41)"/>
<path d="M0 0 C6 0 6 0 8.625 2.25 C9.40875 3.1575 10.1925 4.065 11 5 C12.1446875 6.1446875 12.1446875 6.1446875 13.3125 7.3125 C13.869375 7.869375 14.42625 8.42625 15 9 C15.12375 7.88625 15.2475 6.7725 15.375 5.625 C16 2 16 2 18 0 C21.125 -0.125 21.125 -0.125 24 0 C24.02886537 4.31248609 24.04675255 8.62494762 24.0625 12.9375 C24.07087891 14.16919922 24.07925781 15.40089844 24.08789062 16.66992188 C24.09272461 18.4246582 24.09272461 18.4246582 24.09765625 20.21484375 C24.10551147 21.84087524 24.10551147 21.84087524 24.11352539 23.49975586 C24 26 24 26 23 27 C20.375 27.5625 20.375 27.5625 17 27 C14.34644928 24.57465465 12.16193936 21.86552909 10 19 C9.690625 20.134375 9.38125 21.26875 9.0625 22.4375 C8 26 8 26 7 27 C4.69 27 2.38 27 0 27 C0 18.09 0 9.18 0 0 Z " fill="#FEFEFE" transform="translate(44,140)"/>
<path d="M0 0 C6 0 6 0 9 2 C9.40843923 4.71203652 9.13336867 7.2437142 9 10 C10.32 10 11.64 10 13 10 C12.95875 8.72125 12.9175 7.4425 12.875 6.125 C12.8046875 3.9453125 12.8046875 3.9453125 13 2 C15 0 15 0 18.625 -0.125 C20.295625 -0.063125 20.295625 -0.063125 22 0 C22.02892385 4.12498538 22.04677267 8.24994485 22.0625 12.375 C22.07087891 13.550625 22.07925781 14.72625 22.08789062 15.9375 C22.09272461 17.61972656 22.09272461 17.61972656 22.09765625 19.3359375 C22.10551147 20.89127197 22.10551147 20.89127197 22.11352539 22.47802734 C22 25 22 25 21 27 C18.66705225 27.04241723 16.33297433 27.04092937 14 27 C13 26 13 26 12.90234375 23.93359375 C12.91394531 23.10988281 12.92554688 22.28617188 12.9375 21.4375 C12.94652344 20.61121094 12.95554688 19.78492188 12.96484375 18.93359375 C12.97644531 18.29550781 12.98804688 17.65742188 13 17 C11.68 17 10.36 17 9 17 C9.020625 18.27875 9.04125 19.5575 9.0625 20.875 C9.125 24.75 9.125 24.75 8 27 C5.36 27 2.72 27 0 27 C0 18.09 0 9.18 0 0 Z " fill="#FEFEFE" transform="translate(158,140)"/>
<path d="M0 0 C1.1240625 -0.01675781 2.248125 -0.03351563 3.40625 -0.05078125 C6.73518797 0.34011677 8.07914476 1.06371535 10.5 3.3125 C10.17 4.9625 9.84 6.6125 9.5 8.3125 C5.48296552 9.37583266 2.55694996 9.01805651 -1.5 8.3125 C-2.49 8.6425 -3.48 8.9725 -4.5 9.3125 C-5.70293904 13.85590014 -5.70293904 13.85590014 -4.3671875 18.0703125 C-1.71136738 19.83715518 -0.04566458 19.34267323 3.0625 18.875 C6.00390625 18.44140625 6.00390625 18.44140625 8.5 18.3125 C9.16 18.9725 9.82 19.6325 10.5 20.3125 C10.3125 22.8125 10.3125 22.8125 9.5 25.3125 C4.61921805 28.56635463 -0.79441025 27.88726457 -6.5 27.3125 C-9.75408422 26.14775399 -11.76919438 24.4889188 -13.62109375 21.5078125 C-15.3202354 17.26373425 -15.03178753 12.79378276 -14.5 8.3125 C-11.08338943 1.35725706 -7.48838999 0.02576281 0 0 Z " fill="#FEFEFE" transform="translate(146.5,139.6875)"/>
<path d="M0 0 C5.26400625 0.19678528 9.05129042 0.70015711 13.6328125 3.59375 C13.6328125 4.25375 13.6328125 4.91375 13.6328125 5.59375 C12.176558 6.26494549 10.71773383 6.93056807 9.2578125 7.59375 C8.44570312 7.965 7.63359375 8.33625 6.796875 8.71875 C4.6328125 9.59375 4.6328125 9.59375 2.6328125 9.59375 C2.34970215 10.1808374 2.0665918 10.7679248 1.77490234 11.37280273 C0.73679247 13.39154696 -0.39427895 15.23467647 -1.640625 17.12890625 C-5.45118576 23.15786757 -8.38329423 29.64170324 -11.4375 36.07617188 C-11.9015625 37.02943359 -12.365625 37.98269531 -12.84375 38.96484375 C-13.25705566 39.83036865 -13.67036133 40.69589355 -14.09619141 41.58764648 C-15.3671875 43.59375 -15.3671875 43.59375 -18.3671875 44.59375 C-21.43612288 40.29724047 -21.43612288 40.29724047 -21.14575195 37.33398438 C-20.19922572 34.00259194 -18.84785777 31.06011108 -17.34765625 27.9375 C-17.04781326 27.3127478 -16.74797028 26.68799561 -16.43904114 26.04431152 C-15.80554603 24.72852692 -15.16915106 23.41413498 -14.5300293 22.10107422 C-13.55975406 20.10417734 -12.60258947 18.10136917 -11.64648438 16.09765625 C-11.02682408 14.81472596 -10.40640597 13.53216137 -9.78515625 12.25 C-9.22594482 11.09306641 -8.6667334 9.93613281 -8.09057617 8.74414062 C-3.83313342 0.96144601 -3.83313342 0.96144601 0 0 Z " fill="#FEFEFE" transform="translate(68.3671875,37.40625)"/>
<path d="M0 0 C4.54913692 -0.36884894 4.54913692 -0.36884894 6.53808594 1.25830078 C9.17711286 4.40239197 10.59167796 8.149698 12.25 11.875 C12.62640625 12.67808594 13.0028125 13.48117188 13.390625 14.30859375 C16.0509574 20.24543848 16.0509574 20.24543848 15.796875 24.0078125 C15 26 15 26 14 27 C12.33382885 27.04063832 10.66611905 27.042721 9 27 C8.34 25.68 7.68 24.36 7 23 C4.36 23 1.72 23 -1 23 C-1.33 24.32 -1.66 25.64 -2 27 C-3.99954746 27.04254356 -6.00041636 27.04080783 -8 27 C-9 26 -9 26 -9.02172852 24.25219727 C-8.46272522 18.1310779 -6.70437203 13.39000603 -3.9375 7.9375 C-3.37192383 6.78217773 -3.37192383 6.78217773 -2.79492188 5.60351562 C-1.87545066 3.72965657 -0.93945112 1.86392239 0 0 Z M3 14 C2.67 14.66 2.34 15.32 2 16 C2.66 16 3.32 16 4 16 C3.67 15.34 3.34 14.68 3 14 Z " fill="#FEFEFE" transform="translate(9,140)"/>
<path d="M0 0 C5.61 0 11.22 0 17 0 C17 1.98 17 3.96 17 6 C16 7 16 7 14.15234375 7.09765625 C12.1015625 7.06510417 10.05078125 7.03255208 8 7 C8 7.99 8 8.98 8 10 C10.64 10 13.28 10 16 10 C16.04254356 11.99954746 16.04080783 14.00041636 16 16 C15 17 15 17 11.4375 17.0625 C10.303125 17.041875 9.16875 17.02125 8 17 C8 17.99 8 18.98 8 20 C10.97 20 13.94 20 17 20 C17.04254356 21.99954746 17.04080783 24.00041636 17 26 C16 27 16 27 12.40234375 27.09765625 C10.91402745 27.09191272 9.42573704 27.07889891 7.9375 27.0625 C5.318125 27.041875 2.69875 27.02125 0 27 C0 18.09 0 9.18 0 0 Z " fill="#FEFEFE" transform="translate(114,140)"/>
<path d="M0 0 C5.61 0 11.22 0 17 0 C17 1.98 17 3.96 17 6 C16 7 16 7 14.15234375 7.09765625 C12.1015625 7.06510417 10.05078125 7.03255208 8 7 C8 7.99 8 8.98 8 10 C10.64 10 13.28 10 16 10 C16.04254356 11.99954746 16.04080783 14.00041636 16 16 C15 17 15 17 11.4375 17.0625 C10.303125 17.041875 9.16875 17.02125 8 17 C8 17.99 8 18.98 8 20 C10.97 20 13.94 20 17 20 C17.04254356 21.99954746 17.04080783 24.00041636 17 26 C16 27 16 27 12.40234375 27.09765625 C10.91402745 27.09191272 9.42573704 27.07889891 7.9375 27.0625 C5.318125 27.041875 2.69875 27.02125 0 27 C0 18.09 0 9.18 0 0 Z " fill="#FEFEFE" transform="translate(26,140)"/>
<path d="M0 0 C0.56847656 0.52851563 1.13695313 1.05703125 1.72265625 1.6015625 C1.72265625 2.2615625 1.72265625 2.9215625 1.72265625 3.6015625 C-0.79450657 4.44766765 -3.31513648 5.27853017 -5.83984375 6.1015625 C-6.54431641 6.34003906 -7.24878906 6.57851562 -7.97460938 6.82421875 C-13.16082702 8.49719218 -18.20624774 9.814835 -23.4921875 7.7265625 C-25.08723958 6.68489583 -26.68229167 5.64322917 -28.27734375 4.6015625 C-23.23511603 -1.67047686 -6.94363412 -4.26384394 0 0 Z " fill="#FEFEFE" transform="translate(109.27734375,1.3984375)"/>
<path d="M0 0 C0.36753168 6.49305975 0.36753168 6.49305975 -1.1328125 8.5625 C-3.61129918 10.47062363 -6.16590592 11.51548806 -9.0625 12.6875 C-10.65771484 13.34298828 -10.65771484 13.34298828 -12.28515625 14.01171875 C-15 15 -15 15 -17 15 C-16.88541307 13.56163249 -16.75790884 12.12429034 -16.625 10.6875 C-16.55539063 9.88699219 -16.48578125 9.08648437 -16.4140625 8.26171875 C-16 6 -16 6 -14 3 C-11.50390625 1.796875 -11.50390625 1.796875 -8.5625 0.75 C-7.59441406 0.39421875 -6.62632812 0.0384375 -5.62890625 -0.328125 C-3 -1 -3 -1 0 0 Z " fill="#FEFEFE" transform="translate(140,45)"/>
<path d="M0 0 C3.625 -0.1875 3.625 -0.1875 7 0 C6.33392561 4.40958108 4.73375271 8.26572186 2.9375 12.3125 C2.65583984 12.95767578 2.37417969 13.60285156 2.08398438 14.26757812 C1.3937257 15.84698358 0.69746802 17.42376493 0 19 C-0.66 19 -1.32 19 -2 19 C-4.06019363 16.10046822 -5.16907885 14.06917507 -4.6015625 10.48046875 C-3.44264006 6.56193395 -2.27850585 3.41775878 0 0 Z " fill="#FEFEFE" transform="translate(46,52)"/>
<path d="M0 0 C7.40256709 -0.48541424 7.40256709 -0.48541424 10 1.625 C11.28292178 4.67193922 11.40995912 6.72032701 11 10 C10 12.375 10 12.375 8 14 C5.24528656 14.33686831 2.7936844 14.18319242 0 14 C0 9.38 0 4.76 0 0 Z M3 3 C3 5.64 3 8.28 3 11 C4.65 10.67 6.3 10.34 8 10 C8 8.02 8 6.04 8 4 C6.35 3.67 4.7 3.34 3 3 Z " fill="#FEFEFE" transform="translate(125,179)"/>
<path d="M0 0 C0.78375 0.04125 1.5675 0.0825 2.375 0.125 C2.705 1.775 3.035 3.425 3.375 5.125 C0.9 4.135 0.9 4.135 -1.625 3.125 C-0.635 4.775 0.355 6.425 1.375 8.125 C1.705 7.465 2.035 6.805 2.375 6.125 C3.035 6.125 3.695 6.125 4.375 6.125 C4.705 8.765 5.035 11.405 5.375 14.125 C3.91707116 14.17899736 2.45857288 14.21779177 1 14.25 C0.18789062 14.27320313 -0.62421875 14.29640625 -1.4609375 14.3203125 C-3.625 14.125 -3.625 14.125 -5.625 12.125 C-5.671875 9.8125 -5.671875 9.8125 -5.375 7.125 C-5.28734375 6.238125 -5.1996875 5.35125 -5.109375 4.4375 C-4.39577378 1.03062965 -3.48613381 0.16600637 0 0 Z M-2.625 9.125 C-2.625 9.785 -2.625 10.445 -2.625 11.125 C-1.965 10.795 -1.305 10.465 -0.625 10.125 C-1.285 9.795 -1.945 9.465 -2.625 9.125 Z " fill="#FEFEFE" transform="translate(115.625,178.875)"/>
<path d="M0 0 C2.14576637 -0.02685938 4.29162645 -0.04633088 6.4375 -0.0625 C7.63246094 -0.07410156 8.82742187 -0.08570313 10.05859375 -0.09765625 C13 0 13 0 14 1 C14.07179964 2.51928038 14.08392007 4.04167482 14.0625 5.5625 C14.05347656 6.38878906 14.04445313 7.21507812 14.03515625 8.06640625 C14.02355469 8.70449219 14.01195313 9.34257812 14 10 C13.01 10 12.02 10 11 10 C11 7.36 11 4.72 11 2 C10.34 2 9.68 2 9 2 C9 4.64 9 7.28 9 10 C8.01 10 7.02 10 6 10 C5.67 7.69 5.34 5.38 5 3 C4.67 3 4.34 3 4 3 C3.67 5.31 3.34 7.62 3 10 C2.01 10 1.02 10 0 10 C0 6.7 0 3.4 0 0 Z " fill="#FEFEFE" transform="translate(65,183)"/>
<path d="M0 0 C7 0 7 0 8.9375 1 C10.65886567 4.24021772 10.52960415 7.41957756 10 11 C8.9375 13 8.9375 13 7 14 C4.69 14 2.38 14 0 14 C0 9.38 0 4.76 0 0 Z M2 3 C2 5.64 2 8.28 2 11 C3.65 10.67 5.3 10.34 7 10 C7 8.02 7 6.04 7 4 C5.35 3.67 3.7 3.34 2 3 Z " fill="#FEFEFE" transform="translate(0,179)"/>
<path d="M0 0 C1.134375 0.020625 2.26875 0.04125 3.4375 0.0625 C3.49139087 2.02053507 3.53024217 3.97898909 3.5625 5.9375 C3.58570313 7.02804688 3.60890625 8.11859375 3.6328125 9.2421875 C3.4375 12.0625 3.4375 12.0625 1.4375 14.0625 C-1.1875 13.6875 -1.1875 13.6875 -3.5625 13.0625 C-4.54498196 9.00976192 -4.72267882 5.22714926 -4.5625 1.0625 C-3.5625 0.0625 -3.5625 0.0625 0 0 Z M-1.5625 2.0625 C-1.5625 3.7125 -1.5625 5.3625 -1.5625 7.0625 C-0.5725 6.7325 0.4175 6.4025 1.4375 6.0625 C1.1075 4.7425 0.7775 3.4225 0.4375 2.0625 C-0.2225 2.0625 -0.8825 2.0625 -1.5625 2.0625 Z " fill="#FEFEFE" transform="translate(165.5625,182.9375)"/>
<path d="M0 0 C2.31 0 4.62 0 7 0 C9 3 9 3 8.625 6.1875 C8.41875 7.115625 8.2125 8.04375 8 9 C6.35 9.33 4.7 9.66 3 10 C3 11.32 3 12.64 3 14 C2.01 14 1.02 14 0 14 C0 9.38 0 4.76 0 0 Z M4 2 C3.67 3.65 3.34 5.3 3 7 C3.99 7 4.98 7 6 7 C5.67 5.35 5.34 3.7 5 2 C4.67 2 4.34 2 4 2 Z " fill="#FEFEFE" transform="translate(55,183)"/>
<path d="M0 0 C2.31 0 4.62 0 7 0 C7.02689216 1.47906892 7.04634621 2.95827483 7.0625 4.4375 C7.07410156 5.26121094 7.08570313 6.08492187 7.09765625 6.93359375 C7 9 7 9 6 10 C4.00041636 10.04080783 1.99954746 10.04254356 0 10 C-0.95024979 6.30458414 -0.95024979 3.69541586 0 0 Z M1 6 C5 7 5 7 5 7 Z " fill="#FEFEFE" transform="translate(148,183)"/>
<path d="M0 0 C2.875 -0.1875 2.875 -0.1875 6 0 C8 3 8 3 7.6875 6.125 C7 9 7 9 6 10 C3.5625 10.1875 3.5625 10.1875 1 10 C-1 8 -1 8 -1.1875 5 C-1 2 -1 2 0 0 Z M3 2 C2.67 2.66 2.34 3.32 2 4 C2.99 3.67 3.98 3.34 5 3 C4.34 2.67 3.68 2.34 3 2 Z " fill="#FCFCFC" transform="translate(138,183)"/>
<path d="M0 0 C2.5 0.25 2.5 0.25 4.5 2.25 C3.92307692 8.82692308 3.92307692 8.82692308 2.5 10.25 C0.0625 10.4375 0.0625 10.4375 -2.5 10.25 C-4.5 8.25 -4.5 8.25 -4.75 5.25 C-4.43608753 1.48305032 -3.83691092 0.38369109 0 0 Z M-0.5 2.25 C-0.83 2.91 -1.16 3.57 -1.5 4.25 C-0.51 3.92 0.48 3.59 1.5 3.25 C0.84 2.92 0.18 2.59 -0.5 2.25 Z " fill="#FEFEFE" transform="translate(15.5,182.75)"/>
<path d="M0 0 C2.64 0 5.28 0 8 0 C9.60725635 3.21451269 9.05748185 6.43612536 9 10 C8.01 10 7.02 10 6 10 C5.67 7.69 5.34 5.38 5 3 C4.67 3 4.34 3 4 3 C3.67 5.31 3.34 7.62 3 10 C2.01 10 1.02 10 0 10 C0 6.7 0 3.4 0 0 Z " fill="#FEFEFE" transform="translate(171,183)"/>
<path d="M0 0 C3 0.125 3 0.125 4 1.125 C4.1328125 2.9375 4.1328125 2.9375 4.125 5.125 C4.12757812 5.846875 4.13015625 6.56875 4.1328125 7.3125 C4 9.125 4 9.125 3 10.125 C1.00041636 10.16580783 -1.00045254 10.16754356 -3 10.125 C-4.49106457 7.14287087 -4.11941467 4.40890342 -4 1.125 C-3 0.125 -3 0.125 0 0 Z M-1 2.125 C-1 2.785 -1 3.445 -1 4.125 C-0.34 4.125 0.32 4.125 1 4.125 C1 3.465 1 2.805 1 2.125 C0.34 2.125 -0.32 2.125 -1 2.125 Z " fill="#FBFBFB" transform="translate(85,182.875)"/>
<path d="M0 0 C2.875 -0.1875 2.875 -0.1875 6 0 C8 3 8 3 7.6875 6.125 C7 9 7 9 6 10 C3.5625 10.1875 3.5625 10.1875 1 10 C-1 8 -1 8 -1.1875 5 C-1 2 -1 2 0 0 Z M3 2 C2.67 3.65 2.34 5.3 2 7 C2.99 7 3.98 7 5 7 C4.67 5.35 4.34 3.7 4 2 C3.67 2 3.34 2 3 2 Z " fill="#FEFEFE" transform="translate(46,183)"/>
<path d="M0 0 C2.33294775 -0.04241723 4.66702567 -0.04092937 7 0 C8 1 8 1 8.09765625 3.06640625 C8.08605469 3.89011719 8.07445313 4.71382812 8.0625 5.5625 C8.05347656 6.38878906 8.04445313 7.21507812 8.03515625 8.06640625 C8.02355469 8.70449219 8.01195313 9.34257812 8 10 C7.01 10 6.02 10 5 10 C5 7.36 5 4.72 5 2 C4.34 2 3.68 2 3 2 C3 4.64 3 7.28 3 10 C2.01 10 1.02 10 0 10 C0 6.7 0 3.4 0 0 Z " fill="#FEFEFE" transform="translate(91,183)"/>
<path d="M0 0 C1.99954746 -0.04254356 4.00041636 -0.04080783 6 0 C7 1 7 1 7.1328125 2.8125 C7.13023438 3.534375 7.12765625 4.25625 7.125 5 C7.12757812 5.721875 7.13015625 6.44375 7.1328125 7.1875 C7 9 7 9 6 10 C3.5625 10.1875 3.5625 10.1875 1 10 C-1 8 -1 8 -1.1875 5 C-1 2 -1 2 0 0 Z M2 2 C2 2.66 2 3.32 2 4 C2.99 3.67 3.98 3.34 5 3 C4.01 2.67 3.02 2.34 2 2 Z " fill="#FEFEFE" transform="translate(31,183)"/>
<path d="M0 0 C0.66 0 1.32 0 2 0 C3.34346122 4.03038366 3.26676927 7.79838392 3 12 C1.5 14 1.5 14 0 15 C-3.17098446 10.77202073 -3.17098446 10.77202073 -4 8 C-3.16532628 5.00039132 -1.73543991 2.56978602 0 0 Z " fill="#FEFEFE" transform="translate(57,79)"/>
<path d="M0 0 C1.32 0.33 2.64 0.66 4 1 C4.33 1.66 4.66 2.32 5 3 C5.33 2.01 5.66 1.02 6 0 C6.99 0 7.98 0 9 0 C8.49287967 3.71888239 7.88391785 6.73454239 6 10 C5.01 10 4.02 10 3 10 C2.01 6.7 1.02 3.4 0 0 Z " fill="#FEFEFE" transform="translate(20,183)"/>
<path d="M0 0 C0.99 0 1.98 0 3 0 C3 0.99 3 1.98 3 3 C3.66 3.33 4.32 3.66 5 4 C4.67 4.33 4.34 4.66 4 5 C3.95615553 6.66608987 3.9603287 8.33380554 4 10 C4 10.99 4 11.98 4 13 C2.68 12.67 1.36 12.34 0 12 C-0.19573608 10.56359829 -0.38127816 9.12580496 -0.5625 7.6875 C-0.66691406 6.88699219 -0.77132812 6.08648437 -0.87890625 5.26171875 C-1 3 -1 3 0 0 Z " fill="#F2F2F2" transform="translate(101,180)"/>
<path d="M0 0 C0.99 0 1.98 0 3 0 C3.33 4.62 3.66 9.24 4 14 C2.68 13.67 1.36 13.34 0 13 C0 8.71 0 4.42 0 0 Z " fill="#FEFEFE" transform="translate(40,179)"/>
<path d="M0 0 C0.66 0 1.32 0 2 0 C2 3.3 2 6.6 2 10 C1.34 10 0.68 10 0 10 C0 6.7 0 3.4 0 0 Z " fill="#FFFFFF" transform="translate(157,183)"/>
<path d="M0 0 C0.66 0 1.32 0 2 0 C2 0.99 2 1.98 2 3 C1.34 3 0.68 3 0 3 C0 2.01 0 1.02 0 0 Z " fill="#FFFFFF" transform="translate(157,179)"/>
</svg>
