<svg width="88" height="54" viewBox="0 0 88 54" fill="none" xmlns="http://www.w3.org/2000/svg">
<g opacity="0.6">
<path d="M26.5541 46.4979C26.4838 46.5624 26.409 46.6219 26.3303 46.6759C26.0185 46.8891 25.7028 46.9725 25.4957 46.9126C25.4842 46.9093 25.4728 46.9054 25.4616 46.9009C25.4503 46.8964 25.4393 46.8914 25.4286 46.8857C25.4185 46.8808 25.4088 46.8752 25.3995 46.869H25.3961C25.3877 46.8634 25.3799 46.8572 25.372 46.851L25.3659 46.8454C25.3604 46.8409 25.3552 46.836 25.3502 46.8309C25.3384 46.8187 25.3277 46.8054 25.3183 46.7912C25.3142 46.7856 25.3105 46.7798 25.3071 46.7738C25.3044 46.7697 25.3019 46.7654 25.2998 46.7609C25.2954 46.752 25.2909 46.7425 25.287 46.7329C24.459 44.6717 23.631 42.6105 22.803 40.5493C22.7862 40.5061 22.7778 40.4601 22.7783 40.4138C22.7783 40.1082 23.0828 39.6588 23.5356 39.3504C23.5603 39.3336 23.5849 39.3174 23.6095 39.3022C23.6906 39.678 23.8005 40.047 23.9381 40.406L25.5976 44.7561C25.8491 45.3712 26.17 45.9556 26.5541 46.4979Z" fill="white"/>
<path d="M26.7946 46.8183C26.7627 46.844 26.7297 46.8681 26.6955 46.891C26.4039 47.0875 26.1101 47.1507 25.9327 47.0724C25.9178 47.0679 25.9032 47.0625 25.889 47.0561C25.8741 47.0517 25.8595 47.0462 25.8454 47.0399C25.8305 47.0356 25.8159 47.0304 25.8017 47.0242C25.7868 47.0198 25.7722 47.0143 25.758 47.008C25.7429 47.0035 25.7284 46.9979 25.7144 46.9923C25.6995 46.9879 25.6849 46.9825 25.6707 46.9761C25.6558 46.9717 25.6412 46.9663 25.6271 46.9599C25.6122 46.9557 25.5976 46.9504 25.5834 46.9442C25.5685 46.9398 25.5539 46.9344 25.5397 46.928C25.5249 46.9235 25.5104 46.9183 25.4961 46.9123C25.7032 46.9722 26.0189 46.8888 26.3306 46.6755C26.4094 46.6216 26.4842 46.5621 26.5545 46.4976C26.6314 46.6073 26.7114 46.7142 26.7946 46.8183Z" fill="white"/>
<path d="M67.6336 46.9455C67.6223 46.9498 67.6107 46.9531 67.5989 46.9556C67.5837 46.9613 67.5682 46.966 67.5524 46.9695C67.5371 46.9754 67.5214 46.9801 67.5054 46.9835C67.4903 46.9895 67.4748 46.9941 67.4589 46.9975C67.4438 47.0034 67.4283 47.0081 67.4125 47.0115C67.3971 47.0173 67.3814 47.0222 67.3655 47.0261C67.3503 47.0317 67.3348 47.0364 67.319 47.0401C67.3038 47.0457 67.2883 47.0504 67.2725 47.0541C67.2572 47.0596 67.2415 47.0643 67.2255 47.0681C67.2104 47.0737 67.1948 47.0784 67.1791 47.0821C67 47.1498 66.7156 47.082 66.4335 46.8951C66.4072 46.8778 66.382 46.8593 66.3574 46.8391C66.3765 46.8145 66.396 46.7904 66.4134 46.7653L66.4324 46.7406L66.4946 46.6589L66.5265 46.6158C66.5494 46.5856 66.5712 46.5548 66.5936 46.524L66.5992 46.5156C66.6711 46.5823 66.7478 46.6437 66.8287 46.6992C67.127 46.9041 67.4265 46.9891 67.6336 46.9455Z" fill="white"/>
<path d="M70.3828 40.4358C70.3835 40.4819 70.3754 40.5277 70.3587 40.5707L67.8748 46.7549C67.87 46.7667 67.8643 46.7781 67.858 46.7891C67.8522 46.7998 67.8456 46.8101 67.8384 46.8199C67.8266 46.8355 67.8133 46.85 67.7986 46.8629C67.7547 46.8994 67.7027 46.9249 67.647 46.9374L67.6352 46.9413C67.4281 46.985 67.1315 46.8999 66.832 46.6967C66.7512 46.6412 66.6745 46.5798 66.6025 46.5131L66.6053 46.5098L66.6725 46.4146C66.6977 46.3782 66.7229 46.3413 66.7475 46.3027C66.7721 46.2641 66.8001 46.2243 66.8253 46.1846C66.8257 46.1833 66.8257 46.1819 66.8253 46.1807C66.8538 46.1376 66.8813 46.0939 66.9081 46.0497C66.935 46.0055 66.9574 45.9696 66.9815 45.9288C66.9859 45.9226 66.9893 45.9159 66.9932 45.9098C67.019 45.8661 67.0442 45.8224 67.0693 45.7782C67.0945 45.734 67.1214 45.6853 67.1471 45.6383C67.1729 45.5913 67.1981 45.5443 67.2227 45.4961C67.2473 45.448 67.2664 45.4122 67.2876 45.3696C67.388 45.17 67.4824 44.9629 67.5708 44.7484L69.2326 40.4017C69.3672 40.0511 69.4753 39.6909 69.5561 39.3242C69.5802 39.3393 69.6037 39.355 69.6278 39.3712C70.0789 39.6808 70.3828 40.1308 70.3828 40.4358Z" fill="white"/>
<path d="M46.5424 48.8286H46.6342C49.5676 48.8286 52.4283 49.5187 54.7583 50.6336C54.8143 50.6605 54.8703 50.6896 54.9262 50.7159C55.0068 50.7556 55.0891 50.7971 55.1748 50.8379C55.4288 50.9567 55.6906 51.0582 55.9584 51.1418C56.6592 51.3697 57.3914 51.4864 58.1283 51.4878C58.7011 51.4897 59.2716 51.4144 59.8243 51.2639C61.1178 50.9062 62.1124 50.3297 63.2161 49.6054C63.5424 49.3911 63.6169 49.3944 63.9437 49.1829C63.9628 49.1706 64.4016 48.959 64.4206 48.9444C63.2794 51.4446 60.9851 52.5708 58.5022 52.5708C57.5733 52.5658 56.6506 52.4194 55.7658 52.1365C55.4649 52.0419 55.1706 51.9275 54.8848 51.7939C54.7942 51.7503 54.7096 51.7083 54.6285 51.668H54.624C54.5725 51.6422 54.521 51.6165 54.4684 51.5919C52.2217 50.5189 49.4607 49.8568 46.6291 49.8568H46.544C43.6974 49.8568 40.9223 50.5284 38.6656 51.6126C38.6219 51.6333 38.5749 51.6568 38.529 51.6792C38.454 51.7161 38.3824 51.7519 38.3303 51.7766C38.0299 51.9181 37.7204 52.0396 37.404 52.1404C36.5471 52.4131 35.6536 52.5535 34.7543 52.5568C32.2177 52.5568 29.8445 51.3814 28.6882 48.8493C29.296 49.2651 30.0209 49.7347 30.6371 50.1366C31.2259 50.5223 31.841 50.6599 32.4841 50.9532H32.4875C33.2899 51.3119 34.1598 51.4943 35.0386 51.4883C35.4706 51.4881 35.9015 51.4479 36.326 51.368C36.627 51.3128 36.9241 51.238 37.2154 51.1441C37.4981 51.0546 37.7745 50.9461 38.0426 50.8195C38.0924 50.7959 38.1607 50.7635 38.2312 50.7271C38.2805 50.7025 38.3309 50.6779 38.3768 50.656C40.7186 49.5276 43.5955 48.8303 46.544 48.8303M27.346 47.2463L28.1856 49.0788C28.7901 50.4014 29.7136 51.4295 30.9281 52.1331C32.0364 52.7745 33.3612 53.1137 34.7594 53.1137C35.7156 53.1108 36.6658 52.9617 37.5769 52.6715H37.5797H37.5825C37.9223 52.5628 38.2545 52.4319 38.5771 52.2797L38.7243 52.2075L38.7803 52.1796L38.8262 52.1572L38.9096 52.1163C41.1927 51.0159 43.9022 50.4097 46.5452 50.4097H46.6302C49.2609 50.4097 51.9575 51.007 54.2283 52.0889C54.2664 52.1068 54.305 52.1253 54.3447 52.1448L54.3733 52.1588L54.4063 52.1751L54.638 52.287C54.9466 52.4314 55.2645 52.5552 55.5895 52.6575C56.5287 52.9579 57.5083 53.1131 58.4944 53.1176C61.4323 53.1176 63.7753 51.6769 64.9221 49.1644L65.7488 47.3521L64.1256 48.4513L63.9135 48.5566C63.8176 48.5991 63.7241 48.6471 63.6337 48.7004C63.5322 48.7661 63.4274 48.8264 63.3197 48.8812C63.1759 48.9542 63.0365 49.0355 62.9021 49.1247C61.7743 49.864 60.8401 50.3879 59.6675 50.7114C59.1636 50.8491 58.6434 50.918 58.1211 50.9163C57.4426 50.9155 56.7685 50.808 56.1235 50.5978C55.8797 50.5216 55.6413 50.4292 55.4098 50.3213C55.3499 50.2928 55.2923 50.2653 55.2352 50.2362L55.1697 50.2032C55.1076 50.1724 55.0494 50.1433 54.9906 50.1159C52.4848 48.917 49.515 48.2571 46.6269 48.2571H46.5351C43.6302 48.2571 40.6441 48.9248 38.1271 50.1372C38.0784 50.1601 38.0258 50.1864 37.9738 50.2122L37.9178 50.2396L37.7935 50.3C37.5478 50.4156 37.2946 50.5147 37.0357 50.5967C36.7672 50.6828 36.4935 50.7516 36.2163 50.8027C35.8263 50.8762 35.4304 50.9137 35.0336 50.9146C34.2348 50.9219 33.4438 50.7565 32.7147 50.4299C32.4651 50.318 32.2255 50.2262 31.9938 50.1394C31.6199 49.9995 31.2662 49.8668 30.9427 49.6541L30.6253 49.4471C30.0998 49.104 29.5059 48.7144 29.0022 48.3713L27.3398 47.2334L27.346 47.2463Z" fill="white"/>
<path d="M57.8362 49.098C57.5168 48.9817 57.2061 48.8428 56.9065 48.6821C56.8052 48.6261 56.7078 48.5702 56.6127 48.5142C56.5466 48.4767 56.4806 48.4386 56.4134 48.4023C53.6406 46.8793 50.1609 45.9328 46.5911 45.9395C42.9994 45.9289 39.4979 46.886 36.7099 48.4274L36.5381 48.5243C36.4542 48.5719 36.3736 48.6178 36.3142 48.6502C35.9977 48.8212 35.6695 48.9696 35.3319 49.0941C32.9907 49.9515 30.4893 49.7181 28.5068 48.4006C28.588 48.4566 28.6703 48.5125 28.7531 48.5685L28.8337 48.6217L28.8981 48.6642C28.9462 48.6967 28.9943 48.7286 29.043 48.7599C29.0917 48.7913 29.1393 48.8243 29.188 48.8551C29.2367 48.8858 29.2843 48.92 29.333 48.9508C29.3817 48.9816 29.4292 49.0151 29.4779 49.0465C29.5266 49.0778 29.5742 49.1109 29.6229 49.1422C29.6716 49.1735 29.7192 49.2066 29.7679 49.2379C29.8166 49.2693 29.8641 49.3028 29.9128 49.3336C29.9615 49.3644 30.0097 49.3985 30.0584 49.4299C30.107 49.4612 30.1546 49.4943 30.2033 49.5256C30.252 49.5569 30.3001 49.59 30.3488 49.6213C30.3975 49.6527 30.4451 49.6862 30.4944 49.7176C30.5436 49.7489 30.5906 49.7819 30.6399 49.8133C30.6891 49.8446 30.7362 49.8782 30.7854 49.9096C30.8347 49.9409 30.8817 49.9745 30.9309 50.0053C30.9802 50.0361 31.0272 50.0702 31.0765 50.1015C31.1257 50.1329 31.1733 50.1665 31.222 50.1978C31.2707 50.2292 31.3188 50.2627 31.3681 50.2941C31.4173 50.3254 31.4649 50.359 31.5136 50.3904C31.5813 50.4362 31.649 50.481 31.7184 50.5241C33.2526 51.5417 35.2614 51.7583 37.2114 51.1398C37.4942 51.0503 37.7705 50.9418 38.0387 50.8152C38.0885 50.7917 38.1568 50.7592 38.2273 50.7228C38.2766 50.6982 38.3269 50.6736 38.3728 50.6517C40.7275 49.5172 43.6235 48.8181 46.5894 48.826C49.5374 48.8192 52.4148 49.5105 54.7561 50.631C54.8121 50.6579 54.868 50.687 54.924 50.7133C55.0046 50.753 55.0869 50.7945 55.1725 50.8353C55.4266 50.9541 55.6884 51.0556 55.9561 51.1392C57.9341 51.7667 59.9726 51.5344 61.5151 50.4788C61.5644 50.4474 61.6131 50.415 61.6612 50.382C61.7094 50.3489 61.7592 50.3187 61.8073 50.2857C61.8554 50.2527 61.9047 50.2224 61.9528 50.1894C62.001 50.1564 62.0508 50.1262 62.0989 50.0931C62.1471 50.0601 62.1963 50.0299 62.2445 49.9969C62.2926 49.9639 62.3418 49.9336 62.39 49.9006C62.4381 49.8676 62.4879 49.8374 62.5361 49.8043C62.5842 49.7713 62.6334 49.7411 62.681 49.7081C62.7286 49.675 62.779 49.6448 62.8265 49.6124C62.8741 49.5799 62.9239 49.5491 62.9721 49.5161C63.0202 49.4831 63.0695 49.4528 63.1176 49.4204C63.1657 49.3879 63.215 49.3571 63.2626 49.3241C63.3101 49.2911 63.36 49.2609 63.4081 49.2284C63.4562 49.1959 63.5055 49.1651 63.5531 49.1327C63.6006 49.1002 63.6504 49.0694 63.6986 49.037C63.7467 49.0045 63.7954 48.9737 63.8435 48.9407C63.8917 48.9077 63.9404 48.878 63.9885 48.845C64.0366 48.812 64.0853 48.7823 64.1335 48.7493C64.1816 48.7163 64.2309 48.686 64.279 48.6536L64.335 48.6161L64.4273 48.5551C64.4743 48.5243 64.5208 48.4935 64.5678 48.4616C62.6021 49.7288 60.1416 49.9426 57.8362 49.098Z" fill="white"/>
<path d="M32.4045 48.4151C32.1549 48.4149 31.9055 48.4018 31.6573 48.3759L31.6293 48.3731H31.6047H31.5862C31.4468 48.3574 31.3063 48.3367 31.1675 48.3121L31.1418 48.3076C31.0489 48.2903 30.9532 48.2707 30.8485 48.2472L30.8345 48.2438C29.726 47.9938 28.7029 47.4564 27.868 46.6856C27.1448 46.0028 26.5929 45.1591 26.2572 44.2229L24.7549 40.0581C24.751 40.048 24.7471 40.0379 24.7437 40.0278C24.7169 39.9607 24.6928 39.8935 24.671 39.8275C24.6503 39.7715 24.6296 39.7155 24.6094 39.6562L24.5909 39.6047C23.9467 37.9547 24.0872 35.8698 24.9715 33.8828C26.0859 31.3831 28.1781 29.4051 30.7114 28.4536C31.0437 28.3237 31.3844 28.2164 31.7312 28.1323C31.9925 28.0764 32.259 28.026 32.5148 27.9795C32.6054 27.9633 32.6967 27.9471 32.7884 27.9297C37.4822 27.056 42.1048 26.6133 46.5265 26.6133H46.6603C51.0937 26.6133 55.7276 27.0577 60.4331 27.9348L60.6939 27.9823C60.9245 28.0238 61.1624 28.0668 61.3963 28.1189C61.7612 28.2048 62.1195 28.3171 62.4682 28.4547C64.7988 29.3301 66.7964 31.1094 67.9477 33.3354C69.0414 35.4343 69.2754 37.719 68.5891 39.6041L68.4268 40.0519C68.2029 40.6717 67.9791 41.2915 67.7552 41.9113C67.5313 42.5311 67.3074 43.1508 67.0835 43.7706L66.9207 44.2217C66.5852 45.1582 66.0331 46.0021 65.3092 46.6845C64.4208 47.501 63.3228 48.0542 62.1379 48.2824C61.9767 48.3143 61.8094 48.3384 61.6392 48.3619L61.6118 48.3653L61.5603 48.3709H61.5508C61.4898 48.3776 61.4288 48.3832 61.3672 48.3888C61.1898 48.4039 61.0135 48.4117 60.8405 48.4128H60.7706C60.6866 48.4128 60.6099 48.4129 60.5355 48.4089C59.6888 48.3777 58.853 48.2076 58.0616 47.9052C57.7684 47.7989 57.4828 47.6727 57.2069 47.5274C57.1263 47.4843 57.0451 47.439 56.964 47.3936C56.8828 47.3483 56.7961 47.299 56.7088 47.2531C53.716 45.6518 50.1366 44.7697 46.6267 44.7697H46.5534C43.0183 44.7697 39.4199 45.6619 36.4148 47.2834C36.3331 47.3276 36.2396 47.3791 36.1573 47.425L36.018 47.5016C35.7247 47.6572 35.4212 47.7926 35.1096 47.9069C34.246 48.2385 33.3295 48.4107 32.4045 48.4151ZM31.7687 47.8246C32.8376 47.9217 33.9145 47.7706 34.9153 47.383C35.2033 47.2776 35.4838 47.1529 35.7549 47.0097L35.8892 46.9352C35.9738 46.8882 36.0695 46.835 36.1534 46.7903C39.238 45.1257 42.9309 44.21 46.5562 44.21H46.6306C50.2312 44.21 53.9068 45.115 56.9757 46.7606C57.0642 46.8076 57.1526 46.8569 57.2405 46.9061C57.3183 46.9498 57.3966 46.9934 57.475 47.0354C57.7291 47.1689 57.992 47.2849 58.2619 47.3824C58.996 47.6633 59.7713 47.8214 60.5568 47.8503C60.6273 47.8503 60.6995 47.8537 60.7806 47.8543H60.8333C60.9972 47.8543 61.159 47.8459 61.3208 47.8324L61.4512 47.8196L61.4646 47.8128H61.5284L61.5654 47.8084H61.5721C61.7293 47.7888 61.8844 47.7647 62.0316 47.7356C63.1454 47.5117 64.1473 47.0046 64.9286 46.2725C65.5887 45.6494 66.0919 44.879 66.3973 44.0242L66.5608 43.5708L67.2324 41.7148L67.9041 39.856L68.0664 39.4054C68.6988 37.6703 68.4761 35.5468 67.4552 33.5845C66.3503 31.4648 64.5073 29.8231 62.2745 28.9697C61.9505 28.842 61.6177 28.7378 61.2788 28.6579C61.0549 28.6081 60.831 28.5683 60.5987 28.5258L60.3346 28.4782C55.6627 27.6073 51.0635 27.1657 46.6636 27.1657H46.531C42.1423 27.1657 37.5549 27.6056 32.8942 28.4732L32.6172 28.523C32.3541 28.5706 32.105 28.6148 31.856 28.6713C31.5342 28.7492 31.2182 28.8491 30.9101 28.9702C28.5156 29.8691 26.5382 31.7402 25.4842 34.1039C24.6587 35.9565 24.5238 37.8858 25.1154 39.3982L25.1378 39.4603L25.1999 39.6327L25.2038 39.6428C25.2223 39.6987 25.2441 39.7609 25.2676 39.8202L25.271 39.8297C25.271 39.8353 25.2749 39.8403 25.2771 39.8454L25.2811 39.8566L26.7844 44.0247C27.0903 44.879 27.5933 45.6491 28.2526 46.2725C29.0156 46.9761 29.9505 47.4663 30.9632 47.6936H30.9761C31.0685 47.7149 31.1524 47.7322 31.233 47.7496H31.247C31.3836 47.7742 31.5229 47.7949 31.6606 47.8106H31.7608L31.7687 47.8246Z" fill="white"/>
<path d="M40.8002 43.5476C40.5909 43.6662 40.1521 43.8403 39.4995 44.1073C38.8468 44.3742 38.1606 44.667 37.4358 44.9899C36.711 45.3129 36.0365 45.6202 35.3884 45.8989C34.7403 46.1776 34.2874 46.308 34.0121 46.2459C33.7367 46.1838 33.1775 45.7864 32.4673 44.9737C32.2848 44.7621 32.1063 44.5388 31.935 44.302C31.8639 44.2102 31.7934 44.1168 31.7245 44.0222C31.6619 43.941 31.5997 43.8587 31.5398 43.7754C31.4799 43.692 31.415 43.6125 31.354 43.5285C31.293 43.4446 31.2342 43.3712 31.1755 43.2906C31.1167 43.2101 31.059 43.1378 31.002 43.06C30.9449 42.9822 30.8844 42.9056 30.8268 42.8266C30.7691 42.7477 30.7031 42.6649 30.6421 42.5821C30.5811 42.4992 30.5195 42.4209 30.4585 42.338C30.3975 42.2552 30.3359 42.1774 30.2755 42.0945C30.2049 42.0044 30.1355 41.9132 30.0684 41.8192C30.2922 42.1119 30.5296 42.3856 30.7719 42.6431C31.574 43.4826 32.2064 43.8789 32.507 43.9304C32.8076 43.9819 33.3192 43.8185 34.0333 43.4826C34.7475 43.1468 35.4998 42.7858 36.3046 42.408C37.1095 42.0302 37.8718 41.6921 38.5995 41.3804C39.3271 41.0686 39.8163 40.871 40.0497 40.7367C40.2064 40.6511 40.2265 40.383 40.1308 39.9246C40.1095 39.8221 40.086 39.7186 40.0603 39.6128C40.0832 39.6984 40.1056 39.7807 40.1263 39.8663C40.147 39.952 40.1722 40.0376 40.1924 40.121C40.2125 40.2044 40.2383 40.2889 40.2595 40.3751C40.2808 40.4613 40.3054 40.5458 40.3256 40.6292C40.3457 40.7126 40.3704 40.7971 40.39 40.8761C40.4096 40.955 40.4342 41.0389 40.4538 41.119C40.4734 41.199 40.4974 41.2818 40.5176 41.3613C40.5377 41.4408 40.5612 41.5236 40.5808 41.6031C40.6004 41.6826 40.6262 41.771 40.6469 41.855C40.6676 41.9389 40.6928 42.0229 40.7129 42.108C40.7782 42.3442 40.8323 42.5722 40.8752 42.7919C40.9597 43.2235 40.9407 43.4692 40.8002 43.5476Z" fill="white"/>
<path d="M35.2672 35.4404C35.206 36.0787 35.1901 36.7207 35.2196 37.3613C35.1597 37.382 35.0998 37.401 35.0416 37.4173C34.6834 37.5292 34.4668 37.5426 34.3906 37.4385C34.342 37.377 34.2194 37.063 34.0783 36.4747C33.9206 35.8071 33.8171 35.1278 33.7688 34.4435C33.7146 33.6833 33.7226 32.9199 33.7929 32.161C33.8516 31.5257 33.9261 31.0522 33.9669 30.7539C34.0744 30.7875 34.125 30.8435 34.1186 30.9218C34.1136 30.9638 34.1074 31.0125 34.0996 31.0657C34.2071 31.1004 34.258 31.1552 34.2513 31.2308C34.2468 31.2733 34.2401 31.322 34.2328 31.3757C34.3403 31.4093 34.3912 31.4642 34.3845 31.5403C34.3795 31.5823 34.3733 31.631 34.366 31.6847C34.4729 31.7194 34.5244 31.7737 34.5177 31.8493C34.5127 31.8918 34.5065 31.9411 34.4992 31.9942C34.6061 32.0284 34.6576 32.0832 34.6509 32.1588C34.6464 32.2008 34.6397 32.25 34.6324 32.3037C34.7399 32.3384 34.7903 32.3927 34.7841 32.4677C34.7791 32.5103 34.7729 32.5595 34.7651 32.6133C34.8726 32.6474 34.9241 32.7023 34.9168 32.7778C34.9123 32.8198 34.9056 32.8685 34.8983 32.9222C35.0058 32.9569 35.0567 33.0118 35.05 33.0868C35.0449 33.1293 35.0388 33.178 35.0315 33.2323C35.1384 33.2664 35.1899 33.3213 35.1838 33.3963C35.1787 33.4383 35.172 33.487 35.1642 33.5413C35.2722 33.576 35.3237 33.6308 35.3164 33.7053C35.3119 33.7478 35.3052 33.7965 35.2974 33.8508C35.4054 33.8855 35.4563 33.9398 35.4496 34.0148C35.4194 34.2694 35.3349 34.7502 35.2672 35.4404Z" fill="white"/>
<path d="M52.509 39.9957C52.5013 40.0866 52.4825 40.1763 52.4531 40.2627C52.4452 40.3527 52.4264 40.4414 52.3971 40.5269C52.3889 40.6168 52.3701 40.7055 52.3411 40.7911C52.3332 40.8811 52.3144 40.9698 52.2851 41.0552C52.2779 41.1453 52.2591 41.2341 52.2292 41.3194C52.2214 41.4096 52.2026 41.4985 52.1732 41.5842C52.1654 41.6742 52.1466 41.7629 52.1172 41.8483C52.1101 41.9385 52.0912 42.0272 52.0613 42.1125C52.0541 42.2028 52.0353 42.2918 52.0053 42.3773C51.9985 42.468 51.9796 42.5574 51.9493 42.6431C51.9247 42.8944 51.8491 43.0607 51.7288 43.1413C51.5984 43.2286 51.4086 43.2678 51.1584 43.265C50.7353 43.2588 50.2237 43.2275 49.6204 43.1894C49.017 43.1513 48.6426 43.1334 48.4931 43.1038C48.4355 43.0908 48.3813 43.0656 48.3342 43.0299C48.1786 42.9179 48.0442 42.6146 47.9116 42.1232C47.7789 41.6317 47.6256 41.2926 47.4677 41.1073C47.3704 40.996 47.2343 40.9261 47.0871 40.912C46.6647 40.9049 46.2418 40.9067 45.8183 40.9175C45.4214 40.9399 45.1712 41.0737 45.0733 41.3093C44.9446 41.611 44.8057 41.9469 44.6658 42.3168C44.5259 42.6868 44.4296 42.9196 44.3591 43.0109C44.3195 43.0706 44.26 43.1145 44.1912 43.1346C44.0098 43.1972 43.5705 43.2532 42.8714 43.3456C42.1723 43.4379 41.7576 43.4609 41.6221 43.3618C41.5065 43.2925 41.4186 43.185 41.3736 43.0579C41.3162 42.8897 41.2695 42.7181 41.2337 42.5441C41.2085 42.4534 41.185 42.356 41.1626 42.2508C41.1402 42.1663 41.1189 42.0761 41.0988 41.9799C41.0764 41.8959 41.0546 41.8058 41.0344 41.7095C41.012 41.6256 40.9908 41.5355 40.9706 41.4392C40.9482 41.3552 40.9264 41.2651 40.9062 41.1694C40.8839 41.0849 40.8626 40.9953 40.8424 40.8991C40.8201 40.8157 40.7982 40.7256 40.7781 40.6293C40.7557 40.5453 40.7344 40.4558 40.7148 40.3606C40.6919 40.2761 40.67 40.186 40.6505 40.0909C40.6309 39.9957 40.6029 39.9011 40.5811 39.7964C40.6202 39.9464 40.6611 40.0802 40.7036 40.1966C40.7559 40.3342 40.855 40.449 40.9835 40.5207C41.1357 40.6248 41.5992 40.5935 42.3828 40.4787C43.1664 40.364 43.6561 40.3024 43.8587 40.2325C43.9358 40.2114 44.003 40.1639 44.0485 40.0981C44.1274 39.9985 44.2337 39.7472 44.3899 39.3448C44.546 38.9423 44.7011 38.578 44.8449 38.2517C44.9569 37.9987 45.2367 37.8515 45.6794 37.8257C46.1541 37.8119 46.6283 37.8089 47.1022 37.8168C47.2659 37.8318 47.4182 37.9072 47.5293 38.0283C47.7062 38.2293 47.8774 38.5959 48.0263 39.127C48.1752 39.6582 48.3252 39.9862 48.4993 40.1088C48.5567 40.1495 48.6225 40.177 48.6918 40.1894C48.8597 40.2229 49.2778 40.2453 49.954 40.2907C50.6301 40.336 51.2015 40.3797 51.6745 40.3937C51.9544 40.4009 52.167 40.3612 52.3137 40.27C52.4083 40.2037 52.4773 40.1068 52.509 39.9957Z" fill="white"/>
<path d="M64.0996 41.6115C64.0488 41.6861 63.9943 41.7587 63.9361 41.8292C63.8846 41.9053 63.8281 41.9803 63.7682 42.0531C63.716 42.1305 63.66 42.2052 63.6003 42.277C63.5477 42.3542 63.4917 42.4287 63.4324 42.5009C63.3731 42.5731 63.3204 42.657 63.2589 42.732C63.2068 42.8093 63.1503 42.8837 63.091 42.9559C63.0316 43.0281 62.9829 43.1076 62.9231 43.1798C62.8632 43.252 62.815 43.3315 62.7551 43.4037C62.6953 43.4759 62.6471 43.5554 62.5872 43.6276C62.5273 43.6998 62.4786 43.7793 62.4193 43.8515C62.2974 44.0304 62.1581 44.1969 62.0035 44.3485C61.385 44.9597 60.5784 45.314 59.6773 45.488C58.7762 45.6621 57.9422 45.5927 57.1692 45.3157C57.0013 45.2597 56.6952 45.1315 56.2384 44.9502C55.7817 44.7688 55.2937 44.5813 54.7709 44.3949C54.2481 44.2086 53.7561 44.0378 53.2949 43.8766C52.8337 43.7155 52.5287 43.5884 52.3854 43.4759C52.2472 43.3751 52.2914 42.8865 52.4369 41.9949C52.5824 41.1033 52.7307 40.1031 52.8533 38.9876C52.9759 37.8721 53.0419 36.7868 53.0615 35.7357C53.0811 34.6845 53.0531 33.9759 53.0918 33.6244C53.098 33.5713 53.1172 33.5206 53.1477 33.4767C53.1511 33.4084 53.1556 33.3479 53.1606 33.2953C53.1673 33.2425 53.1865 33.1921 53.2166 33.1481C53.2205 33.0804 53.225 33.0188 53.23 32.9668C53.2366 32.9139 53.2558 32.8635 53.286 32.8196C53.2893 32.7519 53.2938 32.6903 53.2994 32.6377C53.3058 32.585 53.325 32.5346 53.3554 32.491C53.3587 32.4233 53.3632 32.3617 53.3688 32.3097C53.3755 32.2569 53.3947 32.2064 53.4248 32.1625C53.4281 32.0942 53.4326 32.0332 53.4388 31.9806C53.4456 31.928 53.4648 31.8777 53.4947 31.8339C53.4987 31.7657 53.5026 31.7041 53.5087 31.6515C53.5156 31.599 53.5348 31.549 53.5647 31.5054C53.5686 31.4371 53.5725 31.3755 53.5787 31.3229C53.5856 31.2705 53.6048 31.2204 53.6347 31.1768C53.6386 31.1086 53.6431 31.0475 53.6492 30.9938C53.6563 30.9418 53.6755 30.8921 53.7052 30.8488C53.7091 30.78 53.7136 30.7184 53.7198 30.6653C53.7266 30.6132 53.7458 30.5635 53.7757 30.5203C53.7791 30.452 53.7836 30.3899 53.7897 30.3362C53.7968 30.2847 53.816 30.2356 53.8457 30.1929C53.8227 30.6121 53.839 31.3123 53.8188 32.2901C53.7931 33.4263 53.7142 34.5967 53.5731 35.8006C53.4321 37.0045 53.258 38.082 53.0934 39.043C52.9289 40.004 52.8757 40.5307 53.0302 40.6426C53.1897 40.7675 53.5295 40.9107 54.0449 41.0966C54.5604 41.2824 55.1084 41.4805 55.691 41.6988C56.2737 41.9171 56.8166 42.1365 57.3248 42.3498C57.8331 42.563 58.175 42.7147 58.3592 42.7824C59.2475 43.124 60.2093 43.2291 61.1505 43.0875C62.1551 42.9464 63.0563 42.6095 63.752 41.9843C63.8769 41.8688 63.9931 41.7442 64.0996 41.6115Z" fill="white"/>
<path d="M32.6282 44.2262C32.572 44.2266 32.5158 44.2221 32.4603 44.2128C32.021 44.1333 31.3152 43.62 30.5691 42.8398C30.3094 42.5644 30.0653 42.2801 29.8504 42.0002L29.8364 41.9823C29.8185 41.9588 29.7978 41.9319 29.7776 41.9045L29.7592 41.881L29.7396 41.8547L29.7194 41.8273L29.6456 41.726L29.6416 41.7204C29.6332 41.7092 29.6248 41.6974 29.617 41.6857C29.5666 41.6157 29.5123 41.5373 29.4575 41.4556C29.4278 41.412 29.3976 41.3661 29.3668 41.3196C29.3069 41.2273 29.2459 41.1299 29.1855 41.0297C29.1379 40.9513 29.0886 40.8668 29.0349 40.7711C29.0288 40.761 29.0232 40.7509 29.0176 40.7403L29.0136 40.7336C28.9577 40.6379 28.9073 40.5388 28.8569 40.4409C28.8536 40.4342 28.8496 40.4269 28.8457 40.4179C28.7668 40.2651 28.6912 40.1056 28.6218 39.9444C28.6062 39.9097 28.5905 39.8739 28.5748 39.8381L28.5631 39.8101C28.534 39.7423 28.5071 39.6752 28.4791 39.6075C27.9538 38.2855 27.6973 36.8721 27.7246 35.4499C27.7465 34.0814 27.9754 33.0521 28.1629 32.4275C28.2748 32.0452 28.6722 31.6685 29.3383 31.3081C29.9621 30.9747 30.6185 30.7065 31.2973 30.5077C31.9077 30.3229 32.5351 30.1995 33.17 30.1394C33.6945 30.0969 33.9861 30.1472 34.1462 30.3073C34.1887 30.3494 34.2214 30.4004 34.2417 30.4566C34.262 30.5129 34.2696 30.573 34.2637 30.6325V30.6398C34.2587 30.684 34.2525 30.7344 34.2447 30.7909C34.2368 30.8474 34.2273 30.9129 34.2173 30.9846C34.1758 31.2779 34.1188 31.6797 34.0723 32.1852C34.0035 32.9295 33.9954 33.6783 34.0482 34.424C34.0953 35.0934 34.1968 35.758 34.3516 36.411C34.4121 36.6902 34.4943 36.9644 34.5973 37.2309C34.7201 37.2207 34.841 37.194 34.9566 37.1515C35.0171 37.1324 35.0736 37.114 35.1313 37.0955C35.2477 37.0574 35.3663 37.0166 35.4889 36.974L35.5163 36.9645L35.5885 36.9388L35.6445 36.9192L35.818 36.857L35.9747 36.8011L35.9932 36.7944L36.1359 36.7417C36.5535 36.5878 36.971 36.4406 37.4138 36.294C37.8397 36.1507 38.1582 36.0796 38.3625 36.0824C38.8136 36.0936 39.1164 36.5486 39.305 36.8895C39.5636 37.3631 39.7846 37.8562 39.966 38.3643C40.0371 38.558 40.1043 38.7561 40.1653 38.9532L40.1849 39.0158C40.2409 39.1938 40.2895 39.3746 40.3338 39.5532C40.3612 39.6651 40.3853 39.772 40.4065 39.8756C40.4625 40.142 40.5924 40.7649 40.1888 40.9888C39.9867 41.1047 39.6403 41.2513 39.1175 41.473L38.7112 41.6454C37.8565 42.0125 37.13 42.3377 36.4248 42.6691C36.0609 42.8396 35.7078 43.0075 35.3652 43.1728C34.9432 43.3732 34.5452 43.5646 34.1523 43.7459C33.4426 44.0745 32.9697 44.2262 32.6282 44.2262ZM30.2898 41.6515C30.4974 41.9219 30.7286 42.1916 30.9754 42.4541C31.815 43.334 32.3781 43.6295 32.5572 43.6609C32.7749 43.6978 33.2327 43.5545 33.915 43.2344C34.3068 43.0519 34.7036 42.8627 35.124 42.6629C35.4684 42.4991 35.8229 42.3312 36.1874 42.1592C36.8983 41.8233 37.6304 41.497 38.4918 41.1276L38.8992 40.9541C39.375 40.7526 39.722 40.606 39.8989 40.5063C39.9095 40.4728 39.9341 40.3452 39.8591 39.9864C39.839 39.8884 39.8166 39.7894 39.7908 39.6836C39.7489 39.5157 39.7019 39.3444 39.6504 39.1765L39.6313 39.1149C39.5754 38.9274 39.5093 38.7388 39.441 38.5552C39.27 38.073 39.0612 37.6052 38.8164 37.1559C38.5517 36.6785 38.3944 36.6382 38.3524 36.6371C38.2919 36.6371 38.0904 36.6522 37.5923 36.8195C37.1552 36.9662 36.7427 37.1117 36.3313 37.2634L36.1852 37.3194L36.1678 37.3255L36.0078 37.3815L35.8331 37.4442L35.7738 37.4649L35.7005 37.4906L35.6736 37.5002C35.5482 37.5438 35.4266 37.5852 35.3087 37.6244C35.2527 37.644 35.1912 37.663 35.1329 37.6804C34.9091 37.7526 34.3992 37.916 34.168 37.6048C34.0292 37.4207 33.8702 36.7994 33.8076 36.5414C33.6462 35.8589 33.5402 35.1644 33.4908 34.4648C33.4357 33.6895 33.444 32.911 33.5154 32.137C33.5635 31.617 33.6212 31.2079 33.6637 30.9057C33.6738 30.8357 33.6827 30.7719 33.6906 30.7148C33.6906 30.7086 33.6906 30.7025 33.6934 30.6963C33.5353 30.6779 33.3757 30.6779 33.2176 30.6963C32.6205 30.753 32.0306 30.8694 31.4568 31.0439C30.8147 31.2316 30.1937 31.485 29.6036 31.8001C28.8821 32.1919 28.7304 32.479 28.6985 32.5837C28.553 33.0673 28.3067 34.0809 28.2832 35.4527C28.2574 36.8009 28.5006 38.1406 28.9985 39.3936C29.0237 39.4586 29.0506 39.5213 29.0769 39.5834L29.0881 39.6103L29.1317 39.7099C29.2011 39.8666 29.2745 40.0188 29.3495 40.1655L29.3601 40.1862C29.406 40.2758 29.4547 40.3664 29.5045 40.4554L29.5112 40.4677C29.5112 40.4722 29.5157 40.4767 29.5185 40.4812L29.5224 40.4873C29.5745 40.5797 29.6215 40.6603 29.6663 40.7353C29.7222 40.8299 29.781 40.9217 29.8375 41.0084C29.8655 41.051 29.8935 41.0935 29.9226 41.136C29.9741 41.2121 30.025 41.286 30.0765 41.3599C30.0838 41.3711 30.0894 41.3789 30.095 41.3862L30.1012 41.3941L30.1711 41.4903L30.2271 41.5631L30.287 41.642L30.2898 41.6515Z" fill="white"/>
<path d="M41.3548 40.863C41.1102 40.863 40.9591 40.8283 40.851 40.7578C40.6712 40.6538 40.5328 40.4909 40.4592 40.2966C40.4128 40.1684 40.3691 40.0257 40.3271 39.8662L40.2952 39.7369C40.2863 39.696 40.2768 39.6541 40.2678 39.611L40.2471 39.513C40.2286 39.4151 40.2102 39.3099 40.1911 39.1878V39.1682C40.1911 39.1515 40.1861 39.1341 40.1833 39.1162V39.11C40.176 39.0585 40.1693 39.007 40.1631 38.9539L40.1548 38.8912C40.1508 38.8559 40.1475 38.8246 40.1441 38.7916C40.1441 38.7765 40.1408 38.7608 40.1396 38.7445L40.1363 38.7098C40.1262 38.608 40.1195 38.5246 40.1145 38.4457C40.1145 38.4182 40.11 38.3897 40.1083 38.3561C40.1049 38.2962 40.1016 38.2352 40.0988 38.1725C40.0988 38.1429 40.0954 38.1098 40.0943 38.0768L40.0915 37.9828C40.0665 36.8798 40.171 35.7776 40.4027 34.699C40.6376 33.5938 40.9766 32.5134 41.4152 31.4722C41.807 30.5398 42.2094 29.7976 42.5755 29.3258C42.6874 29.1864 42.9281 28.9815 43.7542 28.7616C44.3709 28.6005 45.0003 28.4932 45.6354 28.4409C46.2888 28.3823 46.9461 28.3823 47.5995 28.4409C48.2571 28.5024 48.7429 28.6485 49.0441 28.8752L49.0497 28.8791C49.4622 29.2049 49.9379 29.8631 50.464 30.8381C51.0239 31.8712 51.4998 32.9477 51.8874 34.057C52.2702 35.1487 52.5465 36.2748 52.7124 37.4197C52.859 38.4804 52.8663 39.236 52.8467 39.6826V39.6893C52.8439 39.7291 52.8406 39.7627 52.8367 39.7929C52.8327 39.8231 52.8316 39.8354 52.8288 39.8488C52.826 39.8623 52.8243 39.8774 52.8215 39.8925C52.8187 39.9076 52.8154 39.9272 52.8109 39.9485C52.8042 39.9804 52.7964 40.0095 52.7891 40.0358C52.7891 40.047 52.7829 40.0576 52.7796 40.0677L52.7728 40.089C52.7209 40.2609 52.6109 40.4095 52.4616 40.5093C52.2663 40.6308 52.0066 40.6851 51.6657 40.6772C51.209 40.6638 50.6633 40.6252 50.0314 40.5804L49.9329 40.5737L49.5232 40.5463C49.0614 40.5155 48.7832 40.497 48.6349 40.4673H48.626C48.5249 40.4446 48.4297 40.4014 48.3461 40.3403C48.1172 40.1774 47.9442 39.8365 47.7674 39.2074C47.5905 38.5783 47.4181 38.318 47.3302 38.2179C47.2673 38.1515 47.1827 38.11 47.0918 38.1009C46.6278 38.0936 46.1604 38.097 45.7026 38.1104C45.4787 38.1238 45.1944 38.1792 45.1127 38.3679C44.9375 38.7647 44.7947 39.1084 44.6615 39.4509C44.4707 39.9423 44.3778 40.1461 44.2876 40.2647C44.2081 40.3792 44.0918 40.4632 43.958 40.5026C43.7509 40.5742 43.3311 40.6336 42.6348 40.7321L42.4328 40.7606C41.9447 40.8272 41.6022 40.863 41.3548 40.863ZM41.1499 40.2849C41.2294 40.3162 41.5048 40.3263 42.3555 40.2009L42.5593 40.1724C43.1749 40.085 43.6227 40.0224 43.7811 39.967C43.7979 39.9629 43.8137 39.9555 43.8276 39.9451L43.8427 39.9233C43.9126 39.8354 44.08 39.405 44.1427 39.2427C44.2787 38.8923 44.4225 38.5414 44.6022 38.1378C44.7097 37.8904 44.9839 37.5854 45.6768 37.5456H45.6847C46.1576 37.5317 46.6407 37.5289 47.1203 37.5367H47.1506C47.3816 37.5594 47.5959 37.6673 47.7517 37.8395C47.9649 38.0819 48.1524 38.4882 48.3114 39.049C48.4916 39.6916 48.6265 39.8427 48.6763 39.8774L48.6825 39.8819C48.7037 39.8974 48.7279 39.9084 48.7536 39.9143C48.8683 39.9362 49.1605 39.9552 49.5624 39.9821L49.9743 40.0095L50.0734 40.0168C50.6997 40.061 51.2398 40.099 51.6842 40.1119C51.9641 40.1198 52.1012 40.0716 52.1672 40.0302C52.2048 39.9983 52.2318 39.9558 52.2445 39.9082C52.2456 39.9032 52.2471 39.8984 52.249 39.8936V39.8852C52.2546 39.864 52.2596 39.8477 52.2629 39.8293L52.2713 39.7856C52.2713 39.7772 52.2747 39.7677 52.2764 39.7582L52.2809 39.7196C52.2809 39.7011 52.2859 39.6793 52.2881 39.6507C52.306 39.2265 52.2982 38.5089 52.1583 37.4925C51.9972 36.3834 51.7291 35.2924 51.3579 34.235C50.9805 33.1547 50.5169 32.1065 49.9715 31.1006C49.3631 29.9801 48.9489 29.5133 48.706 29.3207C48.5554 29.2088 48.2325 29.0627 47.548 28.9983C46.9279 28.9429 46.3042 28.9429 45.6841 28.9983C45.0815 29.0478 44.4843 29.1495 43.8992 29.3022C43.1895 29.4914 43.0378 29.6442 43.0149 29.6728C42.6863 30.0965 42.3001 30.814 41.9318 31.6877C41.505 32.6959 41.1746 33.7422 40.9451 34.8126C40.7228 35.8475 40.6225 36.9049 40.6462 37.9632L40.649 38.055C40.649 38.0846 40.649 38.1143 40.6523 38.1423C40.6523 38.2055 40.6585 38.2643 40.6619 38.3225C40.6619 38.35 40.6658 38.3785 40.668 38.4048C40.6725 38.4809 40.6792 38.5587 40.6882 38.6533L40.6954 38.7311C40.6988 38.7636 40.7022 38.7938 40.7055 38.8235L40.7133 38.8828C40.7195 38.9348 40.7257 38.983 40.7324 39.0306L40.7408 39.0865V39.1022C40.7581 39.2141 40.7749 39.3127 40.7917 39.4L40.8102 39.4884C40.8191 39.5309 40.8275 39.5696 40.8365 39.6076L40.8701 39.7442C40.9059 39.8774 40.9423 39.9955 40.9792 40.0962C41.0081 40.1727 41.0638 40.2359 41.1359 40.2742L41.1499 40.2849ZM45.9567 35.5318C45.4379 35.5318 44.9492 35.454 44.7813 35.1053C44.6766 34.8859 44.7382 34.5574 44.9806 34.0419C45.1927 33.5902 45.4255 33.2549 45.6724 33.0439C45.7377 32.9858 45.8145 32.942 45.8978 32.9153C45.9811 32.8886 46.069 32.8796 46.156 32.8889C46.4498 32.9196 46.7571 33.1497 47.0957 33.5919C47.7243 34.4152 47.7601 34.7163 47.7114 34.9027C47.5787 35.4036 46.8718 35.4982 46.2752 35.5245C46.1728 35.5268 46.0608 35.5301 45.9567 35.5301V35.5318ZM45.2934 34.8686C45.322 34.8926 45.4921 34.9995 46.2522 34.9648C46.9799 34.9329 47.136 34.8059 47.1662 34.7689C47.1534 34.713 47.08 34.4891 46.6535 33.9294C46.3228 33.4973 46.1464 33.448 46.1 33.4435C46.0887 33.4421 46.0773 33.4434 46.0666 33.4474C46.056 33.4514 46.0465 33.458 46.039 33.4665C45.8548 33.6238 45.6651 33.9042 45.4893 34.2775C45.3046 34.6704 45.2923 34.826 45.2934 34.8669V34.8686Z" fill="white"/>
<path d="M47.444 34.8287C47.3763 35.084 46.9834 35.211 46.2686 35.2424C45.5539 35.2737 45.143 35.1993 45.0373 34.9827C44.9763 34.855 45.0373 34.5791 45.2376 34.1565C45.438 33.7339 45.6462 33.4334 45.8578 33.2526C46.1091 33.0365 46.4522 33.2028 46.877 33.7563C47.3018 34.3099 47.4838 34.6743 47.444 34.8287Z" fill="white"/>
<path d="M45.9563 35.5298C45.438 35.5298 44.9488 35.452 44.7837 35.1033C44.6785 34.8828 44.74 34.5542 44.9835 34.0398C45.1962 33.5876 45.4313 33.2518 45.6753 33.0419C45.7405 32.9839 45.8171 32.9402 45.9002 32.9136C45.9833 32.887 46.071 32.878 46.1578 32.8874C46.4522 32.9176 46.7595 33.1477 47.0981 33.5904C47.7267 34.4148 47.7625 34.716 47.7138 34.9018C47.5817 35.4055 46.877 35.4973 46.2776 35.5231C46.1729 35.5264 46.061 35.5298 45.9563 35.5298ZM45.2936 34.8665C45.3221 34.8906 45.4917 34.9975 46.2524 34.9622C46.9828 34.9309 47.1367 34.8038 47.1664 34.7675C47.1535 34.7115 47.0807 34.4876 46.6537 33.9279C46.3229 33.4958 46.1466 33.4465 46.1001 33.4421C46.089 33.4406 46.0776 33.442 46.067 33.446C46.0565 33.45 46.0471 33.4565 46.0397 33.465C45.8555 33.6217 45.6658 33.9016 45.4901 34.276C45.3042 34.6701 45.2925 34.8262 45.2936 34.8665Z" fill="white"/>
<path d="M60.2918 43.4318C59.5904 43.4332 58.8949 43.303 58.2416 43.0478C58.119 43.0031 57.9304 42.9225 57.6684 42.8111C57.5319 42.7551 57.3757 42.6863 57.1994 42.6124C56.6212 42.3695 56.09 42.1579 55.5762 41.9654C54.9796 41.7415 54.4008 41.5327 53.9329 41.3642C53.3268 41.1459 53.0206 41.0071 52.8443 40.8706C52.5678 40.6646 52.5924 40.1989 52.8006 38.9995C52.945 38.1565 53.1303 37.027 53.2781 35.7722C53.4141 34.6147 53.4958 33.4421 53.5221 32.2885C53.5316 31.8352 53.5327 31.449 53.5344 31.1047C53.5344 30.718 53.5344 30.4124 53.5495 30.1823C53.5495 30.1437 53.5534 30.1068 53.5568 30.0704L53.5602 30.0385C53.5602 30.0268 53.5602 30.0156 53.5602 30.0044V29.9797C53.6262 29.4161 54.3857 29.2594 54.6354 29.2079C55.2186 29.0892 55.9121 29.0635 56.6973 29.1307C57.585 29.2142 58.4608 29.3942 59.3095 29.6674C60.261 29.9666 61.1641 30.4023 61.9905 30.9609C63.2588 31.8301 64.1902 33.0318 64.6144 34.3471C64.76 34.7763 64.8328 35.2267 64.8299 35.6798C64.8299 35.6988 64.8299 35.7175 64.8299 35.7358L64.8266 35.7918C64.8266 35.8057 64.8266 35.8197 64.8266 35.8337C64.8266 35.8606 64.8221 35.8863 64.8193 35.9121L64.8159 35.9412C64.8159 35.9625 64.8109 35.9832 64.8081 36.0039C64.8081 36.0106 64.8081 36.0173 64.8053 36.024V36.0369C64.8053 36.0576 64.7986 36.0783 64.7952 36.0985L64.7919 36.1181C64.7919 36.1265 64.7885 36.1365 64.7857 36.1477C64.7801 36.1757 64.7739 36.2037 64.7672 36.2311C64.7605 36.2586 64.7516 36.2983 64.7415 36.3313C64.7314 36.3643 64.723 36.3962 64.7118 36.4293C64.7045 36.4517 64.6956 36.4785 64.6866 36.5043V36.5093C64.6833 36.5188 64.6799 36.5278 64.676 36.5362C64.6659 36.563 64.6558 36.5888 64.6452 36.6134C64.6217 36.6694 64.5965 36.722 64.5691 36.7735L64.5002 36.9414H64.4728L64.4622 36.9582C64.4432 36.9879 64.4236 37.0142 64.4062 37.0433V37.0651L64.3351 37.1373C64.2764 37.2107 64.2132 37.2804 64.1459 37.3461C64.3585 37.6214 64.5418 37.9182 64.6928 38.2315C64.7057 38.2573 64.7174 38.2836 64.7292 38.3099C64.789 38.439 64.8412 38.5715 64.8853 38.7067L64.8932 38.7314L64.9116 38.7873C64.934 38.8601 64.9553 38.9379 64.9726 39.0112L64.9866 39.0722V39.0823C64.9866 39.0946 64.9922 39.108 64.9945 39.1215C64.9967 39.1349 65.0023 39.1607 65.0057 39.1808C65.0163 39.2368 65.0236 39.286 65.0292 39.3297C65.0325 39.3532 65.0353 39.3773 65.0381 39.4013V39.4097C65.0381 39.4332 65.0432 39.4584 65.0448 39.4836C65.0448 39.4954 65.0448 39.506 65.0448 39.5172C65.0448 39.5284 65.0448 39.5524 65.0488 39.5732V39.581C65.0544 39.6863 65.0544 39.7919 65.0488 39.8972C65.0488 39.9448 65.0426 39.9935 65.0381 40.0411C65.0381 40.0579 65.0348 40.0786 65.032 40.097L65.0258 40.153C65.0258 40.1771 65.0197 40.2 65.0152 40.2241C65.0152 40.2387 65.0113 40.2538 65.0085 40.2683C65.004 40.298 64.9989 40.3243 64.9928 40.3562V40.3663C64.99 40.3825 64.9866 40.3982 64.9833 40.4138C64.9715 40.4698 64.9564 40.5331 64.9374 40.6025L64.9217 40.6584C64.8971 40.7416 64.8691 40.8228 64.8377 40.9019C64.8299 40.9237 64.8215 40.9456 64.812 40.9674L64.7913 41.0155C64.7678 41.0715 64.7404 41.1275 64.7068 41.1935C64.7001 41.2081 64.6905 41.226 64.681 41.2433C64.6715 41.2607 64.6592 41.2853 64.6469 41.306L64.6049 41.3782C64.5456 41.4765 64.4813 41.5718 64.4124 41.6637C64.3827 41.704 64.3502 41.7448 64.3172 41.7851C64.1969 41.9305 64.0659 42.0667 63.9254 42.1926C63.2381 42.8083 62.3129 43.2046 61.1767 43.3641C60.8836 43.407 60.588 43.4296 60.2918 43.4318ZM53.2109 40.4463C53.3855 40.5661 53.8109 40.7262 54.1232 40.8381C54.5906 41.006 55.1727 41.2165 55.7721 41.4415C56.2932 41.6362 56.8305 41.8506 57.416 42.0963C57.5934 42.1708 57.7518 42.2379 57.8878 42.2961C58.1419 42.4047 58.3255 42.4825 58.4391 42.5245C59.2849 42.8514 60.1519 42.9454 61.095 42.815C62.1192 42.6711 62.942 42.323 63.5482 41.7806C63.6687 41.6732 63.7809 41.5568 63.884 41.4325C63.9114 41.3995 63.94 41.3665 63.9624 41.3329C64.0201 41.2565 64.0737 41.1771 64.123 41.095C64.1348 41.0754 64.1465 41.0541 64.1583 41.0334L64.1622 41.0267C64.1678 41.0172 64.1734 41.0077 64.1784 40.9976L64.1851 40.9847C64.1924 40.9719 64.1997 40.9579 64.2064 40.9439C64.2344 40.8879 64.2556 40.8454 64.273 40.804L64.2954 40.7519C64.3027 40.7346 64.3077 40.7211 64.3127 40.7083V40.7026C64.3379 40.6388 64.3603 40.5739 64.3793 40.5084L64.3939 40.4586C64.4096 40.4026 64.4213 40.3523 64.4308 40.3064V40.2969C64.4335 40.2871 64.4355 40.2772 64.437 40.2672L64.4409 40.2487C64.4459 40.2241 64.4487 40.2045 64.4521 40.1844V40.1698C64.4524 40.1638 64.4524 40.1579 64.4521 40.1519L64.4555 40.1317C64.4555 40.12 64.4594 40.1088 64.4605 40.097L64.4683 40.0271C64.4689 40.0187 64.4689 40.0103 64.4683 40.0019C64.4723 39.9554 64.4762 39.9146 64.4784 39.8732C64.4829 39.7874 64.4829 39.7015 64.4784 39.6157V39.6112C64.4784 39.5961 64.4784 39.581 64.4756 39.5653L64.4728 39.5368C64.4728 39.5183 64.4728 39.4998 64.4683 39.4808V39.4702L64.4616 39.4108C64.4566 39.3745 64.4504 39.3319 64.442 39.2911V39.2827C64.442 39.2659 64.4359 39.2496 64.4325 39.2345V39.2239C64.4325 39.2189 64.4325 39.2133 64.4297 39.2082V39.1976C64.4258 39.1797 64.4219 39.1623 64.4174 39.145C64.4029 39.0789 64.3855 39.0162 64.3659 38.9536C64.3603 38.9345 64.3558 38.9205 64.3514 38.9065L64.343 38.8808C64.3056 38.7664 64.2614 38.6542 64.2109 38.545L64.1778 38.4733C64.022 38.1536 63.8294 37.8531 63.6041 37.5778L63.5588 37.5218C63.5471 37.5078 63.5353 37.4916 63.5241 37.4765L63.3663 37.2571L63.5801 37.0892C63.6811 37.0112 63.7736 36.9229 63.856 36.8255L63.898 36.7735C63.9288 36.7354 63.954 36.6968 63.9831 36.656L64.0228 36.5927L64.0597 36.525C64.0826 36.4832 64.1032 36.4403 64.1213 36.3962V36.3907C64.1297 36.3716 64.137 36.3515 64.1448 36.3313L64.1504 36.3162C64.1583 36.2944 64.1655 36.2731 64.1723 36.253C64.179 36.2328 64.1879 36.2026 64.1946 36.1791C64.2014 36.1556 64.2075 36.1293 64.2131 36.1052V36.099C64.2187 36.0761 64.2232 36.0531 64.2282 36.0296L64.2338 36C64.2338 35.9849 64.2389 35.9697 64.2417 35.9546L64.245 35.9295L64.2517 35.8763V35.8544C64.2517 35.8337 64.2568 35.8136 64.2579 35.7923V35.7548C64.2579 35.7408 64.2579 35.7268 64.2579 35.7128V35.7005C64.2579 35.6916 64.2579 35.6826 64.2579 35.6737V35.6664C64.2643 35.2769 64.2057 34.8891 64.0844 34.519C63.6982 33.3218 62.8441 32.2242 61.6776 31.4238C60.8973 30.897 60.0448 30.486 59.1466 30.2036C58.337 29.9424 57.5012 29.7703 56.6542 29.6904C55.9227 29.6277 55.2829 29.6506 54.7512 29.7587C54.2564 29.8605 54.1288 29.9976 54.1199 30.0447C54.1199 30.0514 54.1199 30.0575 54.1199 30.0648V30.081L54.1154 30.1297C54.1126 30.156 54.1115 30.1829 54.1098 30.2126C54.098 30.4303 54.0969 30.7297 54.0958 31.1081C54.0958 31.4529 54.093 31.843 54.0835 32.3014C54.0566 33.4734 53.9715 34.6634 53.8361 35.8388C53.6861 37.1065 53.5003 38.2455 53.3542 39.0957C53.2215 39.8497 53.174 40.303 53.2109 40.4463ZM64.1633 36.3089C64.1633 36.3089 64.1633 36.3089 64.1633 36.3134V36.3089ZM59.2071 39.8866C59.067 39.8859 58.9272 39.8743 58.789 39.8519C58.1733 39.7579 57.4591 39.572 57.3986 38.9787C57.3595 38.6429 57.4171 38.2461 57.5738 37.7597C57.6897 37.3976 57.8973 36.9129 58.3613 36.8888C58.8813 36.8681 59.3923 37.0886 59.8435 37.5274C60.4362 38.1045 60.4815 38.6407 60.4149 38.9894C60.3461 39.342 60.0959 39.8866 59.2071 39.8866ZM58.4313 37.4446H58.3865C58.3412 37.4446 58.2265 37.5515 58.1067 37.9276C57.9746 38.3379 57.9248 38.6597 57.955 38.9121V38.9183C57.96 38.9743 58.0429 39.1685 58.874 39.2955C59.7567 39.4332 59.8323 39.047 59.8647 38.8808C59.9241 38.5707 59.7852 38.2489 59.4522 37.9248C59.1192 37.6007 58.7811 37.4446 58.4313 37.4446ZM59.5726 35.0653C59.2631 35.0638 58.9603 34.9758 58.6983 34.8111C58.3625 34.6136 58.2807 34.1636 58.2505 33.8423C58.2035 33.3805 58.2181 33.0514 58.2959 32.8057C58.3641 32.5745 58.5931 32.3428 59.2927 32.5398C59.7824 32.6848 60.1569 32.9065 60.4088 33.1992C60.6701 33.5037 60.8006 33.807 60.7933 34.1014C60.7882 34.369 60.678 34.8436 59.9923 35.0132C59.8552 35.0473 59.7144 35.0648 59.5731 35.0653H59.5726ZM58.8136 33.0234C58.7733 33.1913 58.7705 33.4477 58.8046 33.7863C58.8477 34.2067 58.9457 34.3074 58.986 34.3309C59.1133 34.4132 59.2565 34.4682 59.4062 34.4921C59.556 34.5161 59.7091 34.5087 59.8558 34.4703C60.1815 34.3897 60.2285 34.2402 60.2313 34.0908C60.2341 33.9414 60.1479 33.755 59.9817 33.5636C59.8015 33.3542 59.5166 33.1908 59.1354 33.0772C59.0315 33.0436 58.9233 33.0255 58.8142 33.0234H58.8136Z" fill="white"/>
<path d="M60.51 34.0965C60.5038 34.4324 60.3035 34.6478 59.9217 34.7424C59.74 34.7898 59.5504 34.7994 59.3648 34.7705C59.1791 34.7416 59.0014 34.6749 58.8426 34.5745C58.6641 34.4693 58.5661 34.2191 58.5253 33.8167C58.4844 33.4142 58.4911 33.1042 58.56 32.8898C58.6053 32.7308 58.8219 32.7012 59.2137 32.8114C59.6492 32.9407 59.9772 33.1333 60.1932 33.384C60.4092 33.6348 60.5145 33.8732 60.51 34.0965Z" fill="white"/>
<path d="M59.5725 35.0653C59.2631 35.0636 58.9603 34.9756 58.6982 34.8112C58.3624 34.6136 58.2807 34.1636 58.2505 33.8424C58.2035 33.3817 58.218 33.0521 58.2958 32.8063C58.3518 32.6194 58.5074 32.4968 58.7257 32.4705C58.8745 32.452 59.0615 32.475 59.2932 32.541C59.783 32.6866 60.1568 32.9076 60.4087 33.2004C60.6695 33.5043 60.8005 33.8077 60.7932 34.1026C60.7882 34.3702 60.6774 34.8448 59.9923 35.0144C59.8549 35.0483 59.714 35.0654 59.5725 35.0653ZM58.8135 33.0235C58.7732 33.1914 58.7704 33.4478 58.8051 33.7858C58.8477 34.2067 58.9456 34.3075 58.9859 34.331C59.1134 34.4131 59.2565 34.4678 59.4062 34.4917C59.556 34.5156 59.709 34.5081 59.8557 34.4698C60.1809 34.3892 60.2285 34.2398 60.2313 34.0903C60.2346 33.9397 60.1479 33.7578 59.9816 33.5642C59.8014 33.3543 59.5165 33.1909 59.1354 33.0772C59.0313 33.0436 58.9229 33.0255 58.8135 33.0235Z" fill="white"/>
<path d="M60.1396 38.9349C60.031 39.4946 59.576 39.69 58.8316 39.5735C58.0872 39.4571 57.7071 39.2635 57.6763 38.9467C57.6405 38.645 57.6987 38.2806 57.8398 37.844C57.9808 37.4075 58.151 37.1774 58.3748 37.1657C58.8109 37.1483 59.243 37.3336 59.6471 37.7254C60.0512 38.1172 60.2169 38.5291 60.1396 38.9349Z" fill="white"/>
<path d="M59.2066 39.8864C59.0664 39.8858 58.9264 39.8742 58.7879 39.8517C58.1723 39.7577 57.4575 39.5719 57.3976 38.978C57.3584 38.6422 57.4161 38.2459 57.5728 37.7596C57.6887 37.3974 57.8969 36.9121 58.3603 36.8886C58.8881 36.8674 59.3851 37.0829 59.8424 37.5273C60.4346 38.1043 60.4799 38.6405 60.4139 38.9892C60.3456 39.3418 60.0949 39.8864 59.2066 39.8864ZM58.4303 37.4444H58.3861C58.376 37.4444 58.254 37.464 58.1062 37.9275C57.9741 38.3377 57.9243 38.659 57.9545 38.912V38.9181C57.9601 38.9741 58.0418 39.1678 58.8736 39.2954C59.7562 39.4331 59.8324 39.0469 59.8643 38.8807C59.9202 38.5706 59.7842 38.2487 59.4517 37.9247C59.1193 37.6006 58.7795 37.4444 58.4303 37.4444Z" fill="white"/>
<path d="M32.5647 49.7995C32.0882 49.7988 31.613 49.7529 31.1452 49.6624C29.2937 49.3081 27.8776 48.5021 26.8164 47.1997C25.8862 46.0573 25.336 44.681 24.8015 43.35C24.7237 43.1552 24.6464 42.961 24.5675 42.7685C24.4556 42.4948 24.3436 42.2272 24.2351 41.9686C23.1985 39.4992 22.3796 37.5469 23.7078 34.1109C24.8832 31.0638 26.8707 28.9414 29.7784 27.6227C32.2104 26.5195 34.8214 26.1792 37.2869 25.9251C43.5126 25.2837 48.007 24.982 57.9005 26.196C60.4902 26.5139 62.728 27.1515 64.5498 28.0906C66.1545 28.9179 67.4452 29.9808 68.3861 31.2497C69.0915 32.1889 69.5995 33.2611 69.8796 34.4018C70.1597 35.5425 70.2061 36.7281 70.0159 37.8872C69.3644 41.6183 67.6652 45.1221 67.6467 45.1568L67.6338 45.1803C66.2345 47.4605 64.6674 48.862 62.8444 49.4665C61.3673 49.9557 59.7341 49.9031 57.8523 49.3059C57.1157 49.0719 56.5392 48.7506 55.9292 48.4103C55.2715 48.0437 54.5909 47.6648 53.645 47.3665C48.3378 45.6924 45.7117 46.0943 42.3876 46.603C42.1542 46.6383 41.918 46.6747 41.6767 46.7105C40.245 46.9249 38.9655 47.5702 37.7285 48.1937C36.1613 48.9857 34.5477 49.7995 32.5647 49.7995ZM46.2988 25.9246C43.1465 25.9246 40.4655 26.1602 37.3468 26.4843C32.0296 27.0317 26.6379 28.0878 24.2323 34.3146C22.9852 37.5425 23.7655 39.4007 24.7533 41.7543C24.8625 42.014 24.9772 42.2832 25.0892 42.5591C25.1687 42.7534 25.2465 42.9509 25.3248 43.1446C26.3541 45.7193 27.4187 48.3818 31.2516 49.1156C33.7277 49.5897 35.5501 48.6678 37.48 47.6973C38.7567 47.053 40.0765 46.387 41.5978 46.1597C41.8381 46.1224 42.0741 46.0866 42.3058 46.0523C45.7027 45.5329 48.3854 45.1226 53.8168 46.8359C54.817 47.1516 55.5228 47.545 56.2051 47.9251C56.79 48.2508 57.3424 48.5587 58.0247 48.7753C60.4488 49.5449 64.0315 49.9798 67.153 44.9026C67.2605 44.6788 68.8489 41.3384 69.468 37.7943C69.6443 36.7869 69.848 34.1601 67.9394 31.5855C66.0241 29.0013 62.5298 27.3317 57.8355 26.7546C52.9571 26.1524 49.3996 25.9246 46.2988 25.9246Z" fill="white"/>
<path d="M81.3132 29.5726C81.2556 29.6215 81.1931 29.6644 81.1268 29.7008C81.0702 29.7481 81.0091 29.7897 80.9444 29.825C80.8876 29.8724 80.8265 29.9141 80.7619 29.9498C80.7052 29.9972 80.6441 30.039 80.5794 30.0747C80.5227 30.1218 80.4616 30.1635 80.397 30.1989C80.3401 30.2461 80.2791 30.2879 80.2145 30.3237C80.1577 30.3709 80.0966 30.4127 80.032 30.4486C79.9753 30.4957 79.9142 30.5373 79.8496 30.5728C79.7928 30.62 79.7317 30.6618 79.6671 30.6976C79.6103 30.7448 79.5492 30.7866 79.4846 30.8224C79.4279 30.8696 79.3668 30.9112 79.3022 30.9467C79.2454 30.9939 79.1843 31.0357 79.1197 31.0715C79.0629 31.1187 79.0018 31.1605 78.9372 31.1963C78.8804 31.2436 78.8191 31.2852 78.7542 31.3206C78.6976 31.368 78.6365 31.4098 78.5717 31.4454C78.5151 31.4928 78.454 31.5346 78.3893 31.5702C78.3328 31.6176 78.2717 31.6593 78.2068 31.6945C78.1502 31.7419 78.0891 31.7837 78.0244 31.8193C77.9677 31.8667 77.9066 31.9085 77.8419 31.9441C77.7845 31.9922 77.7225 32.0344 77.6566 32.07C77.4753 32.2223 77.1479 32.3639 76.6788 32.5027C76.1656 32.6549 75.6282 32.7859 75.0691 32.9006C74.5099 33.0154 74.0056 33.1055 73.5478 33.1676C73.09 33.2297 72.8263 33.2297 72.7446 33.157C72.3198 32.9219 71.9935 32.267 71.7047 31.1767C71.4159 30.0864 71.0795 29.2827 70.7532 28.77C70.6738 28.6505 70.5798 28.5415 70.4733 28.4453L70.452 28.4616C70.4186 28.4867 70.3826 28.5081 70.3446 28.5254C70.32 28.5467 70.2948 28.5674 70.2696 28.5864C70.2361 28.6113 70.2001 28.6325 70.1621 28.6496C70.1375 28.6715 70.1123 28.6922 70.0871 28.7106C70.0537 28.7357 70.0177 28.7571 69.9796 28.7745C69.955 28.7963 69.9298 28.817 69.9046 28.8355C69.8712 28.8606 69.8352 28.8819 69.7972 28.8993C69.7726 28.9205 69.7474 28.9413 69.7222 28.9603C69.6888 28.9852 69.6527 29.0064 69.6147 29.0235C69.5901 29.0454 69.5649 29.0661 69.5397 29.0845C69.5063 29.1096 69.4703 29.131 69.4323 29.1483C69.4076 29.1702 69.3824 29.1909 69.3572 29.2094C69.3238 29.2344 69.2878 29.2558 69.2498 29.2732C69.2246 29.2944 69.2 29.3151 69.1748 29.3342C69.1423 29.3582 69.1077 29.379 69.0712 29.3963C69.0444 29.4181 69.0181 29.4394 68.9923 29.4584C68.7293 29.6554 68.3335 29.6101 67.799 29.3381C67.1889 29.0258 66.515 28.6435 65.769 28.2024C65.0229 27.7614 64.5561 27.4748 64.382 27.3136C64.3507 27.287 64.3228 27.2565 64.2992 27.2229C63.9963 27.2493 63.5072 27.167 62.8299 26.9851C61.8224 26.7203 60.7237 26.3895 59.5181 26.0151C58.3125 25.6406 57.1634 25.2875 56.0658 24.9393C54.9682 24.5912 54.2624 24.3203 53.9602 24.0651C53.8757 23.9979 53.8264 23.8104 53.8108 23.5014C53.7651 23.6139 53.7051 23.72 53.6322 23.8171C53.4553 23.9895 52.7473 23.985 51.5053 23.882C50.2633 23.7791 49.3935 23.6833 48.8982 23.5249C48.6973 23.4617 48.5568 22.7414 48.456 21.3605C48.3553 19.9797 48.2976 18.5872 48.2965 17.1801C48.1336 17.348 47.842 17.6396 47.4351 18.07C47.0282 18.5004 46.6028 18.9476 46.1618 19.4133C45.7207 19.879 45.3077 20.2949 44.9198 20.6626C44.5319 21.0303 44.2515 21.2223 44.0657 21.2268C43.8798 21.2313 43.5944 21.0706 43.1975 20.7449C42.8007 20.4191 42.3798 20.0486 41.9287 19.6333C41.4776 19.218 41.0432 18.8167 40.6268 18.4282C40.2641 18.0924 39.9926 17.8467 39.8203 17.6922V21.0275C39.8203 21.2318 39.8203 21.4367 39.8203 21.6432C39.8135 23.0016 39.7301 23.7287 39.5505 23.8261C39.3115 23.9498 38.9477 24.0533 38.459 24.1468C37.9704 24.2403 37.4728 24.3231 36.9657 24.3953C36.5075 24.4637 36.0457 24.5066 35.5827 24.524C35.5898 24.5842 35.5926 24.6448 35.5911 24.7054C35.5642 24.9181 35.3639 25.1224 34.9939 25.3255C34.59 25.544 34.1699 25.7311 33.7373 25.8852C33.2882 26.0509 32.8302 26.1916 32.3655 26.3067C31.9177 26.4186 31.6015 26.464 31.414 26.4394C31.1492 26.4097 30.711 26.23 30.0836 25.9149C29.4561 25.5998 28.7873 25.26 28.0764 24.8979C27.3656 24.5358 26.6945 24.2033 26.0699 23.8904C25.4452 23.5776 25.0333 23.3822 24.8514 23.2804C25.4021 24.6412 25.8643 25.8145 26.2378 26.8004C26.6106 27.7871 26.746 28.362 26.6363 28.5304C26.305 29.0202 25.5757 29.5256 24.4534 30.1183C23.7851 30.4737 23.2696 30.6999 22.8991 30.7821C22.9437 30.8869 22.9737 30.9972 22.9881 31.1101C23.0626 31.4678 22.5751 32.0616 21.5687 32.9616C20.5623 33.8617 19.7871 34.4398 19.1827 34.6301C18.9784 34.6934 18.5026 34.4544 17.7453 33.9221C17.6664 33.8661 17.5847 33.8135 17.4985 33.7542C17.4123 33.6949 17.3384 33.6462 17.2522 33.5863C17.166 33.5264 17.0916 33.4777 17.0054 33.4184C16.9192 33.359 16.8447 33.3098 16.7585 33.2505C16.6724 33.1911 16.5979 33.1419 16.5117 33.0825C16.4255 33.0232 16.3511 32.974 16.2649 32.9146C16.1787 32.8553 16.1048 32.8061 16.0181 32.7467C15.9313 32.6874 15.858 32.6381 15.7718 32.5788C15.6923 32.5262 15.6111 32.4702 15.5249 32.4109C15.4388 32.3516 15.3643 32.3023 15.2781 32.243C15.1919 32.1837 15.1175 32.1344 15.0313 32.0751C14.9451 32.0157 14.8706 31.9665 14.7845 31.9072C14.6983 31.8478 14.6244 31.7986 14.5382 31.7392C14.452 31.6799 14.3775 31.6307 14.2913 31.5713C14.2052 31.512 14.1307 31.4627 14.0445 31.4034C13.9583 31.3441 13.8839 31.2948 13.7977 31.2355C13.7115 31.1762 13.637 31.1269 13.5509 31.0676C13.4647 31.0083 13.3908 30.959 13.304 30.8997C13.2251 30.8471 13.1439 30.7911 13.0578 30.7318C12.99 30.6864 12.9217 30.64 12.8495 30.5896C13.4423 30.9814 13.824 31.156 14.0014 31.1012C14.6059 30.9114 15.3833 30.3388 16.3875 29.4332C17.3916 28.5276 17.8813 27.9394 17.8069 27.5817C17.7873 27.289 17.4218 26.5485 16.7205 25.3507C16.0192 24.1529 15.1763 22.8001 14.1878 21.2934C13.1994 19.7866 12.1678 18.2816 11.0814 16.7849C10.0075 15.3058 9.06534 14.1325 8.25488 13.2649C8.33749 13.2935 8.41224 13.341 8.47317 13.4037L8.50227 13.4345C8.58468 13.4629 8.65926 13.5102 8.72 13.5727L8.74854 13.6035C8.83121 13.632 8.906 13.6795 8.96683 13.7423L8.99538 13.7726C9.07798 13.8012 9.15274 13.8487 9.21366 13.9114L9.24221 13.9422C9.32474 13.9703 9.39938 14.0177 9.45994 14.0804L9.48904 14.1112C9.57151 14.1394 9.64611 14.1868 9.70677 14.2494L9.73587 14.2802C9.81838 14.3087 9.89298 14.3562 9.9536 14.419C9.96311 14.4291 9.97263 14.4397 9.98271 14.4498C10.0651 14.4782 10.1397 14.5256 10.2004 14.5881L10.229 14.6188C10.3116 14.6471 10.3864 14.6945 10.4473 14.7571L10.4758 14.7879C10.5585 14.8163 10.6333 14.8639 10.6941 14.9267L10.7226 14.9569C10.805 14.9856 10.8796 15.0331 10.9404 15.0957L10.9695 15.1265C11.0519 15.1548 11.1265 15.2021 11.1872 15.2647L11.2163 15.2955C11.2987 15.3239 11.3733 15.3713 11.434 15.4338L11.4626 15.4646C11.5452 15.4932 11.6199 15.5407 11.6809 15.6034L11.7094 15.6342C11.7894 15.6617 11.862 15.7073 11.9215 15.7674L11.8656 15.6616C11.8253 15.5877 11.7861 15.5138 11.7475 15.4411C11.7088 15.3683 11.668 15.2933 11.6294 15.2205C11.5908 15.1478 11.5493 15.0728 11.5107 15C11.4721 14.9272 11.4312 14.8522 11.3926 14.7795C11.354 14.7067 11.3131 14.6317 11.2745 14.559C11.2359 14.4862 11.195 14.4112 11.1564 14.3384C11.1178 14.2657 11.0764 14.1907 11.0378 14.1145C10.9991 14.0384 10.9583 13.9673 10.9202 13.8946C10.8822 13.8218 10.8402 13.7463 10.8016 13.6707C10.7629 13.5951 10.7288 13.5358 10.6935 13.4692C11.0842 14.189 11.5546 14.9787 12.1046 15.8385C13.112 17.4191 14.1507 18.9489 15.2205 20.4281C16.2903 21.9072 17.2643 23.1981 18.1427 24.3007C19.0248 25.4011 19.5946 26.0134 19.8616 26.1321C20.1582 26.333 20.8517 26.099 21.9706 25.503C23.0894 24.9069 23.8176 24.4048 24.1534 23.9151C24.2654 23.7471 24.1277 23.1718 23.7555 22.185C23.3833 21.1982 22.9193 20.0256 22.3685 18.665C22.5504 18.7669 22.9613 18.9655 23.587 19.2751C24.2128 19.5846 24.8827 19.9187 25.5936 20.2825C26.3044 20.6464 26.9643 20.9688 27.5912 21.2839C28.218 21.599 28.6546 21.7787 28.9216 21.8083C29.1097 21.8329 29.4253 21.7859 29.8731 21.6757C30.3378 21.5606 30.7958 21.4199 31.2449 21.2542C31.6775 21.0999 32.0975 20.9128 32.5015 20.6945C32.8715 20.4908 33.0718 20.2865 33.0993 20.0738C33.1105 19.832 32.9638 19.0305 32.6661 17.667C32.3683 16.3036 31.9944 14.7381 31.5466 12.9694C31.0989 11.2007 30.6142 9.4113 30.0914 7.60232C29.5865 5.85491 29.1128 4.42504 28.6703 3.31271C28.7005 3.34316 28.7249 3.3788 28.7425 3.41793L28.7923 3.5366C28.8208 3.56637 28.8439 3.60084 28.8606 3.63847C28.8774 3.67709 28.8936 3.71738 28.9104 3.75712C28.9389 3.78689 28.962 3.82136 28.9787 3.85899C28.9955 3.89817 29.0117 3.93846 29.0285 3.9782C29.0574 4.00738 29.0806 4.04175 29.0968 4.07951C29.1136 4.11869 29.1304 4.15899 29.1466 4.19873C29.1754 4.22804 29.1985 4.26238 29.2149 4.30004C29.2317 4.33922 29.2485 4.37952 29.2653 4.41926C29.2937 4.44883 29.3168 4.4831 29.3335 4.52056L29.3834 4.63978C29.4119 4.66945 29.4351 4.70394 29.4516 4.74166C29.4684 4.78028 29.4847 4.82057 29.5015 4.86031C29.5302 4.88983 29.5534 4.92435 29.5697 4.96218C29.5865 5.0008 29.6033 5.04109 29.6196 5.08083C29.6485 5.11021 29.6717 5.14477 29.6878 5.1827C29.7046 5.22132 29.7214 5.26163 29.7382 5.30136C29.7667 5.33114 29.7898 5.36559 29.8065 5.40323L29.8563 5.52245C29.8849 5.55192 29.908 5.58622 29.9246 5.62375C29.9414 5.66293 29.9576 5.70323 29.9744 5.74297C30.003 5.77239 30.0262 5.8067 30.0427 5.84428C30.0595 5.88346 30.0757 5.92376 30.0925 5.9635C30.1213 5.99281 30.1444 6.02714 30.1608 6.0648C30.1776 6.10398 30.1944 6.14428 30.2106 6.18402C30.2395 6.2134 30.2627 6.24796 30.2789 6.28589C30.2957 6.32451 30.3125 6.36481 30.3293 6.40455C30.3563 6.4328 30.3784 6.46533 30.3948 6.50082C30.3948 6.46052 30.3948 6.42321 30.3948 6.38888C30.3948 6.30772 30.3948 6.23383 30.3948 6.16835C30.3948 6.08663 30.3948 6.01331 30.3948 5.94446C30.3948 5.86331 30.3948 5.78943 30.3948 5.72394C30.3948 5.64278 30.3948 5.5689 30.3948 5.50341C30.3948 5.42225 30.3948 5.34838 30.3948 5.28289C30.3948 5.20173 30.3948 5.12785 30.3948 5.06237C30.3948 4.98121 30.3948 4.90733 30.3948 4.84185C30.3948 4.76069 30.3948 4.6868 30.3948 4.62131C30.3948 4.54015 30.3948 4.46627 30.3948 4.40079C30.3948 4.31907 30.3948 4.24575 30.3948 4.1797C30.3948 4.09855 30.3948 4.02467 30.3948 3.95918C30.3948 3.87802 30.3948 3.80413 30.3948 3.73865C30.3948 3.65749 30.3948 3.58361 30.3948 3.51812C30.3948 3.43697 30.3948 3.36309 30.3948 3.2976C30.3948 3.22036 30.3948 3.14984 30.3948 3.08659C30.4127 3.60899 30.5392 4.45396 30.7742 5.62152C31.1252 7.35997 31.5645 9.2322 32.0806 11.2427C32.5966 13.2532 33.1278 15.1131 33.6612 16.8269C34.1946 18.5407 34.5819 19.5292 34.8366 19.7894C34.9133 19.8728 35.1601 19.9014 35.5749 19.8913C36.0379 19.8742 36.4996 19.8312 36.9579 19.7626C37.465 19.6906 37.9628 19.6079 38.4512 19.5146C38.9398 19.4206 39.3036 19.317 39.5426 19.1939C39.7223 19.0948 39.8057 18.3683 39.8124 17.011C39.8191 15.6538 39.7995 14.3144 39.7425 12.9974C39.907 13.1446 40.2031 13.4088 40.6201 13.7972C41.0371 14.1856 41.472 14.5881 41.9248 15.0022C42.3776 15.4164 42.7974 15.7858 43.1936 16.1144C43.5899 16.4429 43.8754 16.6019 44.0617 16.5957C44.2481 16.5896 44.528 16.3998 44.9159 16.0316C45.3037 15.6633 45.7162 15.248 46.1578 14.7823C46.5995 14.3166 47.0248 13.8711 47.4312 13.439C47.8375 13.0069 48.1297 12.7114 48.2926 12.549C48.2926 13.9561 48.3486 15.3476 48.4521 16.7301C48.5556 18.1126 48.6933 18.8312 48.8943 18.8939C49.3896 19.0523 50.2566 19.1503 51.5014 19.251C52.7462 19.3518 53.4531 19.3585 53.6283 19.1866C53.8651 18.9017 54.179 17.9038 54.5798 16.1928C54.9806 14.4817 55.3707 12.6173 55.7418 10.5957C56.1128 8.57398 56.4134 6.68497 56.6311 4.92412C56.7621 3.86814 56.8321 3.05879 56.841 2.49609C56.841 2.5599 56.841 2.62875 56.841 2.70096C56.841 2.77316 56.841 2.84312 56.841 2.92148C56.841 2.98976 56.841 3.06364 56.841 3.142C56.841 3.21085 56.841 3.28416 56.841 3.36252C56.841 3.43137 56.841 3.50469 56.841 3.58305C56.841 3.65189 56.841 3.72577 56.841 3.80693C56.841 3.87521 56.841 3.94911 56.841 4.02747C56.841 4.09575 56.841 4.16963 56.841 4.24799C56.841 4.31627 56.841 4.39015 56.841 4.46851C56.841 4.53679 56.841 4.61067 56.841 4.68903C56.841 4.75788 56.841 4.83121 56.841 4.90957C56.841 4.97841 56.841 5.05173 56.841 5.13009C56.841 5.19893 56.841 5.27281 56.841 5.35061C56.841 5.41946 56.841 5.49334 56.841 5.5745C56.841 5.64278 56.841 5.71667 56.841 5.79503C56.841 5.86331 56.841 5.93719 56.841 6.01555C56.841 6.08383 56.841 6.15772 56.841 6.23608C56.841 6.30436 56.841 6.37824 56.841 6.4566C56.841 6.52544 56.841 6.59877 56.841 6.67713C56.841 6.7247 56.841 6.77507 56.841 6.82713C56.8567 6.79634 56.8724 6.76612 56.888 6.73701C56.8931 6.72526 56.8976 6.71351 56.9032 6.70231C56.9311 6.64186 56.9591 6.58533 56.9882 6.5344C56.9933 6.52321 56.9977 6.51145 57.0033 6.4997C57.0313 6.43981 57.0593 6.38272 57.0884 6.33178L57.1035 6.29708C57.1315 6.23663 57.1595 6.1801 57.1886 6.12917L57.2037 6.09447C57.2317 6.03458 57.2597 5.97749 57.2888 5.92656L57.3039 5.89185C57.3319 5.83141 57.3599 5.77487 57.389 5.72114L57.4041 5.68644C57.4321 5.62599 57.4601 5.56946 57.4892 5.51853L57.5043 5.48382C57.5323 5.42393 57.5603 5.36685 57.5894 5.31592L57.6045 5.28121C57.6325 5.22076 57.6604 5.16423 57.6895 5.11049C57.6951 5.0993 57.6996 5.08755 57.7047 5.0758C57.7326 5.01591 57.7606 4.95882 57.7897 4.90789C57.7953 4.89613 57.7998 4.88437 57.8054 4.87318C57.8328 4.81273 57.8614 4.7562 57.8899 4.70246C57.8955 4.69127 57.9 4.67896 57.9056 4.66777C57.933 4.60732 57.9616 4.55079 57.9907 4.49706C57.9957 4.48586 58.0002 4.47412 58.0058 4.46292C58.0338 4.40247 58.0618 4.34594 58.0909 4.29501C58.0959 4.28325 58.1004 4.27149 58.106 4.2603C58.134 4.19985 58.1619 4.14332 58.191 4.08959C58.1961 4.07839 58.2006 4.06664 58.2062 4.05489C58.2341 3.995 58.2621 3.93791 58.2912 3.88698L58.3063 3.85227C58.3343 3.79182 58.3623 3.73529 58.3914 3.68436L58.4065 3.64966C58.4345 3.58977 58.4625 3.53268 58.4916 3.48175L58.5067 3.44704C58.5347 3.38659 58.5627 3.33006 58.5918 3.27913L58.6069 3.24443C58.6349 3.18398 58.6629 3.12745 58.692 3.07652L58.7071 3.04181C58.7334 2.98584 58.7631 2.92988 58.7871 2.88118C58.5737 3.36582 58.4147 3.87266 58.3131 4.3924C58.0407 5.43719 57.741 6.79914 57.4142 8.47827C57.0873 10.1574 56.7981 11.8022 56.5466 13.4127C56.2936 15.0429 56.1071 16.4735 55.9869 17.7045C55.8643 18.9359 55.8862 19.6187 56.0653 19.7609C56.3675 20.0161 57.0727 20.2881 58.1703 20.6352C59.2679 20.9822 60.417 21.3365 61.6226 21.7109C62.8282 22.0854 63.9275 22.4156 64.935 22.6809C65.9425 22.9462 66.533 23.0055 66.7143 22.8001C67.1307 22.3093 67.616 21.426 68.1511 20.1404C68.6862 18.8547 68.8927 18.0812 68.7791 17.8249C68.7337 17.6631 68.5328 17.4756 68.1757 17.2719C68.4701 16.6431 68.7612 16.0351 69.0488 15.4478C68.8171 15.6526 68.1824 15.5424 67.1302 15.1606L66.6628 14.9927L66.604 15.1103C66.5716 15.1802 66.538 15.248 66.5038 15.3151C66.4697 15.3823 66.4378 15.4534 66.4037 15.5205C66.3695 15.5877 66.3376 15.6588 66.3035 15.7254C66.2693 15.792 66.2374 15.8636 66.2033 15.9308C66.1691 15.998 66.1372 16.0691 66.1031 16.1362C66.069 16.2034 66.0371 16.2739 66.0024 16.3411C65.9973 16.3528 65.9917 16.364 65.9861 16.3758C65.2378 16.1004 64.4346 15.8105 63.5743 15.5138C63.6079 15.4209 63.6482 15.309 63.6952 15.178C63.7428 15.0465 63.7842 14.9306 63.8206 14.8299C64.3053 14.986 64.7497 15.1248 65.1538 15.2418C65.5579 15.3588 65.8434 15.4287 66.0107 15.4433C66.2309 15.4974 66.4548 15.3271 66.6824 14.9323C66.924 14.5027 67.1163 14.0472 67.2555 13.5744C67.403 13.0966 67.5005 12.6048 67.5466 12.1069C67.5863 11.639 67.5427 11.3574 67.4218 11.2673C66.8962 10.9236 66.1753 10.5688 65.2568 10.2251C65.2814 10.1294 65.3128 10.018 65.3481 9.8893C65.3833 9.76057 65.418 9.65254 65.451 9.55907C66.8984 10.0192 68.1578 10.463 69.238 10.8531C70.3183 11.2432 70.958 11.3518 71.1746 11.1251C71.519 10.7483 71.8825 10.18 72.2649 9.42027C72.2358 9.48071 72.209 9.53948 72.1782 9.59769C72.1446 9.66765 72.111 9.73594 72.0774 9.8031C72.0439 9.87027 72.0108 9.9408 71.9778 10.008C71.9448 10.0751 71.9106 10.1462 71.8771 10.2134C71.8435 10.2805 71.8105 10.3516 71.7769 10.4182C71.7433 10.4848 71.7103 10.5565 71.6767 10.6236C71.6431 10.6908 71.6101 10.7619 71.5765 10.8285C71.5429 10.8951 71.5099 10.9667 71.4763 11.0339C71.4427 11.1011 71.4091 11.1722 71.3761 11.2393C71.356 11.2807 71.3364 11.3222 71.3162 11.3625C71.4946 11.1386 71.6463 10.9985 71.7713 10.9421C71.8257 10.8919 71.8872 10.8498 71.9537 10.8173C72.008 10.767 72.0695 10.7252 72.1362 10.693C72.1905 10.6426 72.252 10.6006 72.3187 10.5682C72.3731 10.518 72.4346 10.4759 72.5011 10.4434C72.5554 10.3931 72.6169 10.3513 72.6836 10.3192C72.7379 10.2687 72.7994 10.2267 72.8661 10.1943C72.9205 10.1441 72.982 10.1021 73.0485 10.0695C73.1028 10.0193 73.1643 9.97739 73.231 9.94527C73.2853 9.89486 73.3468 9.85279 73.4135 9.82045C73.4678 9.77019 73.5293 9.72831 73.5959 9.6962C73.6501 9.6456 73.7116 9.60351 73.7784 9.57138C73.8327 9.52097 73.8942 9.47891 73.9609 9.44657C74.0152 9.39631 74.0767 9.35443 74.1433 9.32232C74.1975 9.27171 74.259 9.22962 74.3258 9.19749C74.3801 9.14708 74.4416 9.10502 74.5083 9.07268C74.5626 9.02242 74.6241 8.98054 74.6907 8.94843C74.7449 8.89783 74.8064 8.85574 74.8732 8.82361C74.9276 8.77338 74.9891 8.73134 75.0557 8.6988C75.11 8.64854 75.1715 8.60666 75.2381 8.57454C75.2921 8.52397 75.3534 8.48188 75.42 8.44972C75.0842 8.74824 74.6103 9.47717 73.9984 10.6365C73.1689 12.2065 72.3192 13.9617 71.4383 15.8927C70.5573 17.8237 69.7664 19.6338 69.0656 21.3186C68.3649 23.0033 68.0123 23.9716 68.0302 24.2341C68.0302 24.4401 68.0923 24.5957 68.2171 24.7026C68.3906 24.866 68.8569 25.1503 69.6035 25.5919C70.3502 26.0336 71.0235 26.4147 71.6341 26.7276C72.1687 26.9991 72.5644 27.045 72.8274 26.8479C73.0905 26.6509 73.3905 26.3101 73.7275 25.8237C73.9631 25.5679 74.2547 25.6776 74.5877 26.1595C74.9168 26.6694 75.251 27.4731 75.5392 28.5634C75.8275 29.6538 76.1549 30.3086 76.5797 30.5437C76.6609 30.6165 76.9268 30.617 77.3824 30.5543C77.838 30.4916 78.3451 30.4021 78.9042 30.2879C79.4634 30.1737 80.0001 30.0416 80.5134 29.8894C80.7907 29.8131 81.0589 29.7069 81.3132 29.5726Z" fill="white"/>
<path d="M13.9249 31.3693C13.6557 31.3693 13.2785 31.1936 12.6885 30.8012L12.6779 30.7945C12.5475 30.7072 12.4103 30.612 12.2704 30.5113L12.1344 30.4133C12.0947 30.3848 12.0538 30.354 12.0113 30.3226L11.9934 30.3098C11.8506 30.204 11.6973 30.0859 11.5394 29.9672C10.2566 28.9821 8.85731 27.8549 7.38136 26.6174C5.72797 25.2315 4.3231 24.0153 3.08782 22.8998C1.67344 21.6248 0.843389 20.7981 0.4751 20.2988C0.0877812 19.785 0.230509 18.9997 0.900481 17.9676C1.57203 16.9535 2.37555 16.0333 3.28988 15.2312C4.24139 14.3827 5.22983 13.6998 6.2222 13.2017C7.303 12.661 8.02279 12.6017 8.42242 13.0203L8.45208 13.0517C9.2603 13.9103 10.1922 15.0706 11.3021 16.5991C12.3471 18.0393 13.3658 19.5175 14.4158 21.1188C15.3796 22.588 16.2343 23.9571 16.9557 25.1879C17.8933 26.7892 18.0561 27.275 18.0785 27.523C18.1614 27.9903 17.7483 28.5629 16.5673 29.6202C15.4557 30.6227 14.6878 31.1555 14.0783 31.3469C14.0286 31.362 13.9769 31.3695 13.9249 31.3693ZM13.0036 30.3389C13.682 30.7866 13.8846 30.8107 13.9204 30.8102C14.4404 30.6422 15.1641 30.1335 16.194 29.2043C17.4589 28.0698 17.5474 27.7166 17.5267 27.6176L17.5216 27.579C17.5127 27.4452 17.3643 26.9935 16.4733 25.4711C15.7563 24.2481 14.9061 22.8875 13.9479 21.4255C12.9023 19.8315 11.8887 18.3605 10.8488 16.9282C9.75341 15.417 8.8338 14.2763 8.04517 13.4357L8.01719 13.4054C7.82465 13.2045 7.24703 13.3148 6.47295 13.7021C5.52144 14.1784 4.57889 14.8332 3.66153 15.6493C2.78364 16.4181 2.01194 17.3003 1.36672 18.2727C0.853463 19.0635 0.695066 19.6641 0.918949 19.9641C1.26149 20.4287 2.09098 21.2514 3.45779 22.4828C4.68916 23.5933 6.08843 24.805 7.73565 26.187C9.20601 27.4183 10.5986 28.5416 11.8775 29.5217C12.032 29.6415 12.182 29.754 12.3225 29.8575L12.3409 29.8715C12.3812 29.9012 12.4204 29.9303 12.4596 29.9583C12.4988 29.9863 12.5492 30.0238 12.5917 30.0534C12.7277 30.1514 12.8587 30.2426 12.9835 30.3254L13.0036 30.3389Z" fill="white"/>
<path d="M20.129 26.4689C19.9854 26.4734 19.8435 26.4369 19.7199 26.3637C19.4926 26.2517 19.0885 25.9215 17.9182 24.4606C17.0086 23.3261 16.0224 22.0192 14.987 20.5763C13.8754 19.0275 12.8243 17.4783 11.8627 15.9721C11.3069 15.1023 10.8295 14.3008 10.4433 13.5888C10.4377 13.5793 10.4326 13.5698 10.4276 13.5603C10.3884 13.4875 10.3492 13.4148 10.3112 13.3431C10.2339 13.1982 10.1606 13.056 10.0929 12.9211L10.0867 12.9099C10.0503 12.8366 10.0162 12.7672 9.98261 12.6983C9.96582 12.6653 9.94735 12.6278 9.93056 12.592C9.88914 12.5064 9.84772 12.4196 9.80798 12.3329L9.75705 12.2209L9.70891 12.1135C9.67701 12.0418 9.64679 11.9713 9.61656 11.9013C9.40891 11.4396 9.87683 10.9118 10.2468 10.5547C10.8145 10.0195 11.4344 9.54271 12.0972 9.13132C12.8348 8.66465 13.6083 8.25739 14.4105 7.91339C15.2036 7.57309 15.873 7.36711 16.4014 7.30107C17.1956 7.21599 18.32 7.48521 19.6589 8.0785C20.5813 8.48821 21.2983 8.84419 21.8361 9.1302C21.6089 8.63934 21.399 8.19213 21.2081 7.79417C20.9059 7.16394 20.7128 6.69994 20.6188 6.37587C20.4397 5.8671 20.7732 5.31243 21.6106 4.72585C22.4263 4.16625 23.3083 3.70979 24.2362 3.36687C24.827 3.14198 25.4333 2.95979 26.0502 2.82172C26.4045 2.74392 26.7532 2.68403 27.0868 2.64373L27.258 2.6247C27.3174 2.6191 27.37 2.61406 27.426 2.61071C28.2381 2.55473 28.7133 2.71033 28.8812 3.08142L28.8846 3.08982C28.8946 3.11277 28.9036 3.13628 28.9131 3.15978L28.9316 3.20623C29.3732 4.30718 29.8411 5.71877 30.3622 7.52328C30.8659 9.25838 31.3406 11.0187 31.8174 12.8965C32.2535 14.6114 32.6313 16.1949 32.9369 17.6031C33.3426 19.458 33.3846 19.9024 33.3762 20.082V20.105C33.3365 20.4111 33.0964 20.6826 32.6357 20.935C32.2195 21.1617 31.7865 21.3562 31.3406 21.5166C30.8824 21.6856 30.4153 21.8293 29.9413 21.947C29.4348 22.0718 29.1096 22.1149 28.8862 22.0852C28.5991 22.0528 28.1732 21.8877 27.4668 21.5334C26.9026 21.2513 26.3056 20.9492 25.6757 20.6272L25.4563 20.5153C24.7987 20.1794 24.1841 19.8749 23.5892 19.5794L23.452 19.5111L23.0457 19.3102L22.8968 19.2369C23.3446 20.3457 23.7072 21.2781 24.0073 22.0712C24.5143 23.4145 24.525 23.8271 24.3778 24.0532C24.0313 24.5653 23.3278 25.0825 22.0936 25.7357C21.1572 26.236 20.546 26.4689 20.129 26.4689ZM10.9296 13.3157L10.933 13.3219C11.3136 14.0232 11.7849 14.8146 12.3323 15.6726C13.2888 17.1704 14.3344 18.7107 15.4398 20.2511C16.4696 21.6862 17.4497 22.9852 18.3503 24.1131C19.4697 25.5123 19.8425 25.8095 19.9645 25.8638L19.9874 25.8739L20.0076 25.8879C20.0708 25.9304 20.3887 26.0105 21.8283 25.2437C22.9477 24.6521 23.6037 24.1802 23.8959 23.7644C23.9065 23.6989 23.9071 23.4011 23.4806 22.2711C23.1218 21.3196 22.669 20.1733 22.0964 18.7578L21.7975 18.0189L22.4921 18.4107C22.6248 18.4846 22.9041 18.6223 23.2903 18.8126L23.6983 19.0141L23.836 19.0824C24.4315 19.3785 25.0472 19.6846 25.7076 20.0205L25.9271 20.1324C26.5562 20.4526 27.1515 20.7541 27.7131 21.0369C27.9403 21.1488 28.6316 21.4981 28.9495 21.5334C29.0542 21.5468 29.282 21.5334 29.803 21.4074C30.258 21.2945 30.7065 21.1566 31.1463 20.9944C31.5657 20.8456 31.9729 20.6647 32.3643 20.4531C32.7404 20.246 32.8064 20.1016 32.8176 20.0507C32.8176 19.8901 32.7443 19.3516 32.3906 17.7313C32.0833 16.332 31.7072 14.7519 31.2712 13.0426C30.7937 11.1681 30.3197 9.41566 29.8193 7.68447C29.3027 5.89788 28.8409 4.50308 28.4071 3.42116L28.3875 3.37302L28.364 3.31426C28.3288 3.24598 28.0976 3.13236 27.4573 3.1749C27.4097 3.17826 27.3594 3.18217 27.3084 3.18721L27.15 3.20455C26.8332 3.24317 26.5024 3.2997 26.1655 3.37246C25.5753 3.50492 24.9955 3.67963 24.4304 3.89524C23.5474 4.22018 22.708 4.65314 21.9313 5.18425C21.3486 5.59228 21.0626 5.96001 21.1477 6.19173L21.1539 6.21075C21.2367 6.50068 21.4248 6.95125 21.7136 7.5507C22.0024 8.15015 22.3354 8.8677 22.7037 9.67424L23.0725 10.483L22.3069 10.0319C21.7835 9.72349 20.86 9.22255 19.4322 8.5884C17.8544 7.88932 16.9482 7.80481 16.4657 7.85518C16.0017 7.91115 15.3653 8.11097 14.631 8.42609C13.8564 8.75849 13.1093 9.15151 12.3966 9.60148C11.7659 9.99299 11.1758 10.4465 10.6352 10.9554C10.0929 11.4787 10.127 11.6685 10.1276 11.6702V11.6769C10.1567 11.7446 10.1863 11.8134 10.2177 11.884C10.2328 11.9187 10.249 11.9539 10.2647 11.9892L10.3128 12.0939C10.352 12.1795 10.3912 12.2618 10.4326 12.348C10.4494 12.3832 10.4645 12.4146 10.4808 12.4465L10.5619 12.611L10.5837 12.6547C10.6509 12.789 10.7242 12.9312 10.802 13.0773C10.8393 13.1497 10.8787 13.2228 10.9201 13.2967L10.9296 13.3157Z" fill="white"/>
<path d="M35.4079 20.1756C34.9865 20.1756 34.7632 20.1196 34.6367 19.9841C34.4413 19.7821 34.1234 19.2464 33.398 16.9113C32.8383 15.1063 32.3027 13.2229 31.8135 11.3142C31.2711 9.20246 30.8429 7.35933 30.5038 5.67909C30.267 4.50761 30.1372 3.63951 30.1187 3.09827C30.1081 2.79378 30.1316 2.58445 30.192 2.44061C30.272 2.24471 30.5032 1.93408 31.5706 1.52493C32.3805 1.22083 33.2164 0.991149 34.068 0.838727C34.957 0.672552 35.8592 0.586752 36.7636 0.582375H36.782C37.6664 0.582375 38.3084 0.706636 38.6906 0.951789C39.4787 1.47848 40.3423 2.2559 41.2614 3.26506C42.1312 4.22104 42.9724 5.23636 43.7661 6.28749C44.4909 5.20109 45.2611 4.13317 46.0609 3.1089C46.8977 2.03426 47.7036 1.20085 48.4564 0.630503C48.813 0.357364 49.455 0.190018 50.3628 0.133487C51.2778 0.0795595 52.1958 0.109353 53.1054 0.222486C53.9676 0.322256 54.8192 0.499082 55.6498 0.750848C56.7519 1.09563 56.9758 1.40682 57.0452 1.61111L57.0491 1.62288C57.0785 1.72972 57.0973 1.83921 57.1051 1.94974C57.1051 1.96038 57.1051 1.97214 57.1084 1.98445L57.1459 2.05944L57.1163 2.1199C57.1219 2.23184 57.123 2.36281 57.1208 2.50218C57.1112 3.07756 57.0396 3.90145 56.9086 4.96042C56.6971 6.67089 56.4049 8.53137 56.017 10.6476C55.6644 12.5686 55.2726 14.4537 54.8522 16.2576C54.306 18.5955 54.0267 19.1474 53.8448 19.3668L53.8241 19.3886C53.5806 19.6254 53.0102 19.6601 51.4772 19.5308C50.261 19.4323 49.3414 19.3321 48.8085 19.1614C48.4967 19.0645 48.312 18.6644 48.1721 16.7513C48.0848 15.5507 48.0327 14.3697 48.0171 13.2313C47.9051 13.348 47.7773 13.4816 47.6337 13.632C47.3456 13.938 47.0471 14.2523 46.7381 14.5751L46.3587 14.9747C45.8902 15.4673 45.4805 15.8792 45.106 16.2347C44.642 16.6751 44.3319 16.8666 44.0689 16.8755C43.8058 16.8845 43.4901 16.721 43.0138 16.3309C42.6271 16.013 42.2084 15.6458 41.7327 15.2081C41.2871 14.7977 40.8528 14.3956 40.4297 14.002C40.2882 13.8699 40.161 13.7525 40.0479 13.6499C40.0843 14.7061 40.0989 15.8126 40.0927 17.0121C40.0826 19.0522 39.899 19.3186 39.6785 19.4407L39.6712 19.4446C39.4127 19.5772 39.0421 19.6875 38.5043 19.791C38.0251 19.8834 37.5326 19.9651 36.9975 20.0412C36.5289 20.1115 36.0567 20.1554 35.5831 20.1728C35.5227 20.1744 35.4634 20.1756 35.4079 20.1756ZM35.0273 19.5823C35.0632 19.594 35.1925 19.6248 35.5691 19.6131C36.0219 19.5964 36.4734 19.5544 36.9214 19.4871C37.4464 19.4121 37.9289 19.3321 38.4013 19.2414C38.849 19.1552 39.1709 19.0645 39.3791 18.9655C39.425 18.8714 39.528 18.4942 39.5352 17.0098C39.5425 15.5647 39.5196 14.2561 39.4653 13.0096L39.4367 12.3458L39.9522 12.807C40.1235 12.9604 40.4112 13.2173 40.8136 13.5906C41.2345 13.9835 41.6681 14.3848 42.1144 14.7945C42.5817 15.2249 42.9931 15.5854 43.3715 15.8966C43.8629 16.2996 44.0252 16.3152 44.0521 16.3141C44.0689 16.3141 44.2295 16.2951 44.7237 15.8266C45.0915 15.4785 45.4939 15.0727 45.9551 14.5874L46.3351 14.1878C46.6415 13.8654 46.9389 13.5516 47.2273 13.2464C47.6124 12.8389 47.8945 12.5534 48.063 12.3827L48.5717 11.8667V12.5484C48.5717 13.88 48.6277 15.2798 48.7307 16.7093C48.8371 18.169 48.9686 18.5451 49.0234 18.6403C49.5165 18.7869 50.3813 18.8793 51.5231 18.9716C52.8832 19.0836 53.3142 19.0438 53.4317 18.9845C53.5548 18.8127 53.8235 18.2082 54.3071 16.13C54.7252 14.3389 55.1153 12.4589 55.4663 10.5469C55.853 8.44126 56.1429 6.59086 56.3534 4.89382C56.4816 3.85724 56.5515 3.05013 56.561 2.49546C56.561 2.33874 56.561 2.19994 56.5538 2.08296V2.0365C56.5538 2.02586 56.5538 2.01635 56.551 2.00627C56.5461 1.9353 56.535 1.86488 56.5179 1.79582C56.5056 1.77175 56.3758 1.56579 55.4864 1.28761C54.6878 1.04632 53.8692 0.876613 53.0405 0.780515C52.1641 0.671715 51.2796 0.64305 50.3981 0.694877C49.3559 0.759804 48.9473 0.962971 48.7962 1.07883C48.0915 1.61279 47.2984 2.43446 46.5014 3.45537C45.6316 4.57479 44.7948 5.74178 44.0152 6.93004L43.7952 7.26587L43.5562 6.94291C42.7096 5.79843 41.8058 4.69739 40.8483 3.64398C39.9724 2.68184 39.1205 1.91336 38.3856 1.42194C38.1886 1.29545 37.743 1.14208 36.7664 1.14208C35.8957 1.14657 35.0273 1.22936 34.1715 1.38947C33.3535 1.53541 32.5506 1.75573 31.7726 2.04769C30.8351 2.40702 30.7209 2.63091 30.7092 2.65498C30.6974 2.67905 30.6678 2.77083 30.6784 3.07923C30.6957 3.58969 30.8217 4.42702 31.0523 5.56826C31.3881 7.239 31.8157 9.07317 32.3553 11.1754C32.8428 13.0751 33.3734 14.9496 33.932 16.7457C34.5902 18.863 34.8975 19.434 35.0273 19.5823Z" fill="white"/>
<path d="M66.2791 23.1991C65.9433 23.1991 65.4883 23.1157 64.8597 22.9489C63.7795 22.6646 62.6237 22.3131 61.5362 21.9762L60.6334 21.6963C59.744 21.4204 58.9039 21.1601 58.0822 20.8998C56.8335 20.5047 56.196 20.2366 55.8837 19.9746C55.6503 19.7854 55.54 19.331 55.7046 17.6742C55.8305 16.416 56.0202 14.9669 56.2687 13.3645C56.5329 11.6607 56.8285 9.98494 57.1391 8.38305C57.4794 6.64795 57.7738 5.30464 58.0402 4.28485C58.1464 3.74819 58.3114 3.22488 58.5322 2.72439C58.5384 2.70927 58.5456 2.6936 58.5529 2.67793C58.8031 2.13837 59.0936 1.83052 59.4412 1.73649C59.9046 1.61503 61.3067 1.85291 62.1009 2.00571C63.6572 2.30963 65.1935 2.70833 66.7012 3.19958C68.2102 3.68559 69.6855 4.27083 71.1173 4.95147C72.4371 5.58562 73.1944 6.08152 73.3679 6.4263C73.519 6.69384 73.5699 7.19142 72.8591 8.79275C72.816 8.88902 72.774 8.98249 72.7315 9.07261L72.7147 9.10787C72.7063 9.1269 72.6973 9.14537 72.6889 9.16384C72.6621 9.21981 72.633 9.27914 72.6067 9.33679C72.5742 9.40507 72.5412 9.47112 72.5087 9.53661C72.1208 10.3107 71.7397 10.9057 71.3747 11.3047L71.3703 11.3092C71.0591 11.6355 70.4322 11.5784 69.1359 11.1071C68.2247 10.778 67.0163 10.3487 65.6265 9.9021L65.6114 9.95527C65.6025 9.98605 65.5941 10.0152 65.5868 10.0426C66.3855 10.3549 67.051 10.6835 67.5687 11.0221L67.5861 11.0344C67.7971 11.1967 67.8693 11.532 67.8189 12.1219C67.771 12.6391 67.6699 13.15 67.5172 13.6466C67.3714 14.1397 67.1707 14.6149 66.9189 15.0632C66.6301 15.5669 66.3083 15.7846 65.9629 15.7119C65.7821 15.6929 65.5056 15.6279 65.0724 15.502C64.7629 15.4124 64.4142 15.3055 63.9888 15.1701L63.9547 15.2647L63.93 15.3341C64.6017 15.5669 65.2901 15.8149 66.0793 16.1054C66.2943 16.1837 66.5053 16.2621 66.7118 16.3388L67.1842 16.5139C67.2928 16.5542 67.3874 16.5912 67.4736 16.6259C67.5995 16.6768 67.7098 16.7238 67.8094 16.7697C67.8407 16.7837 67.871 16.7972 67.8995 16.8112C67.9281 16.8251 67.9482 16.8341 67.9734 16.8464C68.101 16.9074 68.2107 16.9645 68.3092 17.021C68.7296 17.2612 68.9618 17.4845 69.0368 17.7224C69.1387 17.9759 69.1314 18.4892 68.4038 20.2411C67.8687 21.5284 67.37 22.4457 66.9217 22.9741C66.7946 23.1258 66.592 23.1991 66.2791 23.1991ZM56.2503 19.5515C56.5699 19.8134 57.4861 20.1241 58.2512 20.3659C59.0712 20.6261 59.9108 20.8858 60.799 21.1612L61.7018 21.4411C62.7317 21.7601 63.9295 22.125 65.0041 22.4077C66.2243 22.7312 66.4655 22.6355 66.5047 22.6092C66.906 22.1351 67.3863 21.2418 67.8905 20.03C68.6103 18.2989 68.532 17.9658 68.5208 17.9334L68.5124 17.9149L68.5079 17.8975C68.5079 17.892 68.4643 17.7571 68.035 17.5119C67.9488 17.4627 67.8486 17.41 67.7355 17.3563L67.6644 17.3222L67.5838 17.2852C67.4887 17.2427 67.384 17.1979 67.2648 17.1492C67.1831 17.1162 67.093 17.0809 66.9894 17.0423L66.5193 16.8677C66.3133 16.7931 66.1028 16.7156 65.8879 16.6354C64.9963 16.3069 64.2317 16.0337 63.4812 15.7751L63.2125 15.6822L63.3093 15.4152C63.3429 15.3229 63.3826 15.2109 63.4297 15.0794L63.6474 14.476L63.9043 14.5589C64.4444 14.733 64.8659 14.8628 65.2297 14.9686C65.6321 15.085 65.8946 15.1477 66.0329 15.16H66.0547L66.076 15.1656C66.1191 15.1762 66.2495 15.1096 66.4347 14.7867C66.6658 14.3755 66.8496 13.9395 66.9827 13.487C67.1241 13.0279 67.2179 12.5555 67.2626 12.0771C67.2984 11.6518 67.2519 11.509 67.2362 11.4749C66.7056 11.1323 66.0049 10.7971 65.1536 10.478L64.9179 10.3902L64.9806 10.1461C65.003 10.0577 65.0321 9.95303 65.0735 9.80639C65.1082 9.68157 65.1446 9.56459 65.1821 9.45881L65.2722 9.20358L65.5303 9.2853C67.0415 9.76609 68.3534 10.2312 69.3279 10.5833C70.7176 11.087 70.9426 10.9465 70.9662 10.9252C71.2953 10.5642 71.6462 10.0135 72.0095 9.28809C72.0408 9.22597 72.0716 9.16216 72.1029 9.09724C72.1343 9.03231 72.1589 8.9853 72.1841 8.92932L72.2082 8.87727L72.2261 8.83977C72.2669 8.75246 72.3078 8.66122 72.3486 8.56887C73.0298 7.03582 72.8977 6.73302 72.8804 6.70336L72.868 6.67985C72.8652 6.67481 72.6772 6.325 70.876 5.46025C69.467 4.79013 68.0151 4.21422 66.5299 3.73633C65.0441 3.25238 63.53 2.85985 61.9962 2.56094C60.4156 2.25758 59.7373 2.24359 59.5861 2.28109C59.4182 2.32642 59.2307 2.55199 59.0623 2.91636L59.0438 2.95666C58.8389 3.42237 58.6861 3.90928 58.5882 4.40854L58.5848 4.42254C58.3212 5.43001 58.0251 6.76381 57.6893 8.49387C57.377 10.0879 57.0854 11.7559 56.8223 13.4529C56.5755 15.0425 56.3874 16.4815 56.2626 17.7296C56.1176 19.177 56.2189 19.4922 56.2503 19.5515Z" fill="white"/>
<path d="M76.8557 30.8755C76.6475 30.8755 76.5148 30.8419 76.4197 30.7719C75.9405 30.4921 75.584 29.8316 75.2655 28.6305C74.9986 27.6291 74.6818 26.8271 74.3493 26.3105C74.1187 25.978 73.9956 25.9657 73.9905 25.9657C73.9704 25.9705 73.9523 25.9817 73.939 25.9976C73.5937 26.4941 73.2746 26.8539 72.9903 27.0678C72.636 27.3331 72.1507 27.3017 71.502 26.9732C70.9423 26.6866 70.2931 26.3233 69.4557 25.8291C68.6593 25.359 68.2177 25.0864 68.0246 24.9067C67.8404 24.7466 67.7447 24.5216 67.7447 24.2384C67.7324 23.9731 67.9126 23.3429 68.8014 21.207C69.5352 19.444 70.3345 17.6154 71.178 15.7723C72.1261 13.7013 72.9657 11.9769 73.7454 10.5015C74.3784 9.30034 74.8648 8.55929 75.2292 8.23634C75.406 8.08018 75.57 8.00741 75.7329 8.01245C76.9978 8.06842 78.4699 8.47421 80.1081 9.22646C81.8082 10.0071 83.3487 11.0965 84.6513 12.4392C85.9677 13.792 86.8817 15.3385 87.3676 17.0355C87.8517 18.7281 87.5528 20.4022 86.4799 22.0108C86.448 22.0578 86.4177 22.1015 86.3875 22.1451L86.3842 22.1496C86.3371 22.2168 86.2901 22.2828 86.2426 22.3466L86.2051 22.3975L86.1849 22.4244C86.1233 22.5061 86.0627 22.5843 86.003 22.6589C85.9274 22.7541 85.8474 22.8498 85.7668 22.9421C85.7629 22.9466 85.759 22.9517 85.7545 22.9561C85.3742 23.3995 84.9381 23.7917 84.4571 24.1231C83.6768 24.6504 82.8339 24.9291 81.9552 24.9537C81.9871 25.1647 82.0162 25.3786 82.0419 25.5929C82.0755 25.8728 82.1024 26.1476 82.1225 26.4112C82.1416 26.6597 82.1556 26.9105 82.164 27.1551V27.2144C82.164 27.29 82.1679 27.3661 82.169 27.4383C82.1701 27.5105 82.169 27.6034 82.169 27.6851C82.169 28.6663 82.0263 29.2926 81.7352 29.5999C81.6934 29.6425 81.6479 29.6813 81.5992 29.7157L81.5679 29.7376C81.5529 29.7486 81.5374 29.7589 81.5214 29.7684L81.5108 29.7751L81.4643 29.8495H81.3804C81.1253 29.9743 80.8593 30.0751 80.5856 30.1506C80.0818 30.3001 79.5333 30.4361 78.9529 30.5553C78.3546 30.6773 77.8508 30.7658 77.4126 30.8251C77.2282 30.854 77.0422 30.8709 76.8557 30.8755ZM76.737 30.3085C76.7812 30.3169 76.9268 30.3297 77.3409 30.2727C77.7674 30.2167 78.2589 30.1288 78.8449 30.009C79.4091 29.8932 79.9425 29.7611 80.4305 29.6172C80.6783 29.5497 80.9189 29.4578 81.1486 29.343L81.2074 29.3094L81.2281 29.2965L81.255 29.2786C81.26 29.2747 81.2656 29.2713 81.2701 29.2674L81.2779 29.2624C81.2979 29.2477 81.3166 29.2314 81.3339 29.2137C81.396 29.1476 81.6104 28.8331 81.611 27.6874C81.611 27.609 81.611 27.5301 81.611 27.4506C81.611 27.3711 81.611 27.3045 81.6059 27.2312V27.1719C81.5981 26.9373 81.5847 26.695 81.5656 26.4538C81.5466 26.1974 81.5208 25.931 81.4884 25.6595C81.4498 25.3416 81.4039 25.0243 81.3524 24.7175L81.2964 24.3756L81.6429 24.3918C82.5255 24.4321 83.3684 24.1858 84.147 23.6597C84.5887 23.3543 84.989 22.9931 85.3381 22.585L85.3465 22.5755C85.4215 22.4899 85.4959 22.4009 85.567 22.3119C85.6233 22.241 85.6802 22.1677 85.7377 22.0919L85.7578 22.0645C85.769 22.0494 85.7808 22.0343 85.792 22.0186C85.8379 21.9559 85.8827 21.8944 85.9263 21.8317C85.9582 21.7858 85.9873 21.7438 86.0164 21.7007C86.9931 20.2371 87.2674 18.7191 86.8303 17.1917C86.3702 15.5842 85.5026 14.1172 84.2517 12.8315C82.9969 11.538 81.513 10.4885 79.8753 9.73635C78.3081 9.01713 76.9088 8.62645 75.7217 8.57384C75.6777 8.59429 75.6376 8.62211 75.603 8.65612C75.3903 8.84418 74.9818 9.36247 74.2435 10.7634C73.4689 12.2299 72.6338 13.9442 71.6907 16.0057C70.8511 17.8426 70.053 19.6656 69.322 21.4225C68.4718 23.4671 68.3005 24.0683 68.3072 24.2121V24.2306C68.3072 24.3918 68.3582 24.4545 68.3962 24.4864L68.4063 24.4953C68.5742 24.6521 69.158 25.0024 69.7429 25.3472C70.5707 25.8358 71.211 26.1946 71.7578 26.475C72.0545 26.6256 72.4513 26.7734 72.6534 26.6206C72.8929 26.4403 73.175 26.1168 73.4929 25.6606L73.517 25.6304C73.5792 25.5557 73.658 25.4966 73.7471 25.4577C73.8362 25.4188 73.9332 25.4013 74.0303 25.4065C74.2961 25.425 74.5525 25.6176 74.8138 25.9954L74.8189 26.0026C75.1838 26.5674 75.5258 27.4265 75.8079 28.4861C76.0816 29.5171 76.3777 30.1092 76.7135 30.2934L76.737 30.3085ZM79.2915 19.4876C78.8286 19.4876 78.3507 19.3505 77.8637 19.0785C77.0896 18.6503 76.9799 17.8398 77.5391 16.6717C77.8749 15.9732 78.2465 15.5652 78.6837 15.4241C78.9938 15.3239 79.3189 15.3648 79.6503 15.5461C80.515 16.0225 81.0496 16.562 81.2416 17.1514C81.4335 17.7408 81.3742 18.2618 81.0636 18.6844C80.7708 19.0813 80.3147 19.3393 79.7079 19.4507C79.5706 19.4758 79.4312 19.4883 79.2915 19.4882V19.4876ZM79.0184 15.9312C78.9631 15.9311 78.9082 15.9396 78.8555 15.9564C78.5807 16.0454 78.3003 16.3762 78.0439 16.913C77.4283 18.2003 77.9426 18.4841 78.1357 18.5921C78.6619 18.8865 79.1432 18.9872 79.6066 18.9016C80.0701 18.816 80.4042 18.6369 80.6141 18.3536C80.8151 18.0811 80.8464 17.7441 80.7104 17.3249C80.5671 16.8822 80.1081 16.4372 79.3828 16.0376C79.2723 15.9717 79.1469 15.9351 79.0184 15.9312Z" fill="white"/>
</g>
</svg>
