<svg width="95" height="43" viewBox="0 0 95 43" fill="none" xmlns="http://www.w3.org/2000/svg">
<path d="M93.1379 25.2498C93.0662 25.2494 92.9945 25.2448 92.9233 25.236C92.5106 25.1847 92.2641 25.0339 92.0729 24.7105C91.8736 24.3746 91.7683 23.89 91.7683 23.3087V23.293C91.7344 21.3232 91.7344 19.3317 91.7344 17.4088C91.7346 14.4955 91.9038 11.5847 92.2411 8.69111V8.67858C92.3089 8.0092 92.373 7.37983 92.4981 6.75654C92.6163 6.26703 93.0415 5.9663 93.6369 5.95215H93.6773C94.2707 5.95215 94.75 6.26582 94.8977 6.75169L94.9053 6.77634C95.0074 7.08314 95.0038 7.25049 94.9973 7.30788L94.9921 7.35316V7.39883C94.9582 9.16646 94.8884 10.9373 94.8214 12.6496V12.6573C94.7871 13.6387 94.752 14.6525 94.752 15.6598C94.752 16.2523 94.7556 16.8498 94.7597 17.4278V17.4403C94.7669 18.5847 94.7746 19.7678 94.7524 20.9392C94.7193 21.881 94.6536 22.8156 94.5507 23.7962C94.5075 24.1826 94.3357 24.5323 94.0262 24.8625C93.7604 25.1301 93.4861 25.2498 93.1379 25.2498Z" fill="white"/>
<path d="M48.8043 16.4573C49.6869 16.0448 49.877 14.582 49.2289 13.1901C48.5808 11.7982 47.34 11.0043 46.4574 11.4168C45.5748 11.8294 45.3847 13.2922 46.0328 14.6841C46.6809 16.0759 47.9217 16.8699 48.8043 16.4573Z" fill="white"/>
<path d="M54.9573 14.1018C55.6885 13.7601 55.846 12.5484 55.3091 11.3954C54.7723 10.2425 53.7444 9.58485 53.0133 9.92661C52.2822 10.2684 52.1246 11.4801 52.6615 12.633C53.1983 13.786 54.2262 14.4436 54.9573 14.1018Z" fill="white"/>
<path d="M4.44336 25.1925C2.93414 25.1925 1.94897 24.667 1.43097 23.5878C0.442167 21.5263 0.143227 17.9409 0.00444818 15.4226C-0.0221781 14.1696 0.0702082 12.7981 0.295724 11.1089C0.440555 10.0353 0.608784 9.09871 0.809691 8.24541L0.816548 8.21711L0.821793 8.18801C1.0695 6.7862 2.77115 6.20736 4.15451 5.9713C5.02694 5.82975 5.90914 5.75731 6.79292 5.75464C8.42681 5.75464 9.49589 6.03759 9.80653 6.55498C9.9679 6.82257 9.92272 7.19566 9.67421 7.66375C9.58868 7.82543 9.50154 7.97661 9.37446 8.06594C9.09206 8.264 8.70759 8.36021 8.20008 8.36021C7.66998 8.36021 7.07895 8.25673 6.50568 8.1581C5.94573 8.06028 5.41643 7.96731 4.94482 7.96731C4.9026 7.96731 4.86104 7.96812 4.82016 7.96974C4.38567 7.98631 4.00484 8.12212 3.74745 8.35293C3.21412 8.83071 3.16288 9.53041 3.12173 10.0911C3.11367 10.2063 3.1056 10.3146 3.0943 10.4164C3.03177 10.9775 2.97892 11.5482 2.92769 12.0984C2.89864 12.4104 2.86879 12.7334 2.83732 13.0503C2.81737 13.2132 2.80982 13.3774 2.81473 13.5414C2.8466 14.1631 3.23187 14.5196 3.87251 14.5196C4.22067 14.5196 4.60514 14.4226 4.94442 14.3373C5.06545 14.3074 5.17841 14.2787 5.27926 14.2565C5.62904 14.1825 6.15309 14.0839 6.66423 14.0839C7.09711 14.0839 7.46262 14.1554 7.75026 14.2961C7.87757 14.3558 7.99137 14.4409 8.08474 14.5462C8.1781 14.6515 8.24906 14.7748 8.29327 14.9085C8.33128 15.0236 8.34542 15.1452 8.3348 15.2659C8.32419 15.3867 8.28905 15.504 8.23155 15.6106C7.99554 16.0455 7.40937 16.2573 6.43872 16.2573C6.32616 16.2573 6.20634 16.2545 6.07321 16.2493L5.84689 16.2392C5.6016 16.2282 5.34785 16.2165 5.09369 16.2165C4.64588 16.2165 4.28441 16.2533 3.95643 16.3325C3.86243 16.3548 3.5768 16.4235 3.48078 16.6886C3.44789 16.7882 3.44398 16.895 3.46949 16.9967C3.53565 17.333 3.59657 17.6786 3.65547 18.0124C3.75996 18.6062 3.86807 19.2198 4.01291 19.8201L4.03146 19.8973C4.2235 20.6952 4.46192 21.6884 5.40836 22.2013C5.75248 22.3902 6.13915 22.4876 6.5315 22.4843C7.04184 22.4843 7.53523 22.3367 8.01289 22.1945C8.27108 22.1173 8.53735 22.0376 8.79715 21.9859C8.90594 21.964 9.01661 21.9529 9.12756 21.9527C9.72181 21.9527 10.2519 22.268 10.4464 22.7373C10.5722 23.0409 10.5751 23.2955 10.4548 23.5158C10.0284 24.2988 8.17265 24.6343 7.06363 24.8348C6.82843 24.8772 6.60614 24.9156 6.42056 24.956C5.6718 25.1145 5.0247 25.1917 4.44377 25.1917L4.44336 25.1925Z" fill="white"/>
<path d="M15.4365 25.8245C15.1829 25.8274 14.9318 25.7733 14.7018 25.666C14.3448 25.4955 14.1011 25.1692 13.9599 24.9251C13.2741 23.7448 13.0498 22.3381 12.8303 20.9812L12.7549 20.5127C12.5225 19.0696 12.2821 17.5777 12.0788 16.1068L12.0763 16.091C11.7407 13.9014 11.6071 11.6854 11.6774 9.47117C11.687 9.14133 11.6814 8.82442 11.6774 8.51924C11.6721 8.22538 11.6673 7.9497 11.6749 7.67807V7.66594C11.6878 6.91289 12.1005 6.46947 12.8372 6.4153C13.4044 6.37124 14.1475 6.32031 14.8745 6.32031C15.6753 6.32031 16.3773 6.38054 17.0207 6.50423C18.887 6.88258 20.2369 7.42301 21.2652 8.20476C22.2839 8.97883 23.0205 10.0173 23.5845 11.4732C24.1897 13.1228 24.249 14.8824 23.7644 17.011C23.2751 19.0361 22.5913 20.562 21.6118 21.8131C20.9453 22.6643 20.0787 23.4372 18.9645 24.1757C18.8701 24.2383 18.7708 24.3054 18.6667 24.3754C17.759 24.9869 16.5161 25.8245 15.4369 25.8245H15.4365ZM15.5753 8.28641C14.9855 8.28641 14.5324 8.42587 14.229 8.70073C13.3641 9.48451 13.7364 11.4749 13.9825 12.7918C14.0297 13.0444 14.0705 13.2623 14.0939 13.428C14.3045 14.9196 14.5901 16.4192 14.8664 17.8716C14.9097 18.0963 14.9525 18.3209 14.9947 18.5454C15.146 19.3461 15.5494 21.4739 16.9473 21.4739C17.3354 21.4739 17.7618 21.3017 18.2137 20.9618C20.8573 18.9743 22.11 15.1088 21.1926 11.7707C21.1514 11.6208 21.1017 11.4733 21.0437 11.3289C20.6806 10.4231 19.9892 9.6947 19.05 9.22257C18.5348 8.96145 16.9005 8.28641 15.5753 8.28641Z" fill="white"/>
<path d="M29.8892 25.14C28.7354 25.14 27.7841 24.5511 26.8958 23.2867L26.8849 23.2701L26.87 23.2507C26.2047 22.3655 25.9647 21.1892 25.8178 20.154V20.1443V20.1395C25.4971 17.9589 25.5036 15.7424 25.8372 13.5637V13.5484C26.0389 12.1336 26.2846 10.4638 26.6037 8.80248C26.644 8.59754 26.6751 8.36552 26.7094 8.11976C26.8139 7.37034 26.9442 6.43782 27.3371 5.97176C27.4803 5.80199 27.7309 5.69245 27.975 5.69245C28.1288 5.68757 28.2789 5.74049 28.3957 5.8408C28.6781 6.10192 28.7495 6.54413 28.7588 6.86912C28.7923 8.03002 28.6358 9.2168 28.4845 10.3648C28.4478 10.6437 28.4094 10.9307 28.3748 11.2164C28.1908 12.7197 28.0004 14.2743 27.9447 14.9668C27.8523 16.1143 27.7898 17.3375 27.9568 18.5065C28.2392 20.4758 29.2074 21.6056 30.6134 21.6056C30.9141 21.6025 31.2129 21.557 31.5009 21.4702C32.5837 21.1549 33.2377 20.2369 33.7198 19.2777C34.1861 18.348 34.4681 17.3245 34.7025 16.3176C34.8534 15.6709 34.9712 15.0161 35.0656 14.3584C35.1709 13.6308 35.2484 12.9012 35.3137 12.17C35.3206 12.0928 35.3294 12.0006 35.3391 11.8988C35.3718 11.5523 35.4134 11.1101 35.4335 10.7613C35.5775 10.7597 35.7206 10.7397 35.8595 10.7019L37.5882 10.2771C37.5822 10.3146 37.5765 10.3526 37.5709 10.3906C37.5305 10.655 37.4902 10.9048 37.4769 11.0479C37.2901 12.8721 37.071 14.7242 36.8266 16.5521C36.4917 18.7162 35.8019 20.6852 34.7763 22.4043C34.2333 23.3057 33.581 23.9638 32.7826 24.4149C32.0209 24.8449 31.1366 25.0806 30.0796 25.136C30.0127 25.138 29.9489 25.14 29.8892 25.14Z" fill="white"/>
<path d="M87.4185 25.0107C87.3729 25.0107 87.3275 25.006 87.283 24.9965C86.7182 24.8752 86.4926 24.0915 86.4043 23.4552C86.0815 21.1549 86.349 18.8601 86.606 16.641C86.8009 14.9534 87.003 13.2084 86.9546 11.446C86.9384 10.8652 86.6173 10.6052 86.3062 10.6052C86.1505 10.6052 85.9117 10.6695 85.6583 10.9747C84.9322 11.8543 84.1544 12.8102 83.4149 13.8378C82.7387 14.7776 81.9984 15.6951 81.0427 15.6971H81.0383C79.8877 15.6971 79.1664 14.4902 78.6665 13.4388C78.594 13.2686 78.532 13.094 78.481 12.9161C78.3131 12.3826 78.1231 11.7779 77.681 11.5014C77.5602 11.421 77.4146 11.3871 77.2708 11.4058C77.1271 11.4245 76.9949 11.4946 76.8987 11.6033C76.7684 11.7342 76.3743 12.1328 76.0854 14.4611C75.9414 15.6256 75.8869 16.7772 75.8885 17.0614C75.8885 17.3847 75.8942 17.713 75.8978 18.0315C75.9152 19.4515 75.9325 20.92 75.751 22.3432C75.6424 23.1961 75.1031 24.809 73.8415 24.809C73.7393 24.8087 73.6373 24.7988 73.537 24.7794C72.4291 24.5697 72.3977 23.475 72.4711 22.0655C72.4776 21.9443 72.4836 21.8275 72.4876 21.7159V21.7309C72.4876 21.728 72.4876 21.6904 72.4876 21.6904C72.5482 19.787 72.8648 17.8645 73.1711 16.006C73.6423 13.2888 74.1038 11.0996 74.6234 9.11976C74.8371 8.32467 75.0945 7.54199 75.3943 6.77531C75.7058 6.06875 76.3416 5.61279 77.0153 5.61279C77.0557 5.61279 77.096 5.61279 77.1363 5.61724C77.5712 5.64998 77.9981 5.90019 78.3394 6.32421C78.7876 6.92811 79.1708 7.61446 79.4867 8.20664C79.6392 8.49242 79.759 8.83802 79.8857 9.20465C80.1524 9.97548 80.4283 10.7726 81.079 11.2609C81.2946 11.4284 81.5595 11.5196 81.8322 11.5204C82.8811 11.5204 83.8897 10.2031 84.7046 9.14442C84.9979 8.76243 85.2751 8.40187 85.459 8.24019L85.591 8.12337C86.1509 7.6278 86.8476 7.01057 87.5311 6.91719H87.5391C87.6103 6.90685 87.6822 6.90158 87.7542 6.90143C88.329 6.90143 88.8341 7.25956 89.1052 7.85942L89.1125 7.87437C89.7043 9.12744 89.5813 10.8385 89.4732 12.349C89.4514 12.6542 89.4304 12.9424 89.4159 13.2229C89.2989 15.4461 89.1738 17.6964 89.0431 19.9135C88.9753 21.0683 88.9051 22.2624 88.6534 23.4193C88.5634 23.8328 88.4448 24.26 88.1899 24.5846C87.9845 24.8457 87.6884 25.0078 87.4169 25.0078L87.4185 25.0107Z" fill="white"/>
<path d="M58.6143 42.8092C58.4465 42.8092 58.2775 42.8063 58.1117 42.8007C56.1926 42.7352 54.5425 42.3665 53.208 41.7052C51.468 40.8439 50.267 39.5039 49.6385 37.7229C49.0261 35.9888 48.9369 33.9132 49.3992 32.1706C49.9983 29.9131 51.8255 28.1576 54.2868 27.4757C54.968 27.2865 55.6716 27.1903 56.3785 27.1899C56.8839 27.1893 57.3879 27.2402 57.8829 27.3419C59.1517 27.6034 60.293 28.2 61.1838 29.0675C62.0201 29.8816 62.486 30.9964 62.4961 32.2058C62.5078 33.568 61.9313 34.967 60.9587 35.948C60.1571 36.7517 59.0706 37.2048 57.9366 37.2084C57.7476 37.2077 57.5589 37.1942 57.3718 37.1679C56.7769 37.0888 56.2088 36.8712 55.713 36.5326C55.2172 36.194 54.8073 35.7438 54.5163 35.218C54.4337 35.0697 54.3811 34.9065 54.3614 34.7378C54.3417 34.569 54.3554 34.3981 54.4017 34.2346C54.4479 34.0712 54.5259 33.9185 54.631 33.7853C54.7362 33.652 54.8665 33.5408 55.0146 33.4581C55.1626 33.3753 55.3255 33.3225 55.4939 33.3028C55.6623 33.2831 55.8329 33.2968 55.996 33.3432C56.1591 33.3895 56.3115 33.4676 56.4445 33.573C56.5775 33.6783 56.6885 33.8089 56.7711 33.9573C56.8664 34.1339 57.0028 34.2849 57.1688 34.3975C57.3347 34.51 57.5253 34.5809 57.7244 34.604C57.7946 34.6137 57.8653 34.6186 57.9362 34.6186C58.3834 34.6167 58.8118 34.4377 59.1279 34.1206C59.6185 33.6266 59.9198 32.9002 59.9142 32.2248C59.9093 31.6969 59.731 31.2579 59.3841 30.92C58.624 30.1799 57.5566 29.7724 56.3777 29.7724C55.9035 29.7733 55.4315 29.8385 54.9746 29.966C53.4069 30.4006 52.2551 31.4721 51.894 32.8327C51.5652 34.0725 51.6334 35.6145 52.072 36.8575C52.8179 38.9699 54.8794 40.0989 58.1996 40.2125C58.3295 40.2169 58.4622 40.2189 58.5942 40.2189C62.5006 40.2189 66.9709 38.2949 68.153 33.9965C69.1236 30.4689 68.8114 26.624 68.4426 23.2973C68.4084 22.9913 68.3765 22.6756 68.3454 22.3704C68.2325 21.2572 68.1155 20.1068 67.8706 19.0078L67.8028 18.7058L66.9556 18.8578C66.9395 18.8607 66.8874 18.8647 66.8531 18.8675C66.7761 18.8736 66.6736 18.8817 66.5623 18.8999C64.8961 19.108 63.3909 19.294 61.8458 19.4597L61.8055 19.4637L61.7651 19.4706C61.499 19.5131 61.2487 19.6246 61.0389 19.794C60.4092 20.3195 60.7618 21.4436 60.9946 22.1885C61.0446 22.3502 61.0882 22.4865 61.112 22.5879C61.3197 23.4606 61.4476 24.3507 60.9804 24.951C60.7295 25.2743 60.2946 25.4655 59.8141 25.4655C59.7907 25.4655 59.7669 25.4655 59.7431 25.4655C59.0686 25.4372 58.2412 25.075 57.9648 24.4364C57.7341 23.9024 57.768 23.2391 57.801 22.5976C57.8087 22.4505 57.8164 22.2985 57.8208 22.153C57.8511 21.0842 57.8979 20.1461 57.9628 19.2855C58.1242 17.1431 58.3969 15.3957 58.8189 13.7882C59.2348 12.2986 59.8274 10.3798 60.715 8.74841C61.6804 6.97512 62.768 5.96903 63.9477 5.75722C64.1007 5.73009 64.2558 5.71656 64.4112 5.7168C65.8768 5.7168 67.0912 7.04869 67.8516 8.16634C68.9038 9.71206 69.6057 11.5848 69.9123 12.8217V12.8286C70.645 15.7446 70.8967 18.9221 71.14 21.9953C71.1835 22.5483 71.2287 23.1203 71.2759 23.6744C71.2856 23.7909 71.2951 23.9073 71.3046 24.0237C71.6568 28.4446 71.4514 31.7341 70.6389 34.6893C69.916 37.3167 68.2143 39.4821 65.7171 40.9469C63.6721 42.1467 61.1479 42.8092 58.6143 42.8092ZM64.1885 8.89999C63.9533 8.89999 63.6084 9.02126 63.301 9.60373C62.4986 11.1372 61.9093 12.7734 61.5493 14.4668C61.5339 14.5396 61.5057 14.6556 61.473 14.7902C61.091 16.3602 60.9332 17.3497 61.2572 17.7616L61.354 17.8849H61.5105C61.5291 17.8849 61.5291 17.8849 61.9503 17.8384C63.6689 17.648 65.3048 17.4702 66.887 17.2988L67.3711 17.2462C67.4299 17.2398 67.4861 17.219 67.535 17.1857C67.5838 17.1523 67.6237 17.1075 67.6511 17.055C67.7318 16.9087 67.85 16.6876 67.0734 14.0752C66.7103 12.852 66.2666 11.5153 66.1423 11.2707C66.102 11.1899 66.0564 11.0981 66.0088 11.0003C65.6618 10.2889 65.1866 9.31431 64.5161 8.97922C64.4145 8.92779 64.3023 8.90067 64.1885 8.89999Z" fill="white"/>
<path d="M48.2705 25.314C47.7205 25.3132 47.1709 25.2811 46.6245 25.2177C45.9466 25.14 45.2791 24.9892 44.6336 24.7679C44.5444 24.7355 43.9518 24.4526 43.5597 24.2654C42.7972 23.9016 42.7972 23.9016 42.7125 23.9016H42.5914L42.4991 23.9825C42.0113 24.4271 41.6644 24.556 40.9511 24.556C40.1737 24.556 39.5129 24.3297 38.9872 23.8834C38.4434 23.421 38.0731 22.7468 37.8863 21.8797C37.6995 21.0127 37.95 19.9714 38.9412 19.7491L39.3043 19.6683L39.1716 19.3194C38.9531 18.7456 38.7925 18.1513 38.6923 17.5453C38.4127 15.8448 38.6011 13.9883 39.2523 12.0238L39.2563 12.0112C39.4383 11.4453 39.9018 10.4053 40.3512 9.65023C40.8353 9.51926 42.5644 9.04714 43.2333 8.80138C44.9063 8.19182 45.5292 7.92948 46.3397 6.94199L47.6347 5.54785C48.7207 5.61253 49.7809 5.9072 50.1436 6.2524C50.2941 6.40155 50.2989 6.52161 50.2832 6.61943C50.1428 7.51153 48.8954 7.84379 48.1422 7.84379C48.0841 7.84379 48.0268 7.84177 47.9724 7.83813L47.7533 7.82237C47.6581 7.81509 47.5629 7.80782 47.4673 7.80175C47.3717 7.79569 47.2869 7.79326 47.1978 7.79326C44.051 7.79326 42.6867 11.2267 42.3433 12.28C41.524 14.7902 41.7878 17.6157 43.0489 19.8389C43.4985 20.6266 44.1147 21.3062 44.8543 21.83C45.5939 22.3537 46.4389 22.7088 47.3301 22.8705C47.6675 22.9322 48.0091 22.9684 48.352 22.9788C48.4242 22.9812 48.4984 22.9824 48.5723 22.9824C50.637 22.9824 53.1528 22.0867 54.1182 20.0858C54.2303 19.853 54.2356 19.6262 54.1331 19.4629C54.0911 19.3971 54.0328 19.3433 53.9639 19.3067C53.8949 19.27 53.8177 19.2519 53.7398 19.254C53.6648 19.2555 53.5905 19.2692 53.5199 19.2944C52.3774 19.6743 51.0796 19.8603 49.5518 19.8603C49.3255 19.8603 49.0886 19.8562 48.8482 19.8482C48.2556 19.828 47.8287 19.6929 47.6137 19.4573C47.4854 19.317 47.4298 19.1339 47.4431 18.8962C47.4558 18.6697 47.5545 18.4567 47.7189 18.3007C47.8833 18.1447 48.101 18.0575 48.3274 18.0571H48.3782C48.7086 18.0716 49.0116 18.0785 49.3081 18.0785C50.0845 18.084 50.86 18.025 51.6266 17.9023L51.6859 17.8926C52.1426 17.8174 52.6138 17.7394 53.0576 17.5728C53.1173 17.5506 53.1786 17.5272 53.2367 17.5041C53.5594 17.3776 53.8668 17.258 54.1767 17.258H54.217C54.8326 17.2786 55.4846 17.6064 55.9191 18.1141C56.1683 18.4066 56.323 18.768 56.3628 19.1505C56.3949 19.4686 56.3708 19.7899 56.2914 20.0996C56.1482 20.6922 55.8477 21.3316 55.3732 22.0544C54.7814 22.9558 54.0343 23.6789 53.2121 24.1454C51.8469 24.9198 50.1844 25.314 48.2705 25.314Z" fill="white"/>
<path d="M34.9743 9.40931C34.8134 9.40798 34.6562 9.36129 34.5206 9.27457C34.3851 9.18785 34.2766 9.06462 34.2077 8.919C34.1356 8.77455 34.1061 8.61248 34.1227 8.45181C34.1392 8.29114 34.2012 8.13854 34.3013 8.01194L37.9576 3.25595C38.4641 2.59867 39.1807 2.13585 39.9872 1.94508L48.1365 0.0250611C48.2055 0.00867098 48.2762 0.000262498 48.3471 0C48.5102 0.00105954 48.6697 0.0489984 48.8065 0.138128C48.9433 0.227257 49.0517 0.353836 49.1188 0.502843C49.1903 0.650409 49.2174 0.81562 49.1967 0.978331C49.1761 1.14104 49.1087 1.29422 49.0026 1.4192L45.2415 6.00421C44.638 6.73647 43.8158 7.25521 42.896 7.48404L35.1933 9.38385C35.1219 9.4017 35.0486 9.41079 34.9751 9.41093L34.9743 9.40931Z" fill="white"/>
</svg>
